<?xml version="1.0" standalone="no"?>
<!DOCTYPE svg PUBLIC "-//W3C//DTD SVG 1.1//EN" "http://www.w3.org/Graphics/SVG/1.1/DTD/svg11.dtd" >
<svg>
<metadata>
Created by FontForge 20090622 at Mon May 29 21:27:41 2017
 By deploy user
Copyright (c) 2013 by AndrijType. All rights reserved.
</metadata>
<defs>
<font id="OnePlusOne2015-Heavy" horiz-adv-x="372" >
  <font-face 
    font-family="OnePlusOne 2015"
    font-weight="900"
    font-stretch="normal"
    units-per-em="1000"
    panose-1="2 1 9 4 4 2 0 2 0 4"
    ascent="750"
    descent="-250"
    x-height="500"
    cap-height="702"
    bbox="-65 -250 1534 926"
    underline-thickness="50"
    underline-position="-50"
    unicode-range="U+0020-U+2122"
  />
<missing-glyph horiz-adv-x="769" 
d="M477 537l118 118l124 -123l-119 -119zM477 105l123 124l119 -119l-124 -123zM135 243v152h172v163h160v-163h169v-152h-169v-164h-160v164h-172zM50 532l123 124l119 -119l-124 -123zM50 110l118 118l124 -123l-119 -118z" />
    <glyph glyph-name=".notdef" horiz-adv-x="769" 
d="M477 537l118 118l124 -123l-119 -119zM477 105l123 124l119 -119l-124 -123zM135 243v152h172v163h160v-163h169v-152h-169v-164h-160v164h-172zM50 532l123 124l119 -119l-124 -123zM50 110l118 118l124 -123l-119 -118z" />
    <glyph glyph-name=".null" horiz-adv-x="0" 
 />
    <glyph glyph-name="nonmarkingreturn" horiz-adv-x="333" 
 />
    <glyph glyph-name="space" unicode=" " horiz-adv-x="315" 
 />
    <glyph glyph-name="exclam" unicode="!" horiz-adv-x="388" 
d="M90 702h219l-49 -421h-121zM86 84q0 45 34 78q33 27 81 27t81 -27q34 -33 34 -78t-34 -78q-33 -27 -81 -27t-81 27q-34 33 -34 78z" />
    <glyph glyph-name="quotedbl" unicode="&#x22;" horiz-adv-x="520" 
d="M285 474v267h180l-36 -267h-144zM28 474v267h180l-36 -267h-144z" />
    <glyph glyph-name="numbersign" unicode="#" horiz-adv-x="721" 
d="M278 208h165l14 153h-165zM45 69v139h97l14 153h-111v139h123l8 85h137l-8 -85h164l8 85h137l-8 -85h70v-139h-82l-14 -153h96v-139h-109l-6 -69h-137l6 69h-165l-6 -69h-136l6 69h-84z" />
    <glyph glyph-name="dollar" unicode="$" horiz-adv-x="589" 
d="M85 400q0 59 33 102t94 60l11 160h137l9 -155q28 -4 53 -10.5t36 -10.5l11 -4l-14 -143q-83 21 -132 21q-54 0 -54 -20q0 -15 36.5 -27.5t80.5 -24t80.5 -46t36.5 -88.5q0 -138 -133 -173l-10 -179h-137l-11 169q-34 3 -65 10t-45 13l-14 5l15 145q62 -23 129 -23
q82 0 82 31q0 11 -23.5 19t-57 17t-67.5 23.5t-57.5 47.5t-23.5 81z" />
    <glyph glyph-name="percent" unicode="%" horiz-adv-x="1099" 
d="M798 194q0 -72 56 -72q59 0 59 72q0 68 -59 68q-56 0 -56 -68zM638 193q0 95 57 153t159 58q99 0 158 -58.5t59 -152.5q0 -97 -56.5 -155.5t-160.5 -58.5q-107 0 -161.5 58t-54.5 156zM298 0l345 702h165l-345 -702h-165zM188 512q0 -72 56 -72q59 0 59 72q0 68 -59 68
q-56 0 -56 -68zM28 511q0 95 57 153t159 58q99 0 158 -58.5t59 -152.5q0 -97 -56.5 -155.5t-160.5 -58.5q-107 0 -161.5 58t-54.5 156z" />
    <glyph glyph-name="ampersand" unicode="&#x26;" horiz-adv-x="689" 
d="M207 230q0 -48 29 -82t88 -34q35 0 62 13q-96 84 -159 179q-20 -26 -20 -76zM28 203q0 146 145 205q-22 58 -22 109q0 102 80.5 153.5t213.5 51.5l62 -156q-30 0 -52.5 -3t-47 -12t-38 -30t-13.5 -53q0 -93 121 -210q4 20 4 48q0 63 -24 129l145 10q29 -76 29 -147
q0 -72 -28 -136q44 -27 84 -40l-75 -143q-48 22 -110 61q-88 -61 -212 -61q-120 0 -191 58.5t-71 165.5z" />
    <glyph glyph-name="quotesingle" unicode="'" horiz-adv-x="262" 
d="M28 474v267h180l-36 -267h-144z" />
    <glyph glyph-name="parenleft" unicode="(" horiz-adv-x="443" 
d="M91 272q0 97 17 182.5t41.5 137.5t49 90.5t41.5 54.5l17 16l150 -62q-5 -6 -13 -18t-29 -53t-37.5 -86t-29.5 -116.5t-13 -145.5t12.5 -144.5t30.5 -117t36 -82.5t30 -53l13 -17l-150 -62q-7 5 -18 16t-39.5 52t-50.5 90.5t-40 135t-18 182.5z" />
    <glyph glyph-name="parenright" unicode=")" horiz-adv-x="443" 
d="M36 -142q5 6 13 18t29 53t37 86t29 116.5t13 145.5t-12.5 144.5t-30.5 117t-35.5 82.5t-30.5 53l-12 17l150 62q7 -5 18 -16t39.5 -52t50.5 -90.5t40 -135t18 -182.5t-17 -182.5t-41.5 -137.5t-49 -90.5t-41.5 -54.5l-17 -16z" />
    <glyph glyph-name="asterisk" unicode="*" horiz-adv-x="481" 
d="M0 483l56 172l128 -80l-32 147h181l-36 -146l130 76l55 -172l-149 -11l112 -100l-147 -106l-57 138l-60 -137l-146 107l114 97z" />
    <glyph glyph-name="plus" unicode="+" horiz-adv-x="555" 
d="M27 197v152h172v163h160v-163h169v-152h-169v-164h-160v164h-172z" />
    <glyph glyph-name="comma" unicode="," horiz-adv-x="326" 
d="M11 -107q9 7 23 19t37 46.5t23 64.5l-2 17q-33 23 -33 71q0 37 25.5 63t74.5 26q51 0 88 -41t37 -107q0 -47 -19.5 -90t-47 -70.5t-54.5 -48.5t-47 -31l-19 -9z" />
    <glyph glyph-name="hyphen" unicode="-" horiz-adv-x="403" 
d="M28 197v152h347v-152h-347z" />
    <glyph glyph-name="period" unicode="." 
d="M70 84q0 45 34 78q33 27 81 27t81 -27q34 -33 34 -78t-34 -78q-33 -27 -81 -27t-81 27q-34 33 -34 78z" />
    <glyph glyph-name="slash" unicode="/" horiz-adv-x="551" 
d="M-22 -250l427 1000h186l-426 -1000h-187z" />
    <glyph glyph-name="zero" unicode="0" horiz-adv-x="661" 
d="M240 349q0 -124 17.5 -171.5t72.5 -47.5t73 47.5t18 171.5t-18 173t-73 49t-72.5 -49t-17.5 -173zM37 349q0 373 293 373q294 0 294 -373q0 -370 -294 -370q-293 0 -293 370z" />
    <glyph glyph-name="one" unicode="1" horiz-adv-x="453" 
d="M27 598q0 19 23 28l175 65q27 11 58 11h68q30 0 30 -30v-642q0 -30 -30 -30h-128q-30 0 -30 30v511l-113 -44q-9 -3 -15 -3q-14 0 -20 21l-16 71q-2 8 -2 12z" />
    <glyph glyph-name="two" unicode="2" horiz-adv-x="546" 
d="M17 30v41q0 32 25 49q16 11 55.5 44.5t93 84.5t92.5 111t39 105q0 44 -27.5 70.5t-71.5 26.5q-71 0 -128 -20q-7 -3 -13 -3q-19 0 -22 24l-15 88q-1 3 -1 9q0 25 25 34q73 28 187 28q126 0 192.5 -66.5t66.5 -173.5q0 -165 -246 -321h220q30 0 30 -30v-101q0 -30 -30 -30
h-442q-30 0 -30 30z" />
    <glyph glyph-name="three" unicode="3" horiz-adv-x="543" 
d="M48 39v7l7 80q3 24 19 24q6 0 14 -3q61 -21 135 -21q59 0 80 20.5t21 65.5q0 38 -19 56.5t-64 18.5h-40q-26 0 -26 24v6l5 52q2 16 6.5 23t17.5 10q16 4 31 11.5t29 27.5t14 48q0 33 -20.5 53.5t-55.5 20.5q-44 0 -97 -19q-7 -3 -14 -3q-14 0 -19 23l-16 88q-1 3 -1 10
q0 20 22 32q20 11 63 20t87 9q244 0 244 -178q0 -98 -93 -153q138 -32 138 -180q0 -114 -70 -173.5t-192 -59.5q-117 0 -181 25q-25 9 -25 35z" />
    <glyph glyph-name="four" unicode="4" horiz-adv-x="623" 
d="M30 218q0 19 8 43l151 413q10 28 40 28h136q22 0 22 -14q0 -5 -3 -14l-149 -381h131l26 212q4 30 34 30h95q30 0 30 -30v-475q0 -30 -30 -30h-129q-30 0 -30 30v115h-294q-31 0 -34 30l-3 28q0 3 -0.5 8t-0.5 7z" />
    <glyph glyph-name="five" unicode="5" horiz-adv-x="562" 
d="M57 39v7l8 80q3 24 19 24q6 0 14 -3q17 -6 64 -13.5t79 -7.5q52 0 77 26.5t25 71.5q0 39 -24.5 64t-75.5 25h-124q-28 0 -28 27v3l20 329q1 30 32 30h315q30 0 30 -30v-98q0 -30 -30 -30h-198l-6 -110h16q265 0 265 -210q0 -64 -23.5 -112.5t-62.5 -76.5t-84 -42t-93 -14
q-126 0 -190 25q-25 9 -25 35z" />
    <glyph glyph-name="six" unicode="6" horiz-adv-x="601" 
d="M230 257q0 -73 18 -103t60 -30q36 0 54 27.5t18 65.5q0 80 -78 80q-40 0 -72 -21v-19zM37 289q0 108 28 193.5t74.5 136.5t103.5 77t120 26q83 0 131 -22q22 -11 22 -33q0 -8 -1 -13l-15 -87q-4 -22 -19 -22q-7 0 -14 3q-44 14 -93 14q-103 0 -132 -157h10q47 27 112 27
q83 0 146 -53t63 -156q0 -102 -74 -173t-191 -71q-127 0 -199 76.5t-72 233.5z" />
    <glyph glyph-name="seven" unicode="7" horiz-adv-x="522" 
d="M9 566v106q0 30 30 30h445q30 0 30 -30v-47q0 -29 -10 -58l-189 -539q-10 -28 -40 -28h-157q-22 0 -22 14q0 5 3 14l206 508h-266q-30 0 -30 30z" />
    <glyph glyph-name="eight" unicode="8" horiz-adv-x="623" 
d="M228 499q0 -43 23 -67t60 -24h7q33 2 54 26t21 65q0 36 -22 57t-60 21q-39 0 -61 -21t-22 -57zM222 216q0 -43 23 -67.5t66 -24.5t65.5 24.5t22.5 67.5q0 40 -23 64t-64 25q-43 -1 -66.5 -24.5t-23.5 -64.5zM26 197q0 109 90 164q-74 53 -74 144q0 93 74 155t195 62
t195 -62t74 -155q0 -90 -75 -144q90 -55 90 -164q0 -97 -69 -157t-212 -61h-3h-3q-144 1 -213 61t-69 157z" />
    <glyph glyph-name="nine" unicode="9" horiz-adv-x="601" 
d="M220 484q0 -80 78 -80q40 0 72 20v20q0 73 -18 103t-60 30q-35 0 -53.5 -28t-18.5 -65zM27 478q0 102 74 173t191 71q127 0 199 -76.5t72 -233.5q0 -108 -28 -193.5t-74.5 -136.5t-103.5 -77t-120 -26q-84 0 -132 23q-21 10 -21 33q0 8 1 12l16 87q4 22 19 22q7 0 14 -3
q39 -14 92 -14q102 0 132 157h-10q-26 -27 -112 -27q-83 0 -146 53t-63 156z" />
    <glyph glyph-name="colon" unicode=":" 
d="M70 516q0 45 34 78q33 27 81 27t81 -27q34 -33 34 -78t-34 -78q-33 -27 -81 -27t-81 27q-34 33 -34 78zM70 184q0 45 34 78q33 27 81 27t81 -27q34 -33 34 -78t-34 -78q-33 -27 -81 -27t-81 27q-34 33 -34 78z" />
    <glyph glyph-name="semicolon" unicode=";" 
d="M70 416q0 45 34 78q33 27 81 27t81 -27q34 -33 34 -78t-34 -78q-33 -27 -81 -27t-81 27q-34 33 -34 78zM38 -107q9 7 23 19t37 46.5t23 64.5l-2 17q-33 23 -33 71q0 37 25.5 63t74.5 26q51 0 88 -41t37 -107q0 -47 -19.5 -90t-46.5 -70.5t-54.5 -48.5t-46.5 -31l-20 -9z
" />
    <glyph glyph-name="less" unicode="&#x3c;" horiz-adv-x="450" 
d="M50 290l230 244l120 -103l-135 -141l135 -141l-120 -103z" />
    <glyph glyph-name="equal" unicode="=" horiz-adv-x="640" 
d="M27 314v152h586v-152h-586zM27 80v152h586v-152h-586z" />
    <glyph glyph-name="greater" unicode="&#x3e;" horiz-adv-x="450" 
d="M50 149l135 141l-135 141l120 103l230 -244l-230 -244z" />
    <glyph glyph-name="question" unicode="?" horiz-adv-x="533" 
d="M126 84q0 45 34 78q33 27 81 27t81 -27q34 -33 34 -78t-34 -78q-33 -27 -81 -27t-81 27q-34 33 -34 78zM71 684q7 4 21.5 10.5t68.5 17t119 10.5q114 0 178 -54.5t64 -125.5q0 -61 -32 -113.5t-78 -84t-91.5 -54t-77.5 -30.5l-32 -9l-53 120l18.5 8t40.5 21.5t51 33
t40.5 39.5t18.5 45q0 18 -23 31t-65 13q-31 0 -66.5 -6t-55.5 -12l-20 -7z" />
    <glyph glyph-name="at" unicode="@" horiz-adv-x="1021" 
d="M452 252q0 -97 73 -97q42 0 57 35v159q-12 4 -43 4q-49 0 -68 -26.5t-19 -74.5zM41 250q0 212 133.5 342t382.5 130q208 0 317.5 -99.5t109.5 -267.5q0 -161 -63 -239.5t-180 -78.5q-107 0 -141 55h-9q-3 -6 -8.5 -15t-31 -24.5t-59.5 -15.5q-90 0 -143.5 53.5
t-53.5 161.5q0 97 66 156.5t180 59.5q49 0 93.5 -5t63.5 -11l20 -5v-260q0 -34 32 -34q39 0 59 43t20 149q0 237 -272 237q-158 0 -250 -82t-92 -250q0 -148 77 -225.5t211 -77.5q56 0 100.5 5.5t60.5 10.5l16 5l12 -138q-5 -4 -15.5 -9.5t-57.5 -14.5t-110 -9
q-242 0 -355 119t-113 334z" />
    <glyph glyph-name="A" unicode="A" horiz-adv-x="798" 
d="M306 279h182l-89 272h-3zM17 0l269 702h238l258 -702h-205l-43 138h-273l-42 -138h-202z" />
    <glyph glyph-name="B" unicode="B" horiz-adv-x="737" 
d="M264 421h114q42 0 69.5 21t27.5 59q0 73 -123 73q-33 0 -88 -5v-148zM264 132q62 -5 100 -5q76 0 107.5 21.5t31.5 61.5q0 80 -116 80h-123v-158zM86 0v702q118 20 256 20q162 0 240 -53t78 -142q0 -110 -105 -169q139 -34 139 -160q0 -104 -87 -161.5t-256 -57.5
q-62 0 -128.5 5.5t-101.5 10.5z" />
    <glyph glyph-name="C" unicode="C" horiz-adv-x="681" 
d="M45 349q0 173 100 273t278 100q66 0 124 -11t83 -21l25 -11l-26 -152q-76 29 -174 29q-102 0 -154 -54t-52 -153q0 -98 52.5 -151t152.5 -53q52 0 96 6.5t62 13.5l17 7l26 -151q-7 -5 -22.5 -12t-74 -18.5t-131.5 -11.5q-181 0 -281.5 99t-100.5 271z" />
    <glyph glyph-name="D" unicode="D" horiz-adv-x="826" 
d="M286 139q26 -2 81 -2q210 0 210 212q0 215 -213 215q-39 0 -78 -3v-422zM86 0v702q122 20 278 20q198 0 307.5 -96t109.5 -277q0 -178 -107.5 -274t-308.5 -96q-72 0 -142 5.5t-103 10.5z" />
    <glyph glyph-name="E" unicode="E" horiz-adv-x="680" 
d="M86 0v702h511v-158h-311v-115h271v-151h-271v-120h326v-158h-526z" />
    <glyph glyph-name="F" unicode="F" horiz-adv-x="624" 
d="M86 0v702h517v-158h-317v-152h276v-152h-276v-240h-200z" />
    <glyph glyph-name="G" unicode="G" horiz-adv-x="793" 
d="M45 349q0 167 112.5 270t293.5 103q68 0 127 -11t84 -21l26 -11l-26 -152q-78 29 -189 29q-113 0 -168.5 -55.5t-55.5 -152.5q0 -100 55.5 -151.5t155.5 -51.5q89 0 101 4v113h-136v153h305v-405q-116 -31 -289 -31q-203 0 -299.5 97t-96.5 273z" />
    <glyph glyph-name="H" unicode="H" horiz-adv-x="829" 
d="M86 0v702h200v-274h257v274h200v-702h-200v277h-257v-277h-200z" />
    <glyph glyph-name="I" unicode="I" 
d="M86 0v702h200v-702h-200z" />
    <glyph glyph-name="J" unicode="J" 
d="M-41 -81q127 0 127 135v648h200v-694q0 -251 -265 -251z" />
    <glyph glyph-name="K" unicode="K" horiz-adv-x="780" 
d="M86 0v702h200v-265h48l202 265h223l-260 -324l285 -378h-234l-215 291h-49v-291h-200z" />
    <glyph glyph-name="L" unicode="L" horiz-adv-x="602" 
d="M86 0v702h200v-544h305v-158h-505z" />
    <glyph glyph-name="M" unicode="M" horiz-adv-x="1041" 
d="M86 0v702h191l240 -377h6l242 377h190v-702h-192v395h-6l-170 -269h-133l-171 269h-5v-395h-192z" />
    <glyph glyph-name="N" unicode="N" horiz-adv-x="849" 
d="M86 0v702h208l297 -449h4l-5 59v390h173v-702h-211l-295 443h-4l5 -76v-367h-172z" />
    <glyph glyph-name="O" unicode="O" horiz-adv-x="854" 
d="M249 351q0 -93 46 -149.5t132 -56.5t131.5 56.5t45.5 149.5q0 91 -45.5 148t-131.5 57q-85 0 -131.5 -57t-46.5 -148zM45 351q0 168 100 269.5t282 101.5t282 -101.5t100 -269.5q0 -169 -100 -270.5t-282 -101.5t-282 101.5t-100 270.5z" />
    <glyph glyph-name="P" unicode="P" horiz-adv-x="680" 
d="M272 349h45q126 0 126 122q0 101 -125 101q-14 0 -46 -2v-221zM86 0v702q131 20 234 20q328 0 328 -251q0 -65 -26 -118t-69 -84.5t-93.5 -48t-102.5 -16.5h-85v-204h-186z" />
    <glyph glyph-name="Q" unicode="Q" horiz-adv-x="854" 
d="M249 351q0 -93 46 -150t132 -57t131.5 57t45.5 150q0 91 -45.5 148t-131.5 57q-85 0 -131.5 -57t-46.5 -148zM45 351q0 168 100 269.5t282 101.5t282 -101.5t100 -269.5q0 -143 -71.5 -239t-205.5 -123q17 -68 131 -68l-61 -162q-129 0 -188.5 49.5t-59.5 165.5v9
q-148 20 -228.5 118.5t-80.5 249.5z" />
    <glyph glyph-name="R" unicode="R" horiz-adv-x="719" 
d="M272 349h44q64 0 96 31.5t32 88.5q0 103 -125 103q-15 0 -47 -2v-221zM86 0v702h1q120 20 233 20q329 0 329 -253q0 -138 -128 -212l164 -257h-229l-108 214h-76v-214h-186z" />
    <glyph glyph-name="S" unicode="S" horiz-adv-x="625" 
d="M63 29l48 150q87 -38 175 -38q49 0 75 15t26 41q0 22 -32.5 41t-78.5 38t-92.5 45.5t-79 74t-32.5 111.5q0 103 68.5 159t181.5 56q63 0 119.5 -11t80.5 -23l25 -11l-36 -146q-94 31 -163 31q-80 0 -80 -54q0 -24 32.5 -45t78.5 -41.5t92 -46t78.5 -70.5t32.5 -103
q0 -102 -72 -162.5t-204 -60.5q-81 0 -141.5 12.5t-80.5 24.5z" />
    <glyph glyph-name="T" unicode="T" horiz-adv-x="602" 
d="M15 544v158h572v-158h-185v-544h-200v544h-187z" />
    <glyph glyph-name="U" unicode="U" horiz-adv-x="810" 
d="M75 266v436h200v-396q0 -73 29 -111t102 -38q72 0 101 38t29 111v396h199v-436q0 -130 -77.5 -208.5t-251.5 -78.5q-90 0 -156 22t-103 62.5t-54.5 90.5t-17.5 112z" />
    <glyph glyph-name="V" unicode="V" horiz-adv-x="771" 
d="M3 702h214l167 -519h4l167 519h212l-251 -702h-260z" />
    <glyph glyph-name="W" unicode="W" horiz-adv-x="1127" 
d="M3 702h207l116 -494h4l126 494h216l129 -490h4l111 490h207l-210 -702h-215l-132 474h-3l-136 -474h-216z" />
    <glyph glyph-name="X" unicode="X" horiz-adv-x="785" 
d="M0 0l270 350l-267 352h229l161 -222l159 222h228l-266 -352l271 -350h-237l-155 219l-155 -219h-238z" />
    <glyph glyph-name="Y" unicode="Y" horiz-adv-x="712" 
d="M-18 702h223l146 -292h4l152 292h223l-274 -460v-242h-200v242z" />
    <glyph glyph-name="Z" unicode="Z" horiz-adv-x="712" 
d="M48 0v119l356 425h-356v158h615v-119l-354 -425h354v-158h-615z" />
    <glyph glyph-name="bracketleft" unicode="[" horiz-adv-x="475" 
d="M91 -99v821h383v-143h-211v-535h211v-143h-383z" />
    <glyph glyph-name="backslash" unicode="\" horiz-adv-x="551" 
d="M-40 750h187l426 -1000h-186z" />
    <glyph glyph-name="bracketright" unicode="]" horiz-adv-x="475" 
d="M0 44h211v536h-211v142h384v-821h-384v143z" />
    <glyph glyph-name="asciicircum" unicode="^" horiz-adv-x="422" 
d="M27 579l183 167l185 -167l-79 -80l-105 102l-106 -102z" />
    <glyph glyph-name="underscore" unicode="_" horiz-adv-x="823" 
d="M27 -1h767v-152h-767v152z" />
    <glyph glyph-name="grave" unicode="`" horiz-adv-x="273" 
d="M-36 702l180 20l41 -128l-134 -10z" />
    <glyph glyph-name="a" unicode="a" horiz-adv-x="631" 
d="M227 256q0 -124 84 -124q19 0 36.5 6t25.5 12l8 7v210q-19 2 -42 2q-112 0 -112 -113zM28 251q0 271 309 271q66 0 126 -6.5t87 -12.5l26 -6v-311q0 -65 53 -65l-56 -142q-99 0 -147 53h-12q-1 -2 -3 -5.5t-13 -13t-25.5 -16.5t-43 -12.5t-64.5 -5.5q-107 0 -172 72
t-65 200z" />
    <glyph glyph-name="b" unicode="b" horiz-adv-x="621" 
d="M240 134h6q5 -1 14 -1.5t18 -0.5q115 0 115 121q0 116 -81 116q-19 0 -36.5 -3.5t-25.5 -6.5t-10 -5v-220zM45 4v718h195v-222h5q36 22 111 22q114 0 175.5 -74t61.5 -190q0 -127 -79 -203t-230 -76q-68 0 -128 6.5t-86 12.5z" />
    <glyph glyph-name="c" unicode="c" horiz-adv-x="496" 
d="M28 253q0 126 77 197.5t205 71.5q45 0 83.5 -8t54.5 -16l16 -7l-16 -150q-53 25 -106 25q-113 0 -113 -111q0 -59 31 -89.5t79 -30.5q25 0 52.5 6.5t42.5 12.5l14 6l16 -152q-4 -3 -12.5 -8t-48 -13t-93.5 -8q-135 0 -208.5 77t-73.5 197z" />
    <glyph glyph-name="d" unicode="d" horiz-adv-x="620" 
d="M227 256q0 -127 104 -127l50 1v228q-29 14 -69 14q-38 0 -61.5 -28.5t-23.5 -87.5zM28 251q0 133 64 202t169 69q31 0 59 -5.5t41 -10.5l13 -6h7v222h194v-709q-104 -34 -247 -34q-146 0 -223 70.5t-77 201.5z" />
    <glyph glyph-name="e" unicode="e" horiz-adv-x="550" 
d="M213 310h152v9q0 26 -18.5 44.5t-52.5 18.5q-32 0 -53 -19.5t-28 -52.5zM28 233q0 134 70 211.5t186 77.5q114 0 181 -67.5t67 -176.5q0 -24 -2 -46t-4 -32l-2 -10h-304q1 -38 28 -52t97 -14q30 0 62 6t49 12l18 7l16 -141q-4 -3 -14 -8t-54.5 -13t-105.5 -8
q-125 0 -206.5 64.5t-81.5 189.5z" />
    <glyph glyph-name="f" unicode="f" horiz-adv-x="411" 
d="M22 344v110l54 45v33q0 106 59 157.5t185 51.5l62 -156q-56 0 -83.5 -14t-27.5 -55v-16h117v-156h-117v-344h-195v344h-54z" />
    <glyph glyph-name="g" unicode="g" horiz-adv-x="621" 
d="M227 256q0 -124 84 -124q19 0 36.5 6t25.5 12l8 7v210q-19 2 -42 2q-112 0 -112 -113zM28 251q0 271 309 271q66 0 126 -9t87 -17l26 -9v-541q0 -87 -78 -138t-188 -51q-60 0 -107.5 7.5t-65.5 15.5l-18 7l15 138q70 -23 137 -23q49 0 79.5 18.5t30.5 43.5v48h-7
q-4 -4 -11 -9.5t-35.5 -14.5t-62.5 -9q-107 0 -172 72t-65 200z" />
    <glyph glyph-name="h" unicode="h" horiz-adv-x="615" 
d="M45 0v722h195v-222h6q39 22 135 22q195 0 195 -190v-332h-195v296q0 24 -17.5 39.5t-55.5 15.5l-68 -3v-348h-195z" />
    <glyph glyph-name="i" unicode="i" horiz-adv-x="285" 
d="M45 0v500h195v-500h-195zM43 651q0 44 26.5 67t72.5 23t72.5 -23t26.5 -67t-27 -67.5t-72 -23.5q-44 0 -71.5 23.5t-27.5 67.5z" />
    <glyph glyph-name="j" unicode="j" horiz-adv-x="294" 
d="M52 651q0 44 26.5 67t72.5 23t72.5 -23t26.5 -67t-27 -67.5t-72 -23.5q-44 0 -71.5 23.5t-27.5 67.5zM-37 -82q91 0 91 94v488h195v-534q0 -209 -224 -209z" />
    <glyph glyph-name="k" unicode="k" horiz-adv-x="579" 
d="M45 0v722h195v-404h19l88 182h223l-148 -224l164 -276h-233l-96 181h-17v-181h-195z" />
    <glyph glyph-name="l" unicode="l" horiz-adv-x="325" 
d="M45 188v534h195v-488q0 -94 91 -94l-62 -161q-224 0 -224 209z" />
    <glyph glyph-name="m" unicode="m" horiz-adv-x="871" 
d="M45 0v487q111 35 275 35q91 0 143 -29q104 29 167 29q108 0 154.5 -46t46.5 -140v-336h-195v306q0 25 -11.5 35t-39.5 10q-24 0 -49 -5v-346h-195v306q0 25 -11.5 35t-38.5 10l-52 -3v-348h-194z" />
    <glyph glyph-name="n" unicode="n" horiz-adv-x="616" 
d="M45 0v487q115 35 281 35q135 0 192.5 -47t57.5 -143v-332h-195v296q0 55 -72 55l-70 -2v-349h-194z" />
    <glyph glyph-name="o" unicode="o" horiz-adv-x="631" 
d="M228 252q0 -128 87 -128q88 0 88 127q0 124 -88 124q-48 0 -67.5 -32t-19.5 -91zM28 260q0 122 75 191.5t212 69.5t212.5 -69.5t75.5 -191.5q0 -130 -78.5 -206t-209.5 -76q-137 0 -212 75t-75 207z" />
    <glyph glyph-name="p" unicode="p" horiz-adv-x="621" 
d="M239 158q27 -26 73 -26q36 0 58.5 29t22.5 92q0 64 -29.5 90t-85.5 26l-39 -2v-209zM45 -220v707q99 35 239 35q171 0 240 -70t69 -194q0 -123 -65.5 -201t-171.5 -78q-35 0 -62.5 8.5t-37.5 16.5l-11 8h-6v-232h-194z" />
    <glyph glyph-name="q" unicode="q" horiz-adv-x="621" 
d="M227 256q0 -124 84 -124q19 0 36.5 6t25.5 12l8 7v210q-19 2 -42 2q-112 0 -112 -113zM28 251q0 271 309 271q58 0 118 -9t91 -17l30 -9v-707h-195v232h-7q-4 -4 -11 -9.5t-35.5 -14.5t-62.5 -9q-107 0 -172 72t-65 200z" />
    <glyph glyph-name="r" unicode="r" horiz-adv-x="413" 
d="M45 0v487q88 35 225 35q44 0 80.5 -7t51.5 -14l15 -7l-18 -151q-45 18 -110 18l-50 -3v-358h-194z" />
    <glyph glyph-name="s" unicode="s" horiz-adv-x="482" 
d="M32 350q0 78 55 125t151 47q49 0 93.5 -7.5t64.5 -14.5l20 -8l-14 -143q-83 21 -132 21q-54 0 -54 -20q0 -15 36.5 -27.5t80.5 -24t80.5 -46t36.5 -88.5q0 -185 -243 -185q-46 0 -89 7.5t-63 15.5l-20 7l15 145q62 -23 129 -23q82 0 82 31q0 11 -23.5 19t-57.5 17
t-67.5 23.5t-57 47.5t-23.5 81z" />
    <glyph glyph-name="t" unicode="t" horiz-adv-x="409" 
d="M17 344v110l57 31l44 120h148v-105h99v-156h-99v-130q0 -43 20 -58.5t71 -15.5l-62 -161q-115 0 -169.5 43.5t-54.5 145.5v176h-54z" />
    <glyph glyph-name="u" unicode="u" horiz-adv-x="617" 
d="M40 167v333h195v-297q0 -24 18 -39t56 -15l68 3v348h195v-487q-109 -34 -284 -34q-134 0 -191 46t-57 142z" />
    <glyph glyph-name="v" unicode="v" horiz-adv-x="574" 
d="M-4 500h215l73 -342h7l72 342h215l-163 -500h-256z" />
    <glyph glyph-name="w" unicode="w" horiz-adv-x="847" 
d="M0 500h206l48 -295h6l66 295h195l66 -295h6l48 295h206l-151 -500h-211l-59 287h-5l-59 -287h-212z" />
    <glyph glyph-name="x" unicode="x" horiz-adv-x="591" 
d="M-3 0l175 250l-175 250h227l69 -149h6l69 149h226l-175 -250l175 -250h-227l-68 159h-6l-68 -159h-228z" />
    <glyph glyph-name="y" unicode="y" horiz-adv-x="584" 
d="M-5 500h215l99 -324h5l60 324h215l-164 -480q-49 -142 -121 -202.5t-172 -60.5l-59 162q45 0 84 22t62 58z" />
    <glyph glyph-name="z" unicode="z" horiz-adv-x="500" 
d="M13 0v104l204 245h-187v151h457v-94l-204 -255h198l-1 -151h-467z" />
    <glyph glyph-name="braceleft" unicode="{" horiz-adv-x="484" 
d="M103 211v162q33 0 64 10t31 32t-15 78t-15 92q0 84 63 124t225 40v-141q-120 0 -120 -74q0 -29 15 -82t15 -83q0 -44 -45 -77q45 -33 45 -77q0 -30 -15 -83t-15 -82q0 -74 120 -74v-141q-162 0 -225 40t-63 124q0 36 15 92t15 78t-31 32t-64 10z" />
    <glyph glyph-name="bar" unicode="|" horiz-adv-x="429" 
d="M122 -250v1000h185v-1000h-185z" />
    <glyph glyph-name="braceright" unicode="}" horiz-adv-x="484" 
d="M58 -24q120 0 120 74q0 29 -15 82t-15 83q0 44 45 77q-45 33 -45 77q0 30 15 83t15 82q0 74 -120 74v141q162 0 225 -40t63 -124q0 -36 -15 -92t-15 -78t31 -32t64 -10v-162q-33 0 -64 -10t-31 -32t15 -78t15 -92q0 -84 -63 -124t-225 -40v141z" />
    <glyph glyph-name="asciitilde" unicode="~" horiz-adv-x="707" 
d="M57 413q2 3 6.5 7.5t21 15.5t35.5 20t51.5 16t68.5 7q42 0 76 -9t57.5 -22l45 -26t49 -22t59.5 -9t60.5 6.5t41.5 13.5l13 7l8 -154q-2 -3 -5.5 -7.5t-18 -16t-31.5 -20.5t-46.5 -16.5t-63.5 -7.5q-45 0 -83.5 13t-62 28.5t-60.5 28.5t-79 13q-35 0 -69 -9.5t-51 -18.5
l-16 -9z" />
    <glyph glyph-name="uni00A0" unicode="&#xa0;" horiz-adv-x="496" 
 />
    <glyph glyph-name="currency" unicode="&#xa4;" horiz-adv-x="634" 
d="M243 317q0 -37 20.5 -58t54.5 -21t55.5 20.5t21.5 57.5q0 36 -21.5 56.5t-55.5 20.5t-54.5 -20t-20.5 -56zM37 151l99 74q-21 41 -21 91q0 45 19 86l-97 77l72 88l93 -89q53 35 116 35q60 0 111 -32l96 86l72 -88l-98 -73q23 -41 23 -90q0 -48 -22 -89l97 -76l-72 -88
l-93 88q-50 -33 -114 -33q-63 0 -112 32l-97 -87z" />
    <glyph glyph-name="section" unicode="&#xa7;" horiz-adv-x="537" 
d="M170 316q0 -32 27.5 -61t77 -67t75.5 -68q20 25 20 62q0 32 -27.5 61t-77 66.5t-76.5 67.5q-19 -24 -19 -61zM6 315q0 126 125 177q-5 25 -5 49q0 100 64.5 150t179.5 50l62 -156q-101 0 -101 -61q0 -27 21 -54.5t50.5 -54t59.5 -57t51 -76t21 -99.5q0 -50 -22.5 -89.5
t-47.5 -58t-55 -30.5q5 -23 5 -48q0 -100 -64.5 -150t-179.5 -50l-62 156q101 0 101 61q0 27 -21 54.5t-50.5 54t-59.5 57t-51 76t-21 99.5z" />
    <glyph glyph-name="copyright" unicode="&#xa9;" horiz-adv-x="819" 
d="M244 333q0 83 52 132t137 49q24 0 43 -3t26 -7l7 -3l-12 -107q-30 5 -44 5q-39 0 -57.5 -15.5t-18.5 -50.5q0 -57 71 -57q9 0 21 3l20 5l8 3l12 -118q-21 -13 -76 -13q-85 0 -137 47t-52 130zM198 337q0 -102 54 -163.5t154 -61.5q102 0 158.5 62t56.5 163
q0 103 -56.5 167t-158.5 64q-100 0 -154 -64t-54 -167zM40 338q0 161 95 262t272 101q178 0 275 -101t97 -262t-95.5 -260t-276.5 -99q-180 0 -273.5 98.5t-93.5 260.5z" />
    <glyph glyph-name="guillemotleft" unicode="&#xab;" horiz-adv-x="653" 
d="M317 250l194 197l84 -92l-105 -106l104 -106l-84 -95zM85 250l194 197l84 -92l-105 -106l104 -106l-84 -95z" />
    <glyph glyph-name="uni00AD" unicode="&#xad;" horiz-adv-x="439" 
d="M46 197v152h347v-152h-347z" />
    <glyph glyph-name="registered" unicode="&#xae;" horiz-adv-x="745" 
d="M352 376h5q27 0 27 25q0 22 -27 22h-5v-47zM240 239v276h124q68 0 103 -28t35 -80q0 -43 -32 -77l32 -91h-120l-16 53h-14v-53h-112zM182 372q0 -91 48 -141.5t139 -50.5q93 0 143.5 51t50.5 141q0 91 -51 144.5t-143 53.5q-91 0 -139 -53t-48 -145zM40 373
q0 145 85.5 236t244.5 91q161 0 248 -91t87 -236t-86.5 -234t-248.5 -89t-246 89t-84 234z" />
    <glyph glyph-name="degree" unicode="&#xb0;" horiz-adv-x="489" 
d="M188 491q0 -72 56 -72q59 0 59 72q0 68 -59 68q-56 0 -56 -68zM28 490q0 95 57 153t159 58q99 0 158 -58.5t59 -152.5q0 -97 -56.5 -155.5t-160.5 -58.5q-107 0 -161.5 58t-54.5 156z" />
    <glyph glyph-name="paragraph" unicode="&#xb6;" horiz-adv-x="885" 
d="M28 439q0 105 70 158t233 53h526v-171h-76v-479h-204v479h-85v-479h-199v224q-126 0 -195.5 53t-69.5 162z" />
    <glyph glyph-name="periodcentered" unicode="&#xb7;" 
d="M70 334q0 45 34 78q33 27 81 27t81 -27q34 -33 34 -78t-34 -78q-33 -27 -81 -27t-81 27q-34 33 -34 78z" />
    <glyph glyph-name="guillemotright" unicode="&#xbb;" horiz-adv-x="653" 
d="M288 140l106 106l-104 106l84 95l193 -202l-194 -197zM56 140l106 106l-104 106l84 95l193 -202l-194 -197z" />
    <glyph glyph-name="uni0400" unicode="&#x400;" horiz-adv-x="680" 
d="M201 894l180 20l41 -128l-134 -10zM86 0v702h511v-158h-311v-115h271v-151h-271v-120h326v-158h-526z" />
    <glyph glyph-name="afii10023" unicode="&#x401;" horiz-adv-x="680" 
d="M376 840q0 35 25.5 58t60.5 23t60.5 -23.5t25.5 -57.5q0 -35 -25.5 -58t-60.5 -23t-60.5 23t-25.5 58zM136 840q0 35 25.5 58t60.5 23t60.5 -23.5t25.5 -57.5q0 -35 -25.5 -58t-60.5 -23t-60.5 23t-25.5 58zM86 0v702h511v-158h-311v-115h271v-151h-271v-120h326v-158
h-526z" />
    <glyph glyph-name="afii10051" unicode="&#x402;" horiz-adv-x="844" 
d="M15 549v153h572v-153h-185v-123h5q46 28 165 28q114 0 172.5 -56t58.5 -164v-226q0 -251 -263 -251l-62 162q67 0 96.5 34.5t29.5 100.5v144q0 39 -27.5 62t-82.5 23q-41 0 -92 -17v-266h-200v549h-187z" />
    <glyph glyph-name="afii10052" unicode="&#x403;" horiz-adv-x="556" 
d="M221 785l41 129l184 -20l-87 -119zM86 0v702h478v-158h-278v-544h-200z" />
    <glyph glyph-name="afii10053" unicode="&#x404;" horiz-adv-x="691" 
d="M45 349q0 167 100.5 270t277.5 103q66 0 124 -11t83 -21l25 -11l-26 -152q-76 29 -174 29q-178 0 -209 -134h342l-10 -145h-332q14 -68 64.5 -100t143.5 -32q52 0 96 7t62 14l17 7l26 -151q-7 -5 -22.5 -12t-74 -19t-131.5 -12q-181 0 -281.5 99t-100.5 271z" />
    <glyph glyph-name="afii10054" unicode="&#x405;" horiz-adv-x="625" 
d="M63 29l48 150q87 -38 175 -38q49 0 75 15t26 41q0 22 -32.5 41t-78.5 38t-92.5 45.5t-79 74t-32.5 111.5q0 103 68.5 159t181.5 56q63 0 119.5 -11t80.5 -23l25 -11l-36 -146q-94 31 -163 31q-80 0 -80 -54q0 -24 32.5 -45t78.5 -41.5t92 -46t78.5 -70.5t32.5 -103
q0 -102 -72 -162.5t-204 -60.5q-81 0 -141.5 12.5t-80.5 24.5z" />
    <glyph glyph-name="afii10055" unicode="&#x406;" 
d="M86 0v702h200v-702h-200z" />
    <glyph glyph-name="afii10056" unicode="&#x407;" 
d="M218 840q0 35 25.5 58t60.5 23t60.5 -23.5t25.5 -57.5q0 -35 -25.5 -58t-60.5 -23t-60.5 23t-25.5 58zM86 0v702h200v-702h-200zM-22 840q0 35 25.5 58t60.5 23t60.5 -23.5t25.5 -57.5q0 -35 -25.5 -58t-60.5 -23t-60.5 23t-25.5 58z" />
    <glyph glyph-name="afii10057" unicode="&#x408;" 
d="M-41 -81q127 0 127 135v648h200v-694q0 -251 -265 -251z" />
    <glyph glyph-name="afii10058" unicode="&#x409;" horiz-adv-x="1139" 
d="M728 128q18 -1 51 -1q136 0 136 100q0 92 -137 92h-50v-191zM37 155q163 0 163 547h528v-238h49q177 0 253 -61.5t76 -175.5q0 -248 -328 -248q-61 0 -123.5 5.5t-94.5 10.5l-32 5v544h-148q-2 -159 -33.5 -286t-94.5 -203.5t-148 -76.5z" />
    <glyph glyph-name="afii10059" unicode="&#x40a;" horiz-adv-x="1154" 
d="M743 128q18 -1 50 -1q136 0 136 100q0 92 -137 92h-49v-191zM86 0v702h200v-274h256v274h201v-238h48q177 0 253 -61.5t76 -175.5q0 -248 -328 -248q-61 0 -123.5 5.5t-94.5 10.5l-32 5v277h-256v-277h-200z" />
    <glyph glyph-name="afii10060" unicode="&#x40b;" horiz-adv-x="878" 
d="M15 549v153h572v-153h-185v-123h5q46 28 165 28q114 0 172.5 -56t58.5 -164v-234h-199v198q0 39 -27.5 62t-82.5 23q-41 0 -92 -17v-266h-200v549h-187z" />
    <glyph glyph-name="afii10061" unicode="&#x40c;" horiz-adv-x="780" 
d="M279 785l41 129l184 -20l-87 -119zM86 0v702h200v-265h48l202 265h223l-260 -324l285 -378h-234l-215 291h-49v-291h-200z" />
    <glyph glyph-name="uni040D" unicode="&#x40d;" horiz-adv-x="838" 
d="M293 894l180 20l41 -128l-134 -10zM86 0v702h190v-334l-6 -76h3l285 386l10 24h183l-1 -2l2 2v-702h-190v326l4 84h-3l-282 -386l-10 -24h-185z" />
    <glyph glyph-name="afii10062" unicode="&#x40e;" horiz-adv-x="735" 
d="M186 810l44 116q50 -32 158 -32q49 0 88.5 8t55.5 16l15 8l44 -116q-6 -5 -19 -12.5t-65 -20t-119 -12.5q-66 0 -116.5 11.5t-67.5 22.5zM-6 702h223l174 -360h7l131 360h213l-225 -493q-59 -130 -129 -180t-180 -50l-56 164q93 0 140 43z" />
    <glyph glyph-name="afii10145" unicode="&#x40f;" horiz-adv-x="809" 
d="M86 0v702h200v-544h237v544h200v-702h-231l-12 -170h-149l-13 170h-232z" />
    <glyph glyph-name="afii10017" unicode="&#x410;" horiz-adv-x="798" 
d="M306 279h182l-89 272h-3zM17 0l269 702h238l258 -702h-205l-43 138h-273l-42 -138h-202z" />
    <glyph glyph-name="afii10018" unicode="&#x411;" horiz-adv-x="696" 
d="M286 128q18 -1 51 -1q136 0 136 89q0 83 -137 83h-50v-171zM86 0v702h494v-158h-294v-110h49q177 0 253 -56.5t76 -161.5q0 -237 -328 -237q-61 0 -123.5 5.5t-94.5 10.5z" />
    <glyph glyph-name="afii10019" unicode="&#x412;" horiz-adv-x="737" 
d="M264 421h114q42 0 69.5 21t27.5 59q0 73 -123 73q-33 0 -88 -5v-148zM264 132q62 -5 100 -5q76 0 107.5 21.5t31.5 61.5q0 80 -116 80h-123v-158zM86 0v702q118 20 256 20q162 0 240 -53t78 -142q0 -110 -105 -169q139 -34 139 -160q0 -104 -87 -161.5t-256 -57.5
q-62 0 -128.5 5.5t-101.5 10.5z" />
    <glyph glyph-name="afii10020" unicode="&#x413;" horiz-adv-x="556" 
d="M86 0v702h478v-158h-278v-544h-200z" />
    <glyph glyph-name="afii10021" unicode="&#x414;" horiz-adv-x="849" 
d="M276 158h242v386h-160q-16 -216 -82 -386zM30 158h65q93 226 93 544h526v-544h94l-29 -330h-160v172h-411l1 -172h-149z" />
    <glyph glyph-name="afii10022" unicode="&#x415;" horiz-adv-x="680" 
d="M86 0v702h511v-158h-311v-115h271v-151h-271v-120h326v-158h-526z" />
    <glyph glyph-name="afii10024" unicode="&#x416;" horiz-adv-x="1130" 
d="M-5 0l273 353l-261 349h233l173 -254h45v254h188v-253h38l191 253h233l-275 -314l293 -388h-233l-206 292h-41v-292h-188v291h-44l-186 -291h-233z" />
    <glyph glyph-name="afii10025" unicode="&#x417;" horiz-adv-x="625" 
d="M34 29l26 148q74 -38 184 -38q129 0 129 78q0 68 -105 68h-129v139h140q31 1 60 20t29 51q0 67 -125 67q-38 0 -80.5 -7t-65.5 -15l-23 -7l-26 148q8 5 24 11.5t73.5 18t123.5 11.5q147 0 220.5 -55.5t73.5 -150.5q0 -97 -102 -153q121 -43 121 -158q0 -102 -86.5 -164
t-227.5 -62q-76 0 -134.5 12.5t-79.5 24.5z" />
    <glyph glyph-name="afii10026" unicode="&#x418;" horiz-adv-x="838" 
d="M86 0v702h190v-334l-6 -76h3l285 386l10 24h183l-1 -2l2 2v-702h-190v326l4 84h-3l-282 -386l-10 -24h-185z" />
    <glyph glyph-name="afii10027" unicode="&#x419;" horiz-adv-x="838" 
d="M235 810l44 116q50 -32 158 -32q49 0 88.5 8t54.5 16l16 8l44 -116q-6 -5 -19 -12.5t-65 -20t-119 -12.5q-66 0 -116.5 11.5t-68.5 22.5zM86 0v702h190v-334l-6 -76h3l285 386l10 24h183l-1 -2l2 2v-702h-190v326l4 84h-3l-282 -386l-10 -24h-185z" />
    <glyph glyph-name="afii10028" unicode="&#x41a;" horiz-adv-x="780" 
d="M86 0v702h200v-265h48l202 265h223l-260 -324l285 -378h-234l-215 291h-49v-291h-200z" />
    <glyph glyph-name="afii10029" unicode="&#x41b;" horiz-adv-x="814" 
d="M37 155q163 0 163 547h528v-702h-200v544h-148q-2 -159 -33.5 -286t-94.5 -203.5t-148 -76.5z" />
    <glyph glyph-name="afii10030" unicode="&#x41c;" horiz-adv-x="1041" 
d="M86 0v702h191l240 -377h6l242 377h190v-702h-192v395h-6l-170 -269h-133l-171 269h-5v-395h-192z" />
    <glyph glyph-name="afii10031" unicode="&#x41d;" horiz-adv-x="829" 
d="M86 0v702h200v-274h257v274h200v-702h-200v277h-257v-277h-200z" />
    <glyph glyph-name="afii10032" unicode="&#x41e;" horiz-adv-x="854" 
d="M249 351q0 -93 46 -149.5t132 -56.5t131.5 56.5t45.5 149.5q0 91 -45.5 148t-131.5 57q-85 0 -131.5 -57t-46.5 -148zM45 351q0 168 100 269.5t282 101.5t282 -101.5t100 -269.5q0 -169 -100 -270.5t-282 -101.5t-282 101.5t-100 270.5z" />
    <glyph glyph-name="afii10033" unicode="&#x41f;" horiz-adv-x="809" 
d="M86 0v702h637v-702h-200v544h-237v-544h-200z" />
    <glyph glyph-name="afii10034" unicode="&#x420;" horiz-adv-x="680" 
d="M272 349h45q126 0 126 122q0 101 -125 101q-14 0 -46 -2v-221zM86 0v702q131 20 234 20q328 0 328 -251q0 -65 -26 -118t-69 -84.5t-93.5 -48t-102.5 -16.5h-85v-204h-186z" />
    <glyph glyph-name="afii10035" unicode="&#x421;" horiz-adv-x="671" 
d="M45 349q0 173 100 273t278 100q66 0 124 -11t83 -21l25 -11l-26 -152q-76 29 -174 29q-102 0 -154 -54t-52 -153q0 -98 52.5 -151t152.5 -53q52 0 96 6.5t62 13.5l17 7l26 -151q-7 -5 -22.5 -12t-74 -18.5t-131.5 -11.5q-181 0 -281.5 99t-100.5 271z" />
    <glyph glyph-name="afii10036" unicode="&#x422;" horiz-adv-x="602" 
d="M15 544v158h572v-158h-185v-544h-200v544h-187z" />
    <glyph glyph-name="afii10037" unicode="&#x423;" horiz-adv-x="735" 
d="M-6 702h223l174 -360h7l131 360h213l-225 -493q-59 -130 -129 -180t-180 -50l-56 164q93 0 140 43z" />
    <glyph glyph-name="afii10038" unicode="&#x424;" horiz-adv-x="967" 
d="M573 219q82 2 122.5 38.5t40.5 99.5q0 125 -163 129v-267zM231 356q0 -130 163 -134v266q-163 -6 -163 -132zM45 356q0 134 93.5 200t255.5 68v78h179v-78q162 -2 255.5 -67.5t93.5 -199.5q0 -135 -94.5 -205t-254.5 -72v-80h-179v80q-160 2 -254.5 71.5t-94.5 204.5z
" />
    <glyph glyph-name="afii10039" unicode="&#x425;" horiz-adv-x="785" 
d="M0 0l270 350l-267 352h229l161 -222l159 222h228l-266 -352l271 -350h-237l-155 219l-155 -219h-238z" />
    <glyph glyph-name="afii10040" unicode="&#x426;" horiz-adv-x="859" 
d="M86 0v702h200v-544h237v544h200v-544h94l-19 -330h-149l-9 172h-554z" />
    <glyph glyph-name="afii10041" unicode="&#x427;" horiz-adv-x="753" 
d="M65 416v286h200v-249q0 -47 21.5 -67t70.5 -20q62 0 110 22v314h200v-702h-200v245h-2q-6 -5 -18 -13t-59 -21t-105 -13q-115 0 -166.5 60.5t-51.5 157.5z" />
    <glyph glyph-name="afii10042" unicode="&#x428;" horiz-adv-x="1103" 
d="M86 0v702h200v-544h165v544h201v-544h165v544h200v-702h-931z" />
    <glyph glyph-name="afii10043" unicode="&#x429;" horiz-adv-x="1153" 
d="M86 0v702h200v-544h165v544h201v-544h165v544h200v-544h93l-19 -330h-149l-9 172h-847z" />
    <glyph glyph-name="afii10044" unicode="&#x42a;" horiz-adv-x="811" 
d="M401 128q18 -1 51 -1q136 0 136 100q0 92 -137 92h-50v-191zM15 544v158h386v-238h49q177 0 253 -61.5t76 -175.5q0 -248 -328 -248q-61 0 -123.5 5.5t-94.5 10.5l-32 5v544h-186z" />
    <glyph glyph-name="afii10045" unicode="&#x42b;" horiz-adv-x="1059" 
d="M774 0v702h200v-702h-200zM286 128q18 -1 51 -1q136 0 136 100q0 92 -137 92h-50v-191zM86 0v702h200v-238h49q177 0 253 -61.5t76 -175.5q0 -248 -328 -248q-61 0 -123.5 5.5t-94.5 10.5z" />
    <glyph glyph-name="afii10046" unicode="&#x42c;" horiz-adv-x="696" 
d="M286 128q18 -1 51 -1q136 0 136 100q0 92 -137 92h-50v-191zM86 0v702h200v-238h49q177 0 253 -61.5t76 -175.5q0 -248 -328 -248q-61 0 -123.5 5.5t-94.5 10.5z" />
    <glyph glyph-name="afii10047" unicode="&#x42d;" horiz-adv-x="677" 
d="M34 29l26 148q74 -38 184 -38q148 0 174 146h-279v139h280q-8 72 -47 105t-133 33q-39 0 -81 -7t-65 -15l-23 -7l-27 148q8 5 24.5 11.5t74 18t123.5 11.5q187 0 277 -100.5t90 -273.5q0 -169 -92.5 -269t-271.5 -100q-76 0 -134.5 12.5t-79.5 24.5z" />
    <glyph glyph-name="afii10048" unicode="&#x42e;" horiz-adv-x="1181" 
d="M576 351q0 -93 46 -149.5t132 -56.5t131.5 56.5t45.5 149.5q0 91 -46 148t-131 57q-86 0 -132 -57t-46 -148zM86 0v702h200v-274h110q21 136 113.5 215t244.5 79q182 0 282 -101.5t100 -269.5q0 -169 -100 -270.5t-282 -101.5q-153 0 -245.5 80t-112.5 218h-110v-277
h-200z" />
    <glyph glyph-name="afii10049" unicode="&#x42f;" horiz-adv-x="722" 
d="M247 475q0 -40 26 -67t72 -27h105v187q-41 3 -80 3q-63 0 -93 -27t-30 -69zM36 0l160 263q-63 28 -101.5 83t-38.5 129q0 113 85 180t229 67q65 0 131.5 -5t100.5 -10l34 -5v-702h-186v239h-83l-136 -239h-195z" />
    <glyph glyph-name="afii10065" unicode="&#x430;" horiz-adv-x="631" 
d="M227 256q0 -124 84 -124q19 0 36.5 6t25.5 12l8 7v210q-19 2 -42 2q-112 0 -112 -113zM28 251q0 271 309 271q66 0 126 -6.5t87 -12.5l26 -6v-311q0 -65 53 -65l-56 -142q-99 0 -147 53h-12q-1 -2 -3 -5.5t-13 -13t-25.5 -16.5t-43 -12.5t-64.5 -5.5q-107 0 -172 72
t-65 200z" />
    <glyph glyph-name="afii10066" unicode="&#x431;" horiz-adv-x="631" 
d="M228 292q0 -88 20.5 -127.5t68.5 -39.5q42 0 64 30.5t22 70.5q0 35 -20.5 59t-67.5 24q-59 0 -87 -17zM28 310q0 210 103.5 320.5t289.5 110.5h82l44 -186h-88q-122 0 -168 -24t-57 -102h13q49 33 138 33q94 0 156 -56t62 -161q0 -129 -80 -197.5t-218 -68.5
q-137 0 -207 79.5t-70 251.5z" />
    <glyph glyph-name="afii10067" unicode="&#x432;" horiz-adv-x="574" 
d="M230 319h104q3 9 3 23q0 38 -56 38q-7 0 -51 -4v-57zM230 124q42 -3 69 -3q57 0 57 42q0 39 -56 39h-70v-78zM45 0v500q100 22 236 22q247 0 247 -138q0 -61 -55 -101q79 -47 79 -126q0 -178 -263 -178q-68 0 -129 5.5t-88 10.5z" />
    <glyph glyph-name="afii10068" unicode="&#x433;" horiz-adv-x="406" 
d="M45 0v500h360v-156h-165v-344h-195z" />
    <glyph glyph-name="afii10069" unicode="&#x434;" horiz-adv-x="671" 
d="M239 151h156v198h-105q-12 -106 -51 -198zM6 151h61q37 74 52 153.5t15 195.5h1h441v-349h84l-21 -296h-153l-10 145h-298l-9 -145h-143z" />
    <glyph glyph-name="afii10070" unicode="&#x435;" horiz-adv-x="550" 
d="M213 310h152v9q0 26 -18.5 44.5t-52.5 18.5q-32 0 -53 -19.5t-28 -52.5zM28 233q0 134 70 211.5t186 77.5q114 0 181 -67.5t67 -176.5q0 -24 -2 -46t-4 -32l-2 -10h-304q1 -38 28 -52t97 -14q30 0 62 6t49 12l18 7l16 -141q-4 -3 -14 -8t-54.5 -13t-105.5 -8
q-125 0 -206.5 64.5t-81.5 189.5z" />
    <glyph glyph-name="afii10072" unicode="&#x436;" horiz-adv-x="849" 
d="M5 0l137 262l-137 238h221l68 -170h35v170h190v-170h35l67 170h223l-140 -237l140 -263h-223l-77 200h-25v-200h-190v200h-35l-68 -200h-221z" />
    <glyph glyph-name="afii10073" unicode="&#x437;" horiz-adv-x="497" 
d="M37 9l15 149q70 -23 138 -23q89 0 89 37q0 32 -81 32h-89v121h94q6 0 16 -0.5t14 -0.5q34 0 34 17q0 25 -81 25q-28 0 -61.5 -5t-52.5 -11l-20 -5l-14 147q85 30 203 30q219 0 219 -151q0 -67 -70 -100q30 -16 54.5 -46t24.5 -73q0 -173 -231 -173q-63 0 -113.5 7.5
t-68.5 15.5z" />
    <glyph glyph-name="afii10074" unicode="&#x438;" horiz-adv-x="630" 
d="M45 0v500h195v-183l-7 -56l4 -2l197 241h151v-500h-195v164l6 59l-4 3l-196 -226h-151z" />
    <glyph glyph-name="afii10075" unicode="&#x439;" horiz-adv-x="630" 
d="M129 619l44 116q50 -32 158 -32q49 0 88.5 8t54.5 16l16 8l44 -116q-6 -5 -19 -12.5t-65 -20t-119 -12.5q-66 0 -116.5 11t-68.5 23zM45 0v500h195v-183l-7 -56l4 -2l197 241h151v-500h-195v164l6 59l-4 3l-196 -226h-151z" />
    <glyph glyph-name="afii10076" unicode="&#x43a;" horiz-adv-x="579" 
d="M45 0v500h195v-186h19l88 186h223l-146 -229l162 -271h-233l-98 184h-15v-184h-195z" />
    <glyph glyph-name="afii10077" unicode="&#x43b;" horiz-adv-x="588" 
d="M-8 121q28 0 48 15t38 54t27 116.5t9 193.5h429v-500h-196v344h-75q0 -193 -55 -279t-164 -86z" />
    <glyph glyph-name="afii10078" unicode="&#x43c;" horiz-adv-x="777" 
d="M45 0v500h216l126 -233h3l126 233h216v-500h-173v207l8 70h-6l-118 -217h-109l-119 215h-5l7 -70v-205h-172z" />
    <glyph glyph-name="afii10079" unicode="&#x43d;" horiz-adv-x="619" 
d="M45 0v500h195v-170h140v170h194v-500h-194v183h-140v-183h-195z" />
    <glyph glyph-name="afii10080" unicode="&#x43e;" horiz-adv-x="631" 
d="M228 252q0 -128 87 -128q88 0 88 127q0 124 -88 124q-48 0 -67.5 -32t-19.5 -91zM28 260q0 122 75 191.5t212 69.5t212.5 -69.5t75.5 -191.5q0 -130 -78.5 -206t-209.5 -76q-137 0 -212 75t-75 207z" />
    <glyph glyph-name="afii10081" unicode="&#x43f;" horiz-adv-x="611" 
d="M45 0v500h521v-500h-195v344h-131v-344h-195z" />
    <glyph glyph-name="afii10082" unicode="&#x440;" horiz-adv-x="621" 
d="M239 158q27 -26 73 -26q36 0 58.5 29t22.5 92q0 64 -29.5 90t-85.5 26l-39 -2v-209zM45 -220v707q99 35 239 35q171 0 240 -70t69 -194q0 -123 -65.5 -201t-171.5 -78q-35 0 -62.5 8.5t-37.5 16.5l-11 8h-6v-232h-194z" />
    <glyph glyph-name="afii10083" unicode="&#x441;" horiz-adv-x="496" 
d="M28 253q0 126 77 197.5t205 71.5q45 0 83.5 -8t54.5 -16l16 -7l-16 -150q-53 25 -106 25q-113 0 -113 -111q0 -59 31 -89.5t79 -30.5q25 0 52.5 6.5t42.5 12.5l14 6l16 -152q-4 -3 -12.5 -8t-48 -13t-93.5 -8q-135 0 -208.5 77t-73.5 197z" />
    <glyph glyph-name="afii10084" unicode="&#x442;" horiz-adv-x="449" 
d="M5 344v156h439v-156h-122v-344h-195v344h-122z" />
    <glyph glyph-name="afii10085" unicode="&#x443;" horiz-adv-x="584" 
d="M-5 500h215l99 -324h5l60 324h215l-164 -480q-49 -142 -121 -202.5t-172 -60.5l-59 162q45 0 84 22t62 58z" />
    <glyph glyph-name="afii10086" unicode="&#x444;" horiz-adv-x="821" 
d="M503 120q90 12 90 140q0 109 -90 121v-261zM218 259q0 -133 100 -141v263q-100 -5 -100 -122zM28 259q0 120 78 190t212 73v200h185v-200q290 -4 290 -262q0 -129 -78.5 -203.5t-211.5 -77.5v-199h-185v199q-151 2 -220.5 73.5t-69.5 206.5z" />
    <glyph glyph-name="afii10087" unicode="&#x445;" horiz-adv-x="591" 
d="M-3 0l175 250l-175 250h227l69 -149h6l69 149h226l-175 -250l175 -250h-227l-68 159h-6l-68 -159h-228z" />
    <glyph glyph-name="afii10088" unicode="&#x446;" horiz-adv-x="661" 
d="M45 0v500h195v-344h131v344h195v-344h74l-30 -301h-154v145h-411z" />
    <glyph glyph-name="afii10089" unicode="&#x447;" horiz-adv-x="577" 
d="M27 290v210h199v-182q0 -44 55 -44l56 2v224h195v-500h-195v151h-5q-37 -7 -119 -7q-84 0 -135 35t-51 111z" />
    <glyph glyph-name="afii10090" unicode="&#x448;" horiz-adv-x="849" 
d="M45 0v500h186v-344h100v344h187v-344h100v344h186v-500h-759z" />
    <glyph glyph-name="afii10091" unicode="&#x449;" horiz-adv-x="898" 
d="M45 0v500h186v-344h100v344h187v-344h100v344h186v-344h73l-30 -301h-154v145h-648z" />
    <glyph glyph-name="afii10092" unicode="&#x44a;" horiz-adv-x="649" 
d="M321 121q18 -2 46 -2q35 0 50.5 12t15.5 40q0 43 -59 43h-53v-93zM0 344v156h321v-146h54q119 0 188 -44.5t69 -126.5q0 -204 -262 -204q-60 0 -121 5.5t-92 10.5l-31 5v344h-126z" />
    <glyph glyph-name="afii10093" unicode="&#x44b;" horiz-adv-x="854" 
d="M615 0v500h194v-500h-194zM240 121q18 -2 46 -2q35 0 50.5 12t15.5 40q0 43 -59 43h-53v-93zM45 0v500h195v-146h54q119 0 188 -44.5t69 -126.5q0 -204 -262 -204q-60 0 -121 5.5t-92 10.5z" />
    <glyph glyph-name="afii10094" unicode="&#x44c;" horiz-adv-x="568" 
d="M240 121q18 -2 46 -2q35 0 50.5 12t15.5 40q0 43 -59 43h-53v-93zM45 0v500h195v-146h54q119 0 188 -44.5t69 -126.5q0 -204 -262 -204q-60 0 -121 5.5t-92 10.5z" />
    <glyph glyph-name="afii10095" unicode="&#x44d;" horiz-adv-x="544" 
d="M37 9l15 149q81 -23 165 -23q95 0 115 61h-220v121h215q-27 49 -110 49q-39 0 -80 -5t-63 -11l-22 -5l-14 147q49 30 180 30q145 0 221 -72t76 -192q0 -279 -297 -279q-56 0 -101.5 7.5t-62.5 15.5z" />
    <glyph glyph-name="afii10096" unicode="&#x44e;" horiz-adv-x="852" 
d="M469 252q0 -128 77 -128q78 0 78 127q0 124 -78 124q-77 0 -77 -123zM45 0v500h195v-170h55q18 91 82.5 141t168.5 50q133 0 205.5 -69.5t72.5 -191.5q0 -130 -75.5 -206t-202.5 -76q-104 0 -168 54t-82 151h-56v-183h-195z" />
    <glyph glyph-name="afii10097" unicode="&#x44f;" horiz-adv-x="576" 
d="M224 326q0 -55 74 -55h38v111q-7 0 -20.5 0.5t-18.5 0.5q-73 0 -73 -57zM23 0l108 194q-94 42 -94 145q0 83 59 133t181 50q57 0 120.5 -5.5t98.5 -10.5l35 -6v-500h-195v167h-38l-72 -167h-203z" />
    <glyph glyph-name="uni0450" unicode="&#x450;" horiz-adv-x="560" 
d="M218 310h152v9q0 26 -18.5 44.5t-52.5 18.5q-32 0 -53 -19.5t-28 -52.5zM161 702l180 20l41 -128l-134 -10zM33 233q0 134 70 211.5t186 77.5q114 0 181 -67.5t67 -176.5q0 -24 -2 -46t-4 -32l-2 -10h-304q1 -38 28 -52t97 -14q30 0 62 6t50 12l17 7l16 -141
q-4 -3 -14 -8t-54.5 -13t-105.5 -8q-125 0 -206.5 64.5t-81.5 189.5z" />
    <glyph glyph-name="afii10071" unicode="&#x451;" horiz-adv-x="550" 
d="M318 641q0 35 25.5 58t60.5 23t60.5 -23.5t25.5 -57.5q0 -35 -25.5 -58t-60.5 -23t-60.5 23t-25.5 58zM213 310h152v9q0 26 -18.5 44.5t-52.5 18.5q-32 0 -53 -19.5t-28 -52.5zM78 641q0 35 25.5 58t60.5 23t60.5 -23.5t25.5 -57.5q0 -35 -25.5 -58t-60.5 -23t-60.5 23
t-25.5 58zM28 233q0 134 70 211.5t186 77.5q114 0 181 -67.5t67 -176.5q0 -24 -2 -46t-4 -32l-2 -10h-304q1 -38 28 -52t97 -14q30 0 62 6t49 12l18 7l16 -141q-4 -3 -14 -8t-54.5 -13t-105.5 -8q-125 0 -206.5 64.5t-81.5 189.5z" />
    <glyph glyph-name="afii10099" unicode="&#x452;" horiz-adv-x="606" 
d="M1 468v91l54 34v129h194v-117h182v-137h-182v-107h7q39 22 135 22q195 0 195 -190v-207q0 -107 -57 -168t-167 -61l-62 161q46 0 68.5 32.5t22.5 81.5v125q0 24 -17.5 39.5t-55.5 15.5l-68 -3l-1 4v-213h-194v468h-54z" />
    <glyph glyph-name="afii10100" unicode="&#x453;" horiz-adv-x="406" 
d="M134 593l41 129l184 -20l-87 -119zM45 0v500h360v-156h-165v-344h-195z" />
    <glyph glyph-name="afii10101" unicode="&#x454;" horiz-adv-x="506" 
d="M28 253q0 126 77 197.5t205 71.5q45 0 83.5 -8t54.5 -16l16 -7l-16 -150q-53 25 -106 25q-55 0 -85.5 -14t-40.5 -46h205l-10 -120h-188q28 -51 116 -51q25 0 52.5 6.5t42.5 12.5l14 6l16 -152q-4 -3 -12.5 -8t-48 -13t-93.5 -8q-135 0 -208.5 77t-73.5 197z" />
    <glyph glyph-name="afii10102" unicode="&#x455;" horiz-adv-x="482" 
d="M32 350q0 78 55 125t151 47q49 0 93.5 -7.5t64.5 -14.5l20 -8l-14 -143q-83 21 -132 21q-54 0 -54 -20q0 -15 36.5 -27.5t80.5 -24t80.5 -46t36.5 -88.5q0 -185 -243 -185q-46 0 -89 7.5t-63 15.5l-20 7l15 145q62 -23 129 -23q82 0 82 31q0 11 -23.5 19t-57.5 17
t-67.5 23.5t-57 47.5t-23.5 81z" />
    <glyph glyph-name="afii10103" unicode="&#x456;" horiz-adv-x="285" 
d="M45 0v500h195v-500h-195zM43 651q0 44 26.5 67t72.5 23t72.5 -23t26.5 -67t-27 -67.5t-72 -23.5q-44 0 -71.5 23.5t-27.5 67.5z" />
    <glyph glyph-name="afii10104" unicode="&#x457;" horiz-adv-x="285" 
d="M175 641q0 35 25.5 58t60.5 23t60.5 -23.5t25.5 -57.5q0 -35 -25.5 -58t-60.5 -23t-60.5 23t-25.5 58zM45 0v500h195v-500h-195zM-65 641q0 35 25.5 58t60.5 23t60.5 -23.5t25.5 -57.5q0 -35 -25.5 -58t-60.5 -23t-60.5 23t-25.5 58z" />
    <glyph glyph-name="afii10105" unicode="&#x458;" horiz-adv-x="294" 
d="M54 651q0 44 26.5 67t72.5 23t72.5 -23t26.5 -67t-27 -67.5t-72 -23.5q-44 0 -71.5 23.5t-27.5 67.5zM-37 -82q91 0 91 94v488h195v-534q0 -209 -224 -209z" />
    <glyph glyph-name="afii10106" unicode="&#x459;" horiz-adv-x="871" 
d="M543 121q18 -2 46 -2q35 0 50.5 12t15.5 40q0 43 -59 43h-53v-93zM-8 121q28 0 48 15t38 54t27 116.5t9 193.5h429v-146h54q119 0 188 -44.5t69 -126.5q0 -204 -262 -204q-60 0 -121 5.5t-92 10.5l-31 5h-1v344h-75q0 -193 -55 -279t-164 -86z" />
    <glyph glyph-name="afii10107" unicode="&#x45a;" horiz-adv-x="902" 
d="M574 121q18 -2 46 -2q35 0 50.5 12t15.5 40q0 43 -59 43h-53v-93zM45 0v500h195v-170h139v170h195v-146h54q119 0 188 -44.5t69 -126.5q0 -204 -262 -204q-60 0 -121 5.5t-92 10.5l-31 5v183h-139v-183h-195z" />
    <glyph glyph-name="afii10108" unicode="&#x45b;" horiz-adv-x="606" 
d="M1 470v91l54 34v127h194v-115h182v-137h-182v-109h7q39 22 135 22q195 0 195 -190v-193h-195v157q0 24 -17.5 39.5t-55.5 15.5l-68 -3l-1 4v-213h-194v470h-54z" />
    <glyph glyph-name="afii10109" unicode="&#x45c;" horiz-adv-x="579" 
d="M222 593l41 129l184 -20l-87 -119zM45 0v500h195v-186h19l88 186h223l-146 -229l162 -271h-233l-98 184h-15v-184h-195z" />
    <glyph glyph-name="uni045D" unicode="&#x45d;" horiz-adv-x="640" 
d="M184 702l180 20l41 -128l-134 -10zM50 0v500h195v-183l-7 -56l4 -2l197 241h151v-500h-195v164l6 59l-4 3l-196 -226h-151z" />
    <glyph glyph-name="afii10110" unicode="&#x45e;" horiz-adv-x="584" 
d="M92 619l44 116q50 -32 158 -32q49 0 88.5 8t55.5 16l15 8l44 -116q-6 -5 -19 -12.5t-65 -20t-119 -12.5q-66 0 -116.5 11t-67.5 23zM-5 500h215l99 -324h5l60 324h215l-164 -480q-49 -142 -121 -202.5t-172 -60.5l-59 162q45 0 84 22t62 58z" />
    <glyph glyph-name="afii10193" unicode="&#x45f;" horiz-adv-x="647" 
d="M45 0v500h195v-344h167v344h195v-500h-192l-10 -145h-154l-10 145h-191z" />
    <glyph glyph-name="afii10146" unicode="&#x462;" horiz-adv-x="760" 
d="M348 148h50q72 0 104 17.5t32 59.5q0 41 -34 57.5t-102 16.5h-50v-151zM15 544v158h133v43h199v-43h240v-158h-239v-111h59q161 0 239.5 -48.5t78.5 -154.5q0 -230 -318 -230h-259v544h-133z" />
    <glyph glyph-name="afii10194" unicode="&#x463;" horiz-adv-x="629" 
d="M301 137h46q37 0 51.5 9.5t14.5 36.5q0 23 -16 32t-49 9h-47v-87zM0 344v156h106v100h195v-100h150v-136l-149 -5v-11h49q133 0 197 -38.5t64 -126.5q0 -94 -63.5 -138.5t-198.5 -44.5h-244v344h-106z" />
    <glyph glyph-name="afii10050" unicode="&#x490;" horiz-adv-x="534" 
d="M86 0v702h302l10 108h134l10 -266h-256v-544h-200z" />
    <glyph glyph-name="afii10098" unicode="&#x491;" horiz-adv-x="401" 
d="M45 0v500h194l20 121h132l10 -277h-161v-344h-195z" />
    <glyph glyph-name="endash" unicode="&#x2013;" horiz-adv-x="640" 
d="M27 197v152h586v-152h-586z" />
    <glyph glyph-name="emdash" unicode="&#x2014;" horiz-adv-x="821" 
d="M27 197v152h767v-152h-767z" />
    <glyph glyph-name="afii00208" unicode="&#x2015;" horiz-adv-x="821" 
d="M27 197v152h767v-152h-767z" />
    <glyph glyph-name="quoteleft" unicode="&#x2018;" horiz-adv-x="246" 
d="M17 499q0 47 16.5 89t39.5 68.5t46 47t39 28.5l17 9l86 -70q-6 -6 -15 -18t-24 -52t-15 -84q0 -66 31 -133l-190 -21q-31 72 -31 136z" />
    <glyph glyph-name="quoteright" unicode="&#x2019;" horiz-adv-x="246" 
d="M-8 433q6 6 15 18t24 52t15 84q0 66 -31 133l190 21q31 -72 31 -136q0 -47 -16.5 -89t-39.5 -68.5t-46 -47t-40 -28.5l-16 -9z" />
    <glyph glyph-name="quotesinglbase" unicode="&#x201a;" horiz-adv-x="246" 
d="M-8 -67q6 6 15 18t24 52t15 84q0 66 -31 133l190 21q31 -72 31 -136q0 -47 -16.5 -89t-39.5 -68.5t-46 -47t-40 -28.5l-16 -9z" />
    <glyph glyph-name="quotedblleft" unicode="&#x201c;" horiz-adv-x="492" 
d="M263 499q0 47 16.5 89t39.5 68.5t46 47t39 28.5l17 9l86 -70q-6 -6 -15 -18t-24 -52t-15 -84q0 -66 31 -133l-190 -21q-31 72 -31 136zM17 499q0 47 16.5 89t39.5 68.5t46 47t39 28.5l17 9l86 -70q-6 -6 -15 -18t-24 -52t-15 -84q0 -66 31 -133l-190 -21q-31 72 -31 136z
" />
    <glyph glyph-name="quotedblright" unicode="&#x201d;" horiz-adv-x="492" 
d="M238 433q6 6 15 18t24 52t15 84q0 66 -31 133l190 21q31 -72 31 -136q0 -47 -16.5 -89t-39.5 -68.5t-46 -47t-40 -28.5l-16 -9zM-8 433q6 6 15 18t24 52t15 84q0 66 -31 133l190 21q31 -72 31 -136q0 -47 -16.5 -89t-39.5 -68.5t-46 -47t-40 -28.5l-16 -9z" />
    <glyph glyph-name="quotedblbase" unicode="&#x201e;" horiz-adv-x="492" 
d="M238 -67q6 6 15 18t24 52t15 84q0 66 -31 133l190 21q31 -72 31 -136q0 -47 -16.5 -89t-39.5 -68.5t-46 -47t-40 -28.5l-16 -9zM-8 -67q6 6 15 18t24 52t15 84q0 66 -31 133l190 21q31 -72 31 -136q0 -47 -16.5 -89t-39.5 -68.5t-46 -47t-40 -28.5l-16 -9z" />
    <glyph glyph-name="dagger" unicode="&#x2020;" horiz-adv-x="552" 
d="M44 292v148h157v145h155v-145h152v-148h-135l-21 -517h-147l-21 517h-140z" />
    <glyph glyph-name="daggerdbl" unicode="&#x2021;" horiz-adv-x="552" 
d="M44 -74v149h156l21 105l-24 105h-1h-152v149h152v151h160v-151h152v-149h-152h-1l-24 -105l21 -105h156v-149h-152v-151h-160v151h-152z" />
    <glyph glyph-name="bullet" unicode="&#x2022;" horiz-adv-x="486" 
d="M59 286q0 68 52 117q52 41 122 41q71 0 121 -41q52 -49 52 -117t-52 -117q-50 -41 -121 -41q-70 0 -122 41q-52 49 -52 117z" />
    <glyph glyph-name="ellipsis" unicode="&#x2026;" horiz-adv-x="1034" 
d="M732 84q0 45 34 78q33 27 81 27t81 -27q34 -33 34 -78t-34 -78q-33 -27 -81 -27t-81 27q-34 33 -34 78zM400 84q0 45 35 78q33 27 81 27t81 -27q35 -33 35 -78t-35 -78q-33 -27 -81 -27t-81 27q-35 33 -35 78zM70 84q0 45 34 78q33 27 81 27t81 -27q34 -33 34 -78
t-34 -78q-33 -27 -81 -27t-81 27q-34 33 -34 78z" />
    <glyph glyph-name="perthousand" unicode="&#x2030;" horiz-adv-x="1562" 
d="M1261 194q0 -72 56 -72q59 0 59 72q0 68 -59 68q-56 0 -56 -68zM1101 193q0 95 57 153t159 58q99 0 158 -58.5t59 -152.5q0 -97 -56.5 -155.5t-160.5 -58.5q-107 0 -161.5 58t-54.5 156zM798 194q0 -72 56 -72q59 0 59 72q0 68 -59 68q-56 0 -56 -68zM638 193
q0 95 57 153t159 58q99 0 158 -58.5t59 -152.5q0 -97 -56.5 -155.5t-160.5 -58.5q-107 0 -161.5 58t-54.5 156zM298 0l290 585h165l-290 -585h-165zM188 491q0 -72 56 -72q59 0 59 72q0 68 -59 68q-56 0 -56 -68zM28 490q0 95 57 153t159 58q99 0 158 -58.5t59 -152.5
q0 -97 -56.5 -155.5t-160.5 -58.5q-107 0 -161.5 58t-54.5 156z" />
    <glyph glyph-name="guilsinglleft" unicode="&#x2039;" horiz-adv-x="421" 
d="M85 250l194 197l84 -92l-105 -106l104 -106l-84 -95z" />
    <glyph glyph-name="guilsinglright" unicode="&#x203a;" horiz-adv-x="421" 
d="M56 140l106 106l-104 106l84 95l193 -202l-194 -197z" />
    <glyph glyph-name="Euro" unicode="&#x20ac;" horiz-adv-x="709" 
d="M43 250v73h60v25q0 28 1 42l-61 19v72h74q58 241 330 241q58 0 107.5 -12t69.5 -24l21 -11l-21 -132q-87 30 -142 30q-70 0 -110 -21.5t-58 -70.5h269v-102h-284q-1 -10 -1 -31v-25h285v-103h-270q17 -50 56.5 -71t112.5 -21q24 0 59.5 7.5t58.5 14.5l24 8l21 -131
q-8 -5 -22.5 -13t-66 -21.5t-109.5 -13.5q-280 0 -333 249z" />
    <glyph glyph-name="uni20B4" unicode="&#x20b4;" horiz-adv-x="670" 
d="M51 227v93l149 10q14 9 42.5 26t40.5 25h-232v93h328q2 10 2 15q0 74 -126 74q-30 0 -67.5 -7.5t-59.5 -14.5l-23 -7l-26 148q8 5 23.5 11.5t68 18t109.5 11.5q151 0 223.5 -54.5t72.5 -148.5q0 -25 -9 -46h52v-82l-136 -10q-27 -17 -88 -51h224v-104h-335q-1 -5 -1 -14
q0 -74 126 -74q30 0 67.5 7t59.5 14l23 7l26 -147q-8 -5 -23.5 -11.5t-68 -18t-109.5 -11.5q-151 0 -223.5 54.5t-72.5 148.5q0 24 9 45h-46z" />
    <glyph glyph-name="afii61352" unicode="&#x2116;" horiz-adv-x="1319" 
d="M991 552q0 -42 12 -62t43 -20t43 19.5t12 61.5q0 40 -11.5 57.5t-43.5 17.5t-43.5 -17t-11.5 -57zM870 167v152h347v-152h-347zM811 551q0 90 59.5 140t175.5 50t175.5 -50t59.5 -140q0 -89 -62 -139.5t-173 -50.5q-116 0 -175.5 50t-59.5 140zM86 0v702h208l297 -449h4
l-5 59v390h173v-702h-211l-295 443h-4l5 -76v-367h-172z" />
    <glyph glyph-name="trademark" unicode="&#x2122;" horiz-adv-x="997" 
d="M418 270v410h154l114 -201h7l115 201h153v-410h-155v180h-6l-57 -113h-107l-57 113h-6v-180h-155zM12 552v128h358v-128h-98v-282h-161v282h-99z" />
    </font>
</defs>
</svg>
