<?xml version="1.0" standalone="no"?>
<!DOCTYPE svg PUBLIC "-//W3C//DTD SVG 1.1//EN" "http://www.w3.org/Graphics/SVG/1.1/DTD/svg11.dtd" >
<svg>
<metadata>
Created by FontForge 20090622 at Mon May 29 21:32:50 2017
 By deploy user
Copyright (c) 2013 by AndrijType. All rights reserved.
</metadata>
<defs>
<font id="OnePlusOne2015-LightItalic" horiz-adv-x="533" >
  <font-face 
    font-family="OnePlusOne 2015"
    font-weight="300"
    font-style="italic"
    font-stretch="normal"
    units-per-em="1000"
    panose-1="2 1 3 4 4 2 0 2 0 4"
    ascent="750"
    descent="-250"
    x-height="500"
    cap-height="702"
    bbox="-92 -250 1148 896"
    underline-thickness="50"
    underline-position="-50"
    slope="-12"
    unicode-range="U+0020-U+2122"
  />
<missing-glyph horiz-adv-x="520" 
d="M443 483l38 31l26 -32l-38 -33zM374 158l41 33l23 -32l-40 -34zM150 482l39 32l25 -31l-40 -34zM103 304l9 33h168l41 194h36l-41 -194h167l-8 -33h-166l-41 -194h-36l41 194h-170zM82 159l38 32l25 -33l-39 -33z" />
    <glyph glyph-name=".notdef" horiz-adv-x="520" 
d="M443 483l38 31l26 -32l-38 -33zM374 158l41 33l23 -32l-40 -34zM150 482l39 32l25 -31l-40 -34zM103 304l9 33h168l41 194h36l-41 -194h167l-8 -33h-166l-41 -194h-36l41 194h-170zM82 159l38 32l25 -33l-39 -33z" />
    <glyph glyph-name=".null" horiz-adv-x="0" 
 />
    <glyph glyph-name="nonmarkingreturn" horiz-adv-x="333" 
 />
    <glyph glyph-name="space" unicode=" " horiz-adv-x="233" 
 />
    <glyph glyph-name="exclam" unicode="!" horiz-adv-x="236" 
d="M112 239l98 463h42l-97 -463h-43zM28 2q-5 7 -5 14q0 16 14 25q10 7 22 7q11 0 17 -7q5 -7 5 -14q0 -16 -13 -25q-10 -7 -22 -7q-11 0 -18 7z" />
    <glyph glyph-name="quotedbl" unicode="&#x22;" horiz-adv-x="259" 
d="M198 520l45 211h39l-53 -211h-31zM77 520l45 211h39l-53 -211h-31z" />
    <glyph glyph-name="numbersign" unicode="#" horiz-adv-x="645" 
d="M186 154h244l85 286h-243zM43 118l8 36h93l86 286h-120l9 36h121l33 109h42l-33 -109h243l33 109h42l-32 -109h89l-9 -36h-91l-85 -286h117l-8 -36h-119l-35 -118h-42l35 118h-245l-35 -118h-42l35 118h-90z" />
    <glyph glyph-name="dollar" unicode="$" horiz-adv-x="430" 
d="M45 71l15 34q48 -27 127 -27q85 0 127 36t42 89q0 29 -25 47.5t-61 29t-71.5 22t-60.5 36t-25 62.5q0 67 49 111.5t125 51.5l35 157h34l-34 -156q34 -1 63 -6t41 -10l12 -5l-13 -33q-45 17 -114 17q-65 0 -110 -33t-45 -85q0 -30 25 -48.5t61 -29t71.5 -22.5t60.5 -36
t25 -62q0 -66 -45.5 -113.5t-140.5 -54.5l-31 -145h-35l30 144q-41 0 -74 7.5t-45 14.5z" />
    <glyph glyph-name="percent" unicode="%" horiz-adv-x="859" 
d="M485 130q0 -50 25 -79t71 -29q69 0 113 53.5t44 135.5q0 50 -25 79.5t-70 29.5q-70 0 -114 -53.5t-44 -136.5zM449 124q0 99 56.5 163.5t144.5 64.5q58 0 90.5 -37t32.5 -100q0 -98 -56 -161t-143 -63q-60 0 -92.5 35.5t-32.5 97.5zM177 0l470 702h42l-470 -702h-42z
M127 490q0 -50 25 -79t71 -29q69 0 113 53.5t44 135.5q0 50 -25 79.5t-70 29.5q-70 0 -114 -53.5t-44 -136.5zM91 484q0 99 56.5 163.5t144.5 64.5q58 0 90.5 -37t32.5 -100q0 -98 -56 -161t-143 -63q-60 0 -92.5 35.5t-32.5 97.5z" />
    <glyph glyph-name="ampersand" unicode="&#x26;" horiz-adv-x="595" 
d="M102 167q0 -64 35.5 -103.5t96.5 -39.5q81 0 150 72q-112 132 -146 286q-48 -17 -92 -73t-44 -142zM59 158q0 55 17.5 102t45 77t55.5 49t56 28q-5 35 -5 61q0 118 62.5 177.5t157.5 59.5l4 -35q-78 0 -131.5 -48t-53.5 -147q0 -84 41.5 -180t104.5 -171q80 111 80 257
q0 15 -2 43l38 4q2 -28 2 -43q0 -165 -93 -288q58 -60 107 -78l-21 -36q-56 19 -116 80q-82 -80 -180 -80q-79 0 -124 46.5t-45 121.5z" />
    <glyph glyph-name="quotesingle" unicode="'" horiz-adv-x="138" 
d="M112 520l45 211h39l-53 -211h-31z" />
    <glyph glyph-name="parenleft" unicode="(" horiz-adv-x="294" 
d="M116 272q18 83 46.5 160t57 128t55 90.5t42.5 57.5l16 18l29 -14l-16 -19.5t-38.5 -55.5t-53.5 -90.5t-52.5 -122t-43.5 -152.5q-22 -105 -22 -199q0 -68 10.5 -127t21.5 -84l10 -25l-35 -14q-5 9 -13.5 27.5t-22 83t-13.5 137.5q0 95 22 201z" />
    <glyph glyph-name="parenright" unicode=")" horiz-adv-x="294" 
d="M-24 -163l16 19.5t38.5 55.5t53 90.5t52 122t44.5 152.5q22 105 22 199q0 68 -10.5 127t-21.5 84l-10 25l36 14q5 -9 13.5 -27.5t22 -82.5t13.5 -136q0 -92 -23 -203q-18 -83 -46.5 -160t-57 -128t-54.5 -90.5t-42 -57.5l-16 -18z" />
    <glyph glyph-name="asterisk" unicode="*" horiz-adv-x="406" 
d="M120 572l18 33l131 -55l33 170h33l-38 -169l156 56l3 -33l-155 -51l64 -136l-32 -20l-58 137l-116 -138l-23 20l120 135z" />
    <glyph glyph-name="plus" unicode="+" horiz-adv-x="404" 
d="M58 262l9 36h142l35 164h42l-35 -164h143l-9 -36h-141l-35 -166h-42l35 166h-144z" />
    <glyph glyph-name="comma" unicode="," horiz-adv-x="216" 
d="M-31 -138l10.5 7.5t23 20.5t29.5 33t23.5 43.5t10.5 52.5l-1 6q-9 0 -9 14q0 25 29 25q23 0 23 -27q0 -34 -12.5 -67t-30.5 -56t-35.5 -41t-29.5 -27l-13 -9z" />
    <glyph glyph-name="hyphen" unicode="-" horiz-adv-x="293" 
d="M57 261l9 37h217l-9 -37h-217z" />
    <glyph glyph-name="period" unicode="." horiz-adv-x="225" 
d="M56 2q-5 7 -5 14q0 16 14 25q10 7 22 7q11 0 17 -7q5 -7 5 -14q0 -16 -13 -25q-10 -7 -22 -7q-11 0 -18 7z" />
    <glyph glyph-name="slash" unicode="/" horiz-adv-x="418" 
d="M-92 -250l614 1000h40l-613 -1000h-41z" />
    <glyph glyph-name="zero" unicode="0" horiz-adv-x="631" 
d="M139 231q0 -99 37.5 -153t108.5 -54q80 0 146 66.5t101.5 168.5t35.5 212q0 100 -37.5 154t-108.5 54q-80 0 -146 -64.5t-101.5 -166.5t-35.5 -217zM96 230q0 118 38.5 226.5t116 182t177.5 73.5q89 0 136 -63.5t47 -176.5q0 -84 -23 -168.5t-64 -155t-105.5 -114.5
t-139.5 -44q-89 0 -136 63.5t-47 176.5z" />
    <glyph glyph-name="one" unicode="1" horiz-adv-x="401" 
d="M130 597l221 105h42l-148 -702h-41l140 666l-213 -99z" />
    <glyph glyph-name="two" unicode="2" horiz-adv-x="538" 
d="M19 0l8 36q10 6 26 17.5l63.5 47t90.5 71t95.5 86t90.5 97t64 98t26 94.5q0 59 -37.5 94t-112.5 35q-39 0 -77.5 -6t-57.5 -12l-18 -6l4 37q64 23 161 23q91 0 136.5 -41.5t45.5 -113.5q0 -55 -35.5 -121t-85 -121.5t-116.5 -115t-114 -95l-95 -68.5h368l-8 -36h-422z
" />
    <glyph glyph-name="three" unicode="3" horiz-adv-x="512" 
d="M14 24l15 34q4 -4 13 -9t45.5 -14t84.5 -9q120 0 183.5 58.5t63.5 148.5q0 54 -38.5 83t-101.5 29h-74l3 34q9 1 30 2q85 11 152.5 61.5t67.5 130.5q0 103 -149 103q-37 0 -71.5 -6t-51.5 -12l-16 -6l3 37q54 23 151 23q88 0 132.5 -33t44.5 -94q0 -73 -45 -125.5
t-114 -82.5q56 -11 88 -46.5t32 -90.5q0 -110 -74.5 -180t-217.5 -70q-55 0 -94 8.5t-50 17.5z" />
    <glyph glyph-name="four" unicode="4" horiz-adv-x="546" 
d="M39 174l5 36l301 492h40l-295 -492h303l69 332h42l-114 -542h-42l37 174h-346z" />
    <glyph glyph-name="five" unicode="5" horiz-adv-x="515" 
d="M28 24l15 34q4 -4 13 -9t46 -14t84 -9q108 0 173.5 65.5t65.5 158.5q0 61 -39.5 99t-112.5 38h-121l92 315h289l-8 -35h-255l-73 -243h90q88 0 135 -44.5t47 -119.5q0 -116 -77.5 -193t-207.5 -77q-55 0 -94 8.5t-50 17.5z" />
    <glyph glyph-name="six" unicode="6" horiz-adv-x="582" 
d="M126 188q0 -74 37.5 -118t110.5 -44q43 0 80 15t61.5 39t42 53.5t25.5 58.5t8 55q0 60 -39.5 102.5t-116.5 42.5q-98 0 -190 -46q-19 -73 -19 -158zM83 189q0 134 52.5 254.5t143 194.5t195.5 74q30 0 57 -5t39 -10l12 -5l-12 -36q-43 20 -99 20q-106 0 -190.5 -81.5
t-124.5 -210.5q8 5 29 13.5t70 19.5t97 11q87 0 135 -50t48 -125q0 -43 -17 -88t-49 -84.5t-84.5 -65t-116.5 -25.5q-90 0 -137.5 53t-47.5 146z" />
    <glyph glyph-name="seven" unicode="7" horiz-adv-x="460" 
d="M85 0l413 666h-370l8 36h413l-8 -36l-411 -666h-45z" />
    <glyph glyph-name="eight" unicode="8" horiz-adv-x="551" 
d="M193 504q0 -60 37 -91.5t86 -32.5h5h5q30 1 61 12t59.5 31.5t47 57t18.5 82.5q0 50 -33.5 81.5t-96.5 31.5q-87 0 -138 -49.5t-51 -122.5zM104 145q0 -57 37.5 -88t103.5 -31h2q91 0 148.5 50.5t57.5 141.5q0 65 -39.5 95.5t-101.5 30.5q-86 0 -147 -49t-61 -150zM59 136
q0 90 47.5 147.5t120.5 81.5q-77 40 -77 134q0 90 66 151.5t175 61.5q80 0 123 -39.5t43 -102.5q0 -77 -42.5 -129.5t-107.5 -77.5q89 -39 89 -142q0 -108 -71 -169t-186 -62h-1q-84 0 -131.5 38t-47.5 108z" />
    <glyph glyph-name="nine" unicode="9" horiz-adv-x="582" 
d="M169 464q0 -62 39.5 -107.5t116.5 -45.5q99 0 193 47q16 74 16 146q0 76 -37.5 124t-110.5 48q-70 0 -121.5 -36.5t-73.5 -83.5t-22 -92zM79 10l12 36q42 -20 98 -20q109 0 194 80t124 211q-10 -5 -31.5 -13.5t-70 -19t-95.5 -10.5q-86 0 -135.5 54t-49.5 129
q0 43 17.5 86.5t49.5 82t84.5 62.5t116.5 24q90 0 137 -56.5t47 -150.5q0 -137 -52.5 -255.5t-143 -189t-195.5 -70.5q-30 0 -56.5 5t-38.5 10z" />
    <glyph glyph-name="colon" unicode=":" horiz-adv-x="228" 
d="M104 396q-5 7 -5 14q0 16 14 25q10 7 22 7q11 0 17 -7q5 -7 5 -14q0 -16 -13 -25q-10 -7 -22 -7q-11 0 -18 7zM21 2q-5 7 -5 14q0 16 14 25q10 7 22 7q11 0 17 -7q5 -7 5 -14q0 -16 -13 -25q-11 -7 -21 -7q-12 0 -19 7z" />
    <glyph glyph-name="semicolon" unicode=";" horiz-adv-x="225" 
d="M104 396q-5 7 -5 14q0 16 14 25q10 7 22 7q11 0 17 -7q5 -7 5 -14q0 -16 -13 -25q-10 -7 -22 -7q-11 0 -18 7zM-61 -138l10.5 7.5t23 20.5t29.5 33t23.5 43.5t10.5 52.5l-1 6q-9 0 -9 14q0 25 29 25q23 0 23 -27q0 -34 -12.5 -67t-30 -56t-35.5 -41t-30 -27l-13 -9z" />
    <glyph glyph-name="less" unicode="&#x3c;" horiz-adv-x="382" 
d="M106 295l235 185l23 -25l-206 -160l139 -160l-35 -25z" />
    <glyph glyph-name="equal" unicode="=" horiz-adv-x="465" 
d="M43 355l9 37h388l-9 -37h-388zM3 167l9 37h388l-9 -37h-388z" />
    <glyph glyph-name="greater" unicode="&#x3e;" horiz-adv-x="381" 
d="M106 135l206 159l-139 161l35 25l156 -185l-235 -185z" />
    <glyph glyph-name="question" unicode="?" horiz-adv-x="415" 
d="M150 262l27.5 16t61.5 43t77.5 66.5t61 81.5t27.5 93q0 47 -30.5 80.5t-91.5 33.5q-32 0 -63.5 -5t-47.5 -10l-16 -5l4 36q55 20 137 20q76 0 114.5 -41t38.5 -101q0 -55 -30.5 -110.5t-73.5 -95t-86 -71.5t-74 -48l-30 -16zM50 2q-5 7 -5 14q0 16 14 25q10 7 22 7
q11 0 17 -7q5 -7 5 -14q0 -16 -13 -25q-10 -7 -22 -7q-11 0 -18 7z" />
    <glyph glyph-name="at" unicode="@" horiz-adv-x="862" 
d="M305 187q0 -57 29 -86.5t81 -29.5q36 0 65.5 15t41 27.5t17.5 23.5l57 271q-14 7 -80 7q-104 0 -157.5 -65t-53.5 -163zM67 127q0 259 136 422t368 163q137 0 209.5 -73.5t72.5 -205.5q0 -188 -69.5 -293t-174.5 -105q-78 0 -78 54v5q-46 -59 -134 -59q-64 0 -100 36
t-36 106q0 118 70.5 196t195.5 78q36 0 66 -3t41 -6l12 -3l-3 -2l-63 -310q-2 -8 -2 -20q0 -36 42 -36q78 0 134 90.5t56 265.5q0 119 -63 184t-184 65q-205 0 -328.5 -148.5t-123.5 -389.5q0 -140 68.5 -216.5t188.5 -76.5q44 0 83 5t56 10l17 5l-5 -36q-53 -20 -160 -20
q-139 0 -215.5 83t-76.5 235z" />
    <glyph glyph-name="A" unicode="A" horiz-adv-x="622" 
d="M175 241h303l-64 418zM-6 0l404 702h53l107 -702h-44l-31 205h-329l-117 -205h-43z" />
    <glyph glyph-name="B" unicode="B" horiz-adv-x="602" 
d="M208 382h173q22 1 47 10.5t51 29t43 56t17 83.5q0 55 -36.5 85t-105.5 30q-64 0 -128 -6zM134 32q62 -6 125 -6q136 0 191.5 53.5t55.5 151.5q0 57 -35 86t-101 29h-169zM85 0l148 702q75 10 168 10q90 0 136 -36t46 -104q0 -138 -122 -201q90 -29 90 -131
q0 -116 -68 -183t-236 -67q-41 0 -81.5 2.5t-60.5 5.5z" />
    <glyph glyph-name="C" unicode="C" horiz-adv-x="622" 
d="M100 263q0 200 116 324.5t297 124.5q46 0 91 -6t66 -12l22 -7l-12 -37q-79 26 -173 26q-158 0 -260.5 -113t-102.5 -291q0 -116 62.5 -180.5t177.5 -64.5q41 0 83.5 5.5t64.5 11.5l23 6l-5 -36q-72 -24 -176 -24q-133 0 -203.5 72t-70.5 201z" />
    <glyph glyph-name="D" unicode="D" horiz-adv-x="724" 
d="M135 32q74 -6 155 -6q163 0 265 110.5t102 295.5q0 115 -61.5 179.5t-171.5 64.5q-83 0 -155 -6zM85 0l148 702q88 10 200 10q126 0 197 -72t71 -201q0 -204 -116 -326.5t-304 -122.5q-45 0 -94 2.5t-75 5.5z" />
    <glyph glyph-name="E" unicode="E" horiz-adv-x="607" 
d="M85 0l148 702h373l-9 -36h-328l-62 -293h307l-8 -37h-307l-63 -300h361l-8 -36h-404z" />
    <glyph glyph-name="F" unicode="F" horiz-adv-x="540" 
d="M85 0l148 702h381l-8 -36h-338l-62 -293h290l-9 -37h-289l-70 -336h-43z" />
    <glyph glyph-name="G" unicode="G" horiz-adv-x="716" 
d="M99 252q0 207 115 333.5t320 126.5q44 0 89 -6t69 -12l23 -7l-13 -37q-84 26 -173 26q-186 0 -285.5 -113.5t-99.5 -299.5q0 -114 61.5 -175.5t181.5 -61.5q91 0 157 7l64 299h-172l8 34h214l-77 -362q-75 -14 -206 -14q-138 0 -207 68.5t-69 193.5z" />
    <glyph glyph-name="H" unicode="H" horiz-adv-x="718" 
d="M85 0l148 702h43l-72 -338h392l72 338h42l-148 -702h-43l69 328h-391l-69 -328h-43z" />
    <glyph glyph-name="I" unicode="I" horiz-adv-x="283" 
d="M85 0l148 702h43l-148 -702h-43z" />
    <glyph glyph-name="J" unicode="J" horiz-adv-x="284" 
d="M-87 -195q72 0 111 45.5t58 132.5l152 719h43l-154 -728q-21 -101 -70 -153t-136 -52z" />
    <glyph glyph-name="K" unicode="K" horiz-adv-x="634" 
d="M85 0l148 702h43l-69 -324h103l340 324h47l-356 -343l231 -359h-50l-222 342h-100l-72 -342h-43z" />
    <glyph glyph-name="L" unicode="L" 
d="M85 0l148 702h43l-141 -666h358l-8 -36h-400z" />
    <glyph glyph-name="M" unicode="M" horiz-adv-x="916" 
d="M85 0l148 702l1 -3v3h53l176 -505l386 505h60l-148 -702h-43l133 637l-375 -487h-44l-171 487l-133 -637h-43z" />
    <glyph glyph-name="N" unicode="N" horiz-adv-x="742" 
d="M85 0l148 702h45l281 -639l1 3l133 636h42l-148 -702h-46l-283 640l1 -9l-131 -631h-43z" />
    <glyph glyph-name="O" unicode="O" horiz-adv-x="761" 
d="M144 261q0 -111 54 -172.5t153 -61.5q152 0 247.5 113t95.5 297q0 113 -54 176t-153 63q-149 0 -246 -116t-97 -299zM99 255q0 202 111.5 329.5t284.5 127.5q116 0 180 -71.5t64 -196.5q0 -204 -110.5 -329t-286.5 -125q-115 0 -179 70.5t-64 194.5z" />
    <glyph glyph-name="P" unicode="P" horiz-adv-x="548" 
d="M190 295h94q61 0 113.5 24t89 82t36.5 141q0 67 -41 100.5t-116 33.5q-33 0 -98 -5zM85 0l148 702q61 10 142 10q192 0 192 -160q0 -75 -25.5 -133.5t-67.5 -92.5t-90.5 -51.5t-99.5 -17.5h-102l-54 -257h-43z" />
    <glyph glyph-name="Q" unicode="Q" horiz-adv-x="761" 
d="M144 261q0 -111 54 -173t153 -62q152 0 247.5 113.5t95.5 297.5q0 113 -54 176t-153 63q-149 0 -246 -116t-97 -299zM99 255q0 202 111.5 329.5t284.5 127.5q116 0 180 -71.5t64 -196.5q0 -197 -104.5 -321.5t-271.5 -132.5l-8 -41q-8 -40 -8 -64q0 -42 22.5 -60
t76.5 -18l-20 -36q-66 0 -95 23t-29 75q0 31 9 71l10 50q-106 7 -164 76t-58 189z" />
    <glyph glyph-name="R" unicode="R" horiz-adv-x="587" 
d="M190 295h92q104 0 171 67t67 171q0 68 -40 105.5t-114 37.5q-59 0 -97 -5zM85 0l148 702q49 10 143 10q92 0 141 -44.5t49 -126.5q0 -98 -55.5 -171t-141.5 -100l124 -270h-50l-119 260q-21 -3 -42 -3h-100l-54 -257h-43z" />
    <glyph glyph-name="S" unicode="S" horiz-adv-x="566" 
d="M50 25l16 37q72 -36 177 -36t164 55t59 131q0 36 -22 61t-55 37.5l-72 27.5t-72 30t-55 46.5t-22 76.5q0 100 67.5 160.5t183.5 60.5q46 0 85.5 -8.5t55.5 -17.5l16 -8l-16 -36q-58 34 -149 34q-93 0 -145.5 -48t-52.5 -126q0 -44 30.5 -73t74.5 -44l88 -31.5t74.5 -49
t30.5 -82.5q0 -99 -74 -165.5t-203 -66.5q-52 0 -98 9t-66 17z" />
    <glyph glyph-name="T" unicode="T" horiz-adv-x="446" 
d="M108 667l8 35h440l-9 -35h-198l-139 -667h-43l139 667h-198z" />
    <glyph glyph-name="U" unicode="U" horiz-adv-x="713" 
d="M120 213l103 489h43l-101 -481q-6 -25 -6 -50q0 -66 43 -104t126 -38q97 0 161.5 53t82.5 139l101 481h43l-103 -489q-21 -99 -97.5 -161t-195.5 -62q-102 0 -154 46t-52 123q0 25 6 54z" />
    <glyph glyph-name="V" unicode="V" horiz-adv-x="609" 
d="M135 702h46l99 -660l375 660h45l-402 -702h-55z" />
    <glyph glyph-name="W" unicode="W" horiz-adv-x="951" 
d="M135 702h45l49 -653l337 653h46l64 -655l322 655h44l-353 -702h-46l-66 649l-339 -649h-46z" />
    <glyph glyph-name="X" unicode="X" horiz-adv-x="625" 
d="M-6 0l332 352l-178 350h49l163 -320l296 320h48l-325 -350l-1 -1l184 -351h-49l-168 322l-301 -322h-50z" />
    <glyph glyph-name="Y" unicode="Y" horiz-adv-x="571" 
d="M121 702h48l152 -365l308 365h48l-342 -403l-63 -299h-43l63 298z" />
    <glyph glyph-name="Z" unicode="Z" horiz-adv-x="574" 
d="M9 0l8 36l565 630h-434l9 36h486l-9 -36l-564 -630h433l-8 -36h-486z" />
    <glyph glyph-name="bracketleft" unicode="[" horiz-adv-x="324" 
d="M45 -68l167 788h216l-8 -31h-179l-152 -725h180l-8 -32h-216z" />
    <glyph glyph-name="backslash" unicode="\" horiz-adv-x="418" 
d="M102 750h41l190 -1000h-41z" />
    <glyph glyph-name="bracketright" unicode="]" horiz-adv-x="324" 
d="M-36 -68l8 32h177l153 724h-179l8 32h216l-167 -788h-216z" />
    <glyph glyph-name="asciicircum" unicode="^" horiz-adv-x="342" 
d="M121 562l167 166l11 -19l88 -147l-21 -17l-86 146l-146 -146z" />
    <glyph glyph-name="underscore" unicode="_" horiz-adv-x="628" 
d="M-61 -139l9 37h551l-9 -37h-551z" />
    <glyph glyph-name="grave" unicode="`" horiz-adv-x="180" 
d="M160 702l36 2l14 -106l-37 -2z" />
    <glyph glyph-name="a" unicode="a" 
d="M100 184q0 -75 32.5 -116.5t89.5 -41.5q82 0 154 62l78 371q-39 16 -114 16q-65 0 -113 -23.5t-75 -65t-39.5 -91.5t-12.5 -111zM56 174q0 152 71.5 245t221.5 93q44 0 82.5 -6t54.5 -12l17 -5l-88 -412v-3q0 -24 18.5 -38t48.5 -14l-19 -32q-43 0 -67 16t-26 42
q-9 -9 -26.5 -20t-57 -24.5t-79.5 -13.5q-72 0 -111.5 48t-39.5 136z" />
    <glyph glyph-name="b" unicode="b" horiz-adv-x="517" 
d="M96 41q36 -15 110 -15q114 0 181 85.5t67 216.5q0 147 -139 147q-36 0 -68.5 -10.5t-46.5 -19t-22 -15.5zM48 11l150 709h42l-54 -251h3q5 5 15 12t46.5 19t78.5 12q83 0 126 -44.5t43 -129.5q0 -152 -81 -250t-218 -98q-44 0 -82 5t-53 11z" />
    <glyph glyph-name="c" unicode="c" horiz-adv-x="420" 
d="M57 180q0 157 81 244.5t207 87.5q38 0 68 -5t41 -11l11 -5l-13 -33q-39 17 -111 17q-105 0 -172.5 -75t-67.5 -209q0 -82 39 -123.5t108 -41.5q37 0 66.5 7t41.5 14l11 7v-34q-3 -3 -11 -8t-42 -13.5t-79 -8.5q-84 0 -131 47t-47 143z" />
    <glyph glyph-name="d" unicode="d" horiz-adv-x="516" 
d="M102 192q0 -79 39 -122.5t108 -43.5q34 0 63.5 3.5t41.5 6.5l13 4l82 390q-56 45 -125 45q-48 0 -86.5 -16t-63.5 -42.5t-41.5 -63.5t-23.5 -76.5t-7 -84.5zM58 183q0 68 15 125.5t46 104t84 73t123 26.5q37 0 69.5 -11t46.5 -21l14 -11h1l53 251h42l-150 -709
q-66 -21 -164 -21q-87 0 -133.5 50.5t-46.5 142.5z" />
    <glyph glyph-name="e" unicode="e" horiz-adv-x="453" 
d="M108 279h147q83 0 121 21t38 76q0 39 -29.5 69t-79.5 30q-72 0 -125.5 -53.5t-71.5 -142.5zM55 175q0 148 72 242.5t183 94.5q69 0 108 -40t39 -95q0 -71 -48.5 -103t-147.5 -32h-158q-4 -23 -4 -50q0 -76 39 -121t108 -45q34 0 65.5 7t46.5 14l14 7l-1 -34
q-42 -30 -136 -30q-75 0 -127.5 48.5t-52.5 136.5z" />
    <glyph glyph-name="f" unicode="f" horiz-adv-x="302" 
d="M20 -220l145 686h-58l8 34h57l17 78q16 79 53.5 116t108.5 37l4 -36q-56 0 -84 -29.5t-42 -94.5l-15 -71h140l-8 -34h-139l-145 -686h-42z" />
    <glyph glyph-name="g" unicode="g" horiz-adv-x="516" 
d="M100 184q0 -75 33 -116.5t90 -41.5q81 0 150 46l81 388q-45 15 -114 15q-65 0 -113 -23.5t-75 -65t-39.5 -91.5t-12.5 -111zM16 -202l15 34q32 -27 126 -27q71 0 123.5 38.5t65.5 101.5l18 85v2h-1q-7 -5 -19.5 -12t-52.5 -18.5t-81 -11.5q-73 0 -113.5 48.5t-40.5 137.5
q0 73 16 132t50 105.5t92 72.5t136 26q46 0 84 -6t53 -12l15 -5l-96 -459l-18 -88q-15 -78 -81.5 -125.5t-151.5 -47.5q-52 0 -87 7.5t-44 14.5z" />
    <glyph glyph-name="h" unicode="h" horiz-adv-x="515" 
d="M47 0l151 720h42l-53 -250h1q6 5 17 12t49.5 18.5t80.5 11.5q151 0 151 -115q0 -18 -5 -43l-75 -354h-42l73 346q4 17 4 36q0 93 -122 93q-74 0 -140 -44l-90 -431h-42z" />
    <glyph glyph-name="i" unicode="i" horiz-adv-x="232" 
d="M180 656q0 13 10 21t22 8q21 0 21 -19q0 -13 -9.5 -21t-22.5 -8q-21 0 -21 19zM79 153l73 347h41l-70 -338q-7 -31 -7 -59q0 -77 78 -77l-20 -36q-103 0 -103 97q0 26 8 66z" />
    <glyph glyph-name="j" unicode="j" horiz-adv-x="224" 
d="M193 656q0 13 10 21t22 8q21 0 21 -19q0 -13 -9.5 -21t-22.5 -8q-21 0 -21 19zM-80 -196q55 0 84 35t44 102l117 559h42l-120 -568q-16 -81 -55 -122t-109 -41z" />
    <glyph glyph-name="k" unicode="k" horiz-adv-x="433" 
d="M47 0l151 720h42l-93 -440h90l201 220h48l-214 -238l119 -262h-49l-109 244h-93l-51 -244h-42z" />
    <glyph glyph-name="l" unicode="l" horiz-adv-x="232" 
d="M79 153l119 567h42l-117 -558q-7 -31 -7 -59q0 -77 78 -77l-20 -36q-103 0 -103 97q0 26 8 66z" />
    <glyph glyph-name="m" unicode="m" horiz-adv-x="734" 
d="M47 0l103 489q72 23 174 23q97 0 117 -47q66 47 158 47q111 0 111 -88q0 -20 -6 -47l-79 -377h-42l77 371q4 19 4 37q0 37 -22 52t-66 15q-38 0 -69.5 -10.5t-43.5 -19t-17 -14.5q-1 -2 -1 -6l-89 -425h-41l87 419q1 3 1 10q0 46 -93 46q-86 0 -126 -16l-95 -459h-42z
" />
    <glyph glyph-name="n" unicode="n" horiz-adv-x="515" 
d="M47 0l103 489q63 23 186 23q73 0 111.5 -29t38.5 -86q0 -18 -5 -43l-75 -354h-41l72 346q4 17 4 37q0 92 -122 92q-38 0 -71 -4t-46.5 -7t-17.5 -5l-95 -459h-42z" />
    <glyph glyph-name="o" unicode="o" horiz-adv-x="523" 
d="M100 183q0 -75 33 -116.5t99 -41.5q111 0 169.5 84.5t58.5 214.5q0 72 -33.5 111.5t-100.5 39.5q-110 0 -168 -80.5t-58 -211.5zM57 177q0 153 71.5 243.5t204.5 90.5q84 0 127.5 -46t43.5 -131q0 -153 -73 -249t-205 -96q-83 0 -126 49t-43 139z" />
    <glyph glyph-name="p" unicode="p" horiz-adv-x="517" 
d="M103 72q5 -7 15 -15t39.5 -19.5t65.5 -11.5q105 0 168.5 86.5t63.5 214.5q0 148 -152 148q-75 0 -118 -16zM0 -220l150 709q55 23 160 23q190 0 190 -175q0 -148 -77.5 -247.5t-201.5 -99.5q-40 0 -70.5 10.5t-41.5 21.5l-11 10h-3l-53 -252h-42z" />
    <glyph glyph-name="q" unicode="q" horiz-adv-x="516" 
d="M100 184q0 -75 32.5 -116.5t90.5 -41.5q85 0 149 45l82 388q-40 16 -114 16q-65 0 -113 -23.5t-75 -65t-39.5 -91.5t-12.5 -111zM56 176q0 151 71 243.5t222 92.5q46 0 84.5 -6t54.5 -12l15 -5l-150 -709h-42l53 252h-1q-7 -5 -19.5 -12t-52.5 -18.5t-81 -11.5
q-73 0 -113.5 48.5t-40.5 137.5z" />
    <glyph glyph-name="r" unicode="r" horiz-adv-x="322" 
d="M47 0l103 489q63 23 143 23q29 0 52.5 -4t32.5 -8l8 -3l-14 -33q-26 11 -88 11q-54 0 -99 -15l-96 -460h-42z" />
    <glyph glyph-name="s" unicode="s" horiz-adv-x="430" 
d="M27 19l15 34q48 -27 127 -27q85 0 127 36t42 89q0 29 -25 47.5t-61 29t-71.5 22t-60.5 36t-25 62.5q0 73 57 118.5t143 45.5q36 0 67.5 -5t44.5 -11l13 -5l-13 -33q-45 17 -114 17q-65 0 -110 -33t-45 -85q0 -30 25 -48.5t61 -29t71.5 -22.5t60.5 -36t25 -62
q0 -71 -52.5 -120t-163.5 -49q-43 0 -77.5 7t-47.5 15z" />
    <glyph glyph-name="t" unicode="t" horiz-adv-x="321" 
d="M95 133l69 333h-58l8 34h57l22 105h42l-23 -105h123l-8 -34h-122l-67 -324q-7 -35 -7 -51q0 -35 19.5 -50t63.5 -15l-21 -36q-56 0 -81 19.5t-25 62.5q0 24 8 61z" />
    <glyph glyph-name="u" unicode="u" horiz-adv-x="515" 
d="M70 146l74 354h41l-72 -346q-4 -19 -4 -38q0 -90 123 -90q77 0 133 14l97 460h42l-103 -489l-3 -1q-2 0 -6.5 -1.5t-10.5 -3t-15 -3.5t-20 -3.5t-24.5 -3t-28.5 -3t-33.5 -2t-38.5 -0.5q-156 0 -156 109q0 26 5 47z" />
    <glyph glyph-name="v" unicode="v" horiz-adv-x="434" 
d="M85 500h45l62 -453l251 453h46l-280 -500h-54z" />
    <glyph glyph-name="w" unicode="w" horiz-adv-x="664" 
d="M86 500h44l20 -445l226 445h52l41 -445l205 445h45l-235 -500h-53l-43 440l-224 -440h-54z" />
    <glyph glyph-name="x" unicode="x" horiz-adv-x="446" 
d="M-25 0l237 252l-126 248h49l112 -220l203 220h49l-231 -247l132 -253h-49l-116 227l-211 -227h-49z" />
    <glyph glyph-name="y" unicode="y" horiz-adv-x="451" 
d="M-17 -195q32 0 62.5 16.5t57 48.5t45.5 61.5t42 71.5l-106 497h47l93 -445l236 445h46l-271 -500q-27 -49 -50.5 -85t-55.5 -72t-68 -55t-75 -19z" />
    <glyph glyph-name="z" unicode="z" horiz-adv-x="420" 
d="M3 0l8 36l376 428h-264l8 36h314l-8 -36l-376 -428h293l-9 -36h-342z" />
    <glyph glyph-name="braceleft" unicode="{" horiz-adv-x="378" 
d="M127 274l9 36q39 0 79.5 38.5t45.5 100.5q1 20 2 62.5t3 62.5q4 83 46.5 128t149.5 45l-6 -31q-42 0 -71.5 -11.5t-45.5 -33.5t-23.5 -47t-9.5 -58q-2 -20 -2 -63t-2 -62q-4 -51 -33 -90t-72 -59q55 -34 55 -95q0 -40 -37.5 -119.5t-37.5 -128.5q0 -81 101 -81l-8 -31
q-138 0 -138 99q0 53 37.5 133.5t37.5 117.5t-25 62t-55 25z" />
    <glyph glyph-name="bar" unicode="|" horiz-adv-x="279" 
d="M31 -250l212 1000h42l-213 -1000h-41z" />
    <glyph glyph-name="braceright" unicode="}" horiz-adv-x="378" 
d="M-5 -163l8 31q81 0 112.5 39.5t36.5 110.5q1 20 1.5 62.5t1.5 61.5q4 51 33 90.5t72 59.5q-54 34 -54 95q0 40 37 119.5t37 128.5q0 81 -100 81l7 31q138 0 138 -99q0 -53 -37 -133.5t-37 -117.5t24.5 -62t54.5 -25l-8 -36q-40 0 -80.5 -38.5t-45.5 -100.5q-2 -20 -2 -63
t-2 -62q-5 -83 -48 -128t-149 -45z" />
    <glyph glyph-name="asciitilde" unicode="~" horiz-adv-x="591" 
d="M79 317l6 37q6 7 17.5 16.5t51.5 26t84 16.5q36 0 61.5 -10t41 -24.5l30 -29t37.5 -24.5t55 -10q35 0 65.5 10.5t43.5 21.5l13 11l-5 -33q-5 -6 -15 -14.5t-45 -23t-75 -14.5q-33 0 -57 10t-39 24.5l-30 28.5t-39.5 24t-58.5 10q-39 0 -74.5 -13t-51.5 -27z" />
    <glyph glyph-name="uni00A0" unicode="&#xa0;" horiz-adv-x="269" 
 />
    <glyph glyph-name="currency" unicode="&#xa4;" horiz-adv-x="568" 
d="M190 277q0 -49 25.5 -78t70.5 -29q65 0 109.5 51t44.5 130q0 49 -25 77.5t-70 28.5q-63 0 -109 -50.5t-46 -129.5zM30 76l137 125q-15 30 -15 70q0 97 61 161l-84 123l34 30l80 -127q51 35 109 35q55 0 90 -37l138 128l19 -30l-139 -125q17 -32 17 -74q0 -95 -59 -159
l82 -121l-34 -30l-78 124q-49 -35 -109 -35q-58 0 -94 39l-134 -127z" />
    <glyph glyph-name="section" unicode="&#xa7;" horiz-adv-x="454" 
d="M134 290q0 -47 22 -92.5t53 -93t43 -80.5q104 53 104 186q0 47 -22 92.5t-52.5 92.5t-42.5 80q-24 -12 -44.5 -29.5t-40.5 -59.5t-20 -96zM74 -196q68 0 106 41t38 105q0 36 -19.5 78t-43.5 75.5t-43.5 82t-19.5 96.5q0 56 16.5 100.5t42.5 70t44 37.5t35 19q-2 9 -2 29
q0 88 49.5 140.5t135.5 52.5l4 -36q-68 0 -106.5 -40.5t-38.5 -104.5q0 -36 20 -78t43.5 -75.5t43.5 -82t20 -96.5q0 -56 -16.5 -101t-42 -70t-44 -37t-36.5 -19q3 -13 3 -30q0 -87 -49.5 -139.5t-135.5 -52.5z" />
    <glyph glyph-name="copyright" unicode="&#xa9;" horiz-adv-x="768" 
d="M270 287q0 100 54.5 164.5t146.5 64.5q21 0 39.5 -2t26.5 -4l8 -3l-11 -33q-28 7 -68 7q-74 0 -115 -52.5t-41 -132.5q0 -50 26.5 -79t69.5 -29q16 0 34 3t28 5l9 3l-2 -32q-36 -15 -80 -15q-57 0 -91 36t-34 99zM143 255q0 -107 54 -168t157 -61q129 0 216 84t117 229
q11 57 11 99q0 102 -54 159t-158 57q-156 0 -249.5 -113t-93.5 -286zM103 248q0 191 107 317t284 126q120 0 182 -65t62 -179q0 -49 -12 -108q-33 -160 -133 -255t-248 -95q-118 0 -180 69.5t-62 189.5z" />
    <glyph glyph-name="guillemotleft" unicode="&#xab;" horiz-adv-x="482" 
d="M225 250l192 168l17 -27l-160 -141l100 -146l-31 -28zM66 250l192 168l17 -27l-160 -141l100 -146l-31 -28z" />
    <glyph glyph-name="uni00AD" unicode="&#xad;" horiz-adv-x="300" 
d="M26 261l9 37h217l-9 -37h-217z" />
    <glyph glyph-name="registered" unicode="&#xae;" horiz-adv-x="690" 
d="M338 393h49q45 0 74.5 21t29.5 68q0 48 -75 48h-48zM280 244l60 286l6 25h75q96 0 96 -66q0 -101 -99 -117l43 -129h-32l-40 126h-8h-48l-26 -125h-27zM150 330q0 -91 49 -142.5t139 -51.5q135 0 217 90.5t82 237.5q0 93 -49 145t-140 52q-134 0 -216 -92t-82 -239z
M118 324q0 161 92.5 264t244.5 103q103 0 159 -59t56 -161q0 -162 -92.5 -263.5t-246.5 -101.5q-103 0 -158 58t-55 160z" />
    <glyph glyph-name="degree" unicode="&#xb0;" horiz-adv-x="426" 
d="M159 469q0 -50 25 -79t71 -29q69 0 113 53.5t44 135.5q0 50 -25 79.5t-70 29.5q-70 0 -114 -53.5t-44 -136.5zM123 463q0 99 56.5 163.5t144.5 64.5q58 0 90.5 -37t32.5 -100q0 -98 -56 -161t-143 -63q-60 0 -92.5 35.5t-32.5 97.5z" />
    <glyph glyph-name="paragraph" unicode="&#xb6;" horiz-adv-x="611" 
d="M110 402q0 248 300 248h246l-8 -37h-59l-128 -613h-44l128 613h-108l-129 -613h-42l52 251q-104 0 -156 35.5t-52 115.5z" />
    <glyph glyph-name="periodcentered" unicode="&#xb7;" horiz-adv-x="225" 
d="M84 302q-5 7 -5 14q0 16 14 25q10 7 22 7q11 0 17 -7q5 -7 5 -14q0 -16 -13 -25q-10 -7 -22 -7q-11 0 -18 7z" />
    <glyph glyph-name="guillemotright" unicode="&#xbb;" horiz-adv-x="482" 
d="M172 103l160 142l-99 145l30 28l118 -174l-190 -168zM13 103l160 142l-99 145l30 28l118 -174l-190 -168z" />
    <glyph glyph-name="uni0400" unicode="&#x400;" horiz-adv-x="607" 
d="M413 894l36 2l14 -106l-37 -2zM85 0l148 702h373l-9 -36h-328l-62 -293h307l-8 -37h-307l-63 -300h361l-8 -36h-404z" />
    <glyph glyph-name="afii10023" unicode="&#x401;" horiz-adv-x="608" 
d="M503 853q0 12 9 19.5t20 7.5q19 0 19 -18q0 -12 -8.5 -19.5t-20.5 -7.5q-19 0 -19 18zM359 853q0 12 9 19.5t20 7.5q19 0 19 -18q0 -12 -8.5 -19.5t-20.5 -7.5q-19 0 -19 18zM85 0l148 702h373l-9 -36h-328l-62 -293h307l-8 -37h-307l-63 -300h361l-8 -36h-404z" />
    <glyph glyph-name="afii10051" unicode="&#x402;" horiz-adv-x="692" 
d="M107 666l9 36h440l-9 -36h-198l-58 -276h2q76 33 176 33q84 0 128 -34.5t44 -100.5q0 -24 -6 -52l-55 -262q-21 -101 -69 -153t-136 -52l-4 36q73 0 111.5 45t57.5 133l51 245q5 27 5 45q0 114 -145 114q-80 0 -168 -35l-73 -352h-43l139 666h-199z" />
    <glyph glyph-name="afii10052" unicode="&#x403;" horiz-adv-x="448" 
d="M351 787l62 109l38 -2l-61 -109zM85 0l148 702h322l-9 -35h-278l-140 -667h-43z" />
    <glyph glyph-name="afii10053" unicode="&#x404;" horiz-adv-x="650" 
d="M100 263q0 201 116 325t297 124q46 0 90.5 -6t66.5 -12l22 -7l-12 -37q-77 26 -171 26q-135 0 -232.5 -84.5t-124.5 -224.5h401l-8 -36h-398q-3 -29 -3 -59q0 -115 64 -180t178 -65q44 0 86.5 6t62.5 12l20 6l-5 -36q-64 -25 -177 -25q-130 0 -201.5 72.5t-71.5 200.5z
" />
    <glyph glyph-name="afii10054" unicode="&#x405;" horiz-adv-x="566" 
d="M50 25l16 37q72 -36 177 -36t164 55t59 131q0 36 -22 61t-55 37.5l-72 27.5t-72 30t-55 46.5t-22 76.5q0 100 67.5 160.5t183.5 60.5q46 0 85.5 -8.5t55.5 -17.5l16 -8l-16 -36q-58 34 -149 34q-93 0 -145.5 -48t-52.5 -126q0 -44 30.5 -73t74.5 -44l88 -31.5t74.5 -49
t30.5 -82.5q0 -99 -74 -165.5t-203 -66.5q-52 0 -98 9t-66 17z" />
    <glyph glyph-name="afii10055" unicode="&#x406;" horiz-adv-x="283" 
d="M85 0l148 702h43l-148 -702h-43z" />
    <glyph glyph-name="afii10056" unicode="&#x407;" horiz-adv-x="283" 
d="M333 853q0 12 9 19.5t20 7.5q19 0 19 -18q0 -12 -8.5 -19.5t-20.5 -7.5q-19 0 -19 18zM189 853q0 12 9 19.5t20 7.5q19 0 19 -18q0 -12 -8.5 -19.5t-20.5 -7.5q-19 0 -19 18zM85 0l148 702h43l-148 -702h-43z" />
    <glyph glyph-name="afii10057" unicode="&#x408;" horiz-adv-x="284" 
d="M-87 -195q72 0 111 45.5t58 132.5l152 719h43l-154 -728q-21 -101 -70 -153t-136 -52z" />
    <glyph glyph-name="afii10058" unicode="&#x409;" horiz-adv-x="979" 
d="M523 32q64 -6 125 -6q126 0 185.5 61.5t59.5 162.5q0 129 -176 129h-121zM-1 28q46 0 91 53.5t84 149.5t72.5 212.5t63.5 258.5h355l-61 -287h121q213 0 213 -156q0 -121 -71.5 -195t-228.5 -74q-41 0 -82 2.5t-62 5.5l-20 2l140 667h-269q-29 -139 -66 -258t-80 -215
t-94 -150.5t-103 -54.5z" />
    <glyph glyph-name="afii10059" unicode="&#x40a;" horiz-adv-x="1024" 
d="M568 32q64 -6 125 -6q126 0 185.5 61.5t59.5 162.5q0 129 -176 129h-121zM85 0l148 702h43l-72 -338h391l72 338h43l-61 -287h121q213 0 213 -156q0 -121 -71.5 -195t-228.5 -74q-41 0 -82 2.5t-61 5.5l-21 2l69 328h-391l-69 -328h-43z" />
    <glyph glyph-name="afii10060" unicode="&#x40b;" horiz-adv-x="732" 
d="M107 666l9 36h440l-9 -36h-198l-58 -276h2q76 33 176 33q84 0 128 -34.5t44 -100.5q0 -24 -6 -52l-50 -236h-42l48 228q5 27 5 45q0 114 -145 114q-80 0 -168 -35l-73 -352h-43l139 666h-199z" />
    <glyph glyph-name="afii10061" unicode="&#x40c;" horiz-adv-x="634" 
d="M400 787l62 109l38 -2l-61 -109zM85 0l148 702h43l-69 -324h103l340 324h47l-356 -343l231 -359h-50l-222 342h-100l-72 -342h-43z" />
    <glyph glyph-name="uni040D" unicode="&#x40d;" horiz-adv-x="726" 
d="M463 894l36 2l14 -106l-37 -2zM85 0l148 702h43l-131 -626l-7 -16l535 637l4 5h41l-1 -2l2 2l-148 -702h-43l131 625l6 17h-1l-534 -637l-3 -5h-42z" />
    <glyph glyph-name="afii10062" unicode="&#x40e;" horiz-adv-x="596" 
d="M329 836l16 33q3 -4 9 -10t36 -16t72 -10t75 9t45 18l12 9l1 -33q-4 -4 -13.5 -10.5t-46 -17t-82.5 -10.5t-77 9.5t-39 18.5zM132 26q53 0 93 33t80 92l-172 551h48l156 -507l305 507h47l-333 -547q-47 -76 -99.5 -120.5t-122.5 -44.5z" />
    <glyph glyph-name="afii10145" unicode="&#x40f;" horiz-adv-x="699" 
d="M85 0l148 702h43l-140 -667h372l141 667h43l-149 -702h-210l-37 -170h-36l34 170h-209z" />
    <glyph glyph-name="afii10017" unicode="&#x410;" horiz-adv-x="622" 
d="M175 241h303l-64 418zM-6 0l404 702h53l107 -702h-44l-31 205h-329l-117 -205h-43z" />
    <glyph glyph-name="afii10018" unicode="&#x411;" horiz-adv-x="590" 
d="M134 32q64 -6 125 -6q128 0 188 61.5t60 162.5q0 129 -179 129h-121zM85 0l148 702h335l-8 -36h-292l-53 -251h121q213 0 213 -156q0 -121 -71.5 -195t-228.5 -74q-39 0 -80 2.5t-63 5.5z" />
    <glyph glyph-name="afii10019" unicode="&#x412;" horiz-adv-x="602" 
d="M208 382h173q22 1 47 10.5t51 29t43 56t17 83.5q0 55 -36.5 85t-105.5 30q-64 0 -128 -6zM134 32q62 -6 125 -6q136 0 191.5 53.5t55.5 151.5q0 57 -35 86t-101 29h-169zM85 0l148 702q75 10 168 10q90 0 136 -36t46 -104q0 -138 -122 -201q90 -29 90 -131
q0 -116 -68 -183t-236 -67q-41 0 -81.5 2.5t-60.5 5.5z" />
    <glyph glyph-name="afii10020" unicode="&#x413;" horiz-adv-x="448" 
d="M85 0l148 702h322l-9 -35h-278l-140 -667h-43z" />
    <glyph glyph-name="afii10021" unicode="&#x414;" horiz-adv-x="679" 
d="M105 35h373l133 632h-271q-43 -194 -107.5 -367t-127.5 -265zM-22 -172l44 207h40q63 89 132 276t113 391h355l-141 -667h73l-44 -207h-38l36 172h-498l-35 -172h-37z" />
    <glyph glyph-name="afii10022" unicode="&#x415;" horiz-adv-x="607" 
d="M85 0l148 702h373l-9 -36h-328l-62 -293h307l-8 -37h-307l-63 -300h361l-8 -36h-404z" />
    <glyph glyph-name="afii10024" unicode="&#x416;" horiz-adv-x="929" 
d="M-8 0l327 362l-168 340h50l159 -317h111l67 317h43l-67 -317h109l311 317h50l-325 -332l207 -370h-50l-199 349h-111l-73 -349h-43l73 349h-110l-311 -349h-50z" />
    <glyph glyph-name="afii10025" unicode="&#x417;" horiz-adv-x="539" 
d="M26 15l12 35q51 -24 164 -24q116 0 177.5 57t61.5 137q0 54 -38.5 87t-106.5 33h-104l8 37h106q53 0 118.5 53.5t65.5 132.5q0 53 -38.5 83t-115.5 30q-39 0 -77.5 -6t-56.5 -12l-19 -6l4 37q63 23 160 23q94 0 140.5 -36.5t46.5 -101.5q0 -73 -45 -126.5t-107 -82.5
q50 -15 77 -51t27 -86q0 -99 -75 -168.5t-216 -69.5q-57 0 -99.5 6t-55.5 12z" />
    <glyph glyph-name="afii10026" unicode="&#x418;" horiz-adv-x="726" 
d="M85 0l148 702h43l-131 -626l-7 -16l535 637l4 5h41l-1 -2l2 2l-148 -702h-43l131 625l6 17h-1l-534 -637l-3 -5h-42z" />
    <glyph glyph-name="afii10027" unicode="&#x419;" horiz-adv-x="726" 
d="M369 836l16 33q3 -4 9 -10t36 -16t72 -10t75 9t45 18l12 9l1 -33q-4 -4 -13.5 -10.5t-46 -17t-82.5 -10.5t-77 9.5t-39 18.5zM85 0l148 702h43l-131 -626l-7 -16l535 637l4 5h41l-1 -2l2 2l-148 -702h-43l131 625l6 17h-1l-534 -637l-3 -5h-42z" />
    <glyph glyph-name="afii10028" unicode="&#x41a;" horiz-adv-x="634" 
d="M85 0l148 702h43l-69 -324h103l340 324h47l-356 -343l231 -359h-50l-222 342h-100l-72 -342h-43z" />
    <glyph glyph-name="afii10029" unicode="&#x41b;" horiz-adv-x="673" 
d="M-1 28q46 0 91 53.5t84 149.5t72.5 212.5t63.5 258.5h354l-147 -702h-43l141 667h-270q-29 -139 -66 -258t-80 -215t-94 -150.5t-103 -54.5z" />
    <glyph glyph-name="afii10030" unicode="&#x41c;" horiz-adv-x="916" 
d="M85 0l148 702l1 -3v3h53l176 -505l386 505h60l-148 -702h-43l133 637l-375 -487h-44l-171 487l-133 -637h-43z" />
    <glyph glyph-name="afii10031" unicode="&#x41d;" horiz-adv-x="718" 
d="M85 0l148 702h43l-72 -338h392l72 338h42l-148 -702h-43l69 328h-391l-69 -328h-43z" />
    <glyph glyph-name="afii10032" unicode="&#x41e;" horiz-adv-x="761" 
d="M144 261q0 -111 54 -172.5t153 -61.5q152 0 247.5 113t95.5 297q0 113 -54 176t-153 63q-149 0 -246 -116t-97 -299zM99 255q0 202 111.5 329.5t284.5 127.5q116 0 180 -71.5t64 -196.5q0 -204 -110.5 -329t-286.5 -125q-115 0 -179 70.5t-64 194.5z" />
    <glyph glyph-name="afii10033" unicode="&#x41f;" horiz-adv-x="699" 
d="M85 0l148 702h459l-149 -702h-42l139 667h-372l-140 -667h-43z" />
    <glyph glyph-name="afii10034" unicode="&#x420;" horiz-adv-x="548" 
d="M190 295h94q61 0 113.5 24t89 82t36.5 141q0 67 -41 100.5t-116 33.5q-33 0 -98 -5zM85 0l148 702q61 10 142 10q192 0 192 -160q0 -75 -25.5 -133.5t-67.5 -92.5t-90.5 -51.5t-99.5 -17.5h-102l-54 -257h-43z" />
    <glyph glyph-name="afii10035" unicode="&#x421;" horiz-adv-x="622" 
d="M100 263q0 200 116 324.5t297 124.5q46 0 91 -6t66 -12l22 -7l-12 -37q-79 26 -173 26q-158 0 -260.5 -113t-102.5 -291q0 -116 62.5 -180.5t177.5 -64.5q41 0 83.5 5.5t64.5 11.5l23 6l-5 -36q-72 -24 -176 -24q-133 0 -203.5 72t-70.5 201z" />
    <glyph glyph-name="afii10036" unicode="&#x422;" horiz-adv-x="446" 
d="M108 667l8 35h440l-9 -35h-198l-139 -667h-43l139 667h-198z" />
    <glyph glyph-name="afii10037" unicode="&#x423;" horiz-adv-x="596" 
d="M132 26q53 0 93 33t80 92l-172 551h48l156 -507l305 507h47l-333 -547q-47 -76 -99.5 -120.5t-122.5 -44.5z" />
    <glyph glyph-name="afii10038" unicode="&#x424;" horiz-adv-x="812" 
d="M417 124q165 1 246.5 68t81.5 218q0 89 -58 127.5t-175 39.5zM144 291q0 -88 57.5 -127t173.5 -40l96 454q-164 -1 -245.5 -69t-81.5 -218zM99 284q0 327 379 330l19 88h42l-19 -88q131 -1 200 -47.5t69 -150.5q0 -171 -97.5 -249t-282.5 -79l-18 -88h-42l18 88
q-268 2 -268 196z" />
    <glyph glyph-name="afii10039" unicode="&#x425;" horiz-adv-x="625" 
d="M-6 0l332 352l-178 350h49l163 -320l296 320h48l-325 -350l-1 -1l184 -351h-49l-168 322l-301 -322h-50z" />
    <glyph glyph-name="afii10040" unicode="&#x426;" horiz-adv-x="709" 
d="M85 0l148 702h43l-140 -667h372l141 667h43l-142 -667h74l-45 -207h-37l36 172h-493z" />
    <glyph glyph-name="afii10041" unicode="&#x427;" horiz-adv-x="636" 
d="M151 432l57 270h42l-55 -263q-6 -30 -6 -53q0 -52 30.5 -76.5t94.5 -24.5q108 0 194 47l78 370h43l-148 -702h-42l62 299q-100 -50 -210 -50q-147 0 -147 121q0 30 7 62z" />
    <glyph glyph-name="afii10042" unicode="&#x428;" horiz-adv-x="962" 
d="M85 0l148 702h43l-140 -667h297l141 667h43l-141 -667h295l141 667h43l-148 -702h-722z" />
    <glyph glyph-name="afii10043" unicode="&#x429;" horiz-adv-x="972" 
d="M85 0l148 702h43l-140 -667h297l141 667h43l-141 -667h295l141 667h43l-141 -667h73l-46 -207h-36l36 172h-756z" />
    <glyph glyph-name="afii10044" unicode="&#x42a;" horiz-adv-x="687" 
d="M231 32q64 -6 125 -6q126 0 185.5 61.5t59.5 162.5q0 129 -176 129h-121zM107 666l9 36h257l-61 -287h121q213 0 213 -156q0 -121 -71.5 -195t-228.5 -74q-41 0 -82 2.5t-62 5.5l-20 2l140 666h-215z" />
    <glyph glyph-name="afii10045" unicode="&#x42b;" horiz-adv-x="839" 
d="M640 0l148 702h43l-148 -702h-43zM134 32q64 -6 125 -6q126 0 185.5 61.5t59.5 162.5q0 129 -176 129h-121zM85 0l148 702h43l-61 -287h121q213 0 213 -156q0 -121 -71.5 -195t-228.5 -74q-41 0 -82 2.5t-61 5.5z" />
    <glyph glyph-name="afii10046" unicode="&#x42c;" horiz-adv-x="590" 
d="M134 32q64 -6 125 -6q126 0 185.5 61.5t59.5 162.5q0 129 -176 129h-121zM85 0l148 702h43l-61 -287h121q213 0 213 -156q0 -121 -71.5 -195t-228.5 -74q-41 0 -82 2.5t-61 5.5z" />
    <glyph glyph-name="afii10047" unicode="&#x42d;" horiz-adv-x="619" 
d="M26 15l12 35q51 -24 164 -24q130 0 223 83t118 231h-351l8 37h348q4 42 4 65q0 111 -53.5 172.5t-158.5 61.5q-40 0 -78 -6t-56 -12l-19 -6l4 37q62 23 159 23q121 0 184 -71t63 -196q0 -206 -111.5 -330.5t-288.5 -124.5q-57 0 -100 6t-57 12z" />
    <glyph glyph-name="afii10048" unicode="&#x42e;" horiz-adv-x="1021" 
d="M403 261q0 -111 54.5 -172.5t153.5 -61.5q151 0 247 113t96 297q0 112 -54 175.5t-154 63.5q-150 0 -246.5 -116t-96.5 -299zM85 0l148 702h43l-72 -338h165q29 158 133.5 253t252.5 95q116 0 180 -71.5t64 -196.5q0 -203 -111 -328.5t-286 -125.5q-116 0 -179.5 70
t-63.5 195q0 41 4 73h-166l-69 -328h-43z" />
    <glyph glyph-name="afii10049" unicode="&#x42f;" horiz-adv-x="600" 
d="M175 462q0 -63 38 -99.5t89 -36.5h168l72 343q-82 7 -129 7q-102 0 -170 -59.5t-68 -154.5zM34 0l208 295q-48 14 -79.5 55.5t-31.5 104.5q0 116 82.5 186.5t207.5 70.5q34 0 76.5 -2.5t68.5 -5.5l26 -2l-148 -702h-42l61 290h-180l-201 -290h-48z" />
    <glyph glyph-name="afii10065" unicode="&#x430;" 
d="M100 184q0 -75 32.5 -116.5t89.5 -41.5q82 0 154 62l78 371q-39 16 -114 16q-65 0 -113 -23.5t-75 -65t-39.5 -91.5t-12.5 -111zM56 174q0 152 71.5 245t221.5 93q44 0 82.5 -6t54.5 -12l17 -5l-88 -412v-3q0 -24 18.5 -38t48.5 -14l-19 -32q-43 0 -67 16t-26 42
q-9 -9 -26.5 -20t-57 -24.5t-79.5 -13.5q-72 0 -111.5 48t-39.5 136z" />
    <glyph glyph-name="afii10066" unicode="&#x431;" horiz-adv-x="516" 
d="M103 192q0 -79 37 -122.5t101 -43.5q97 0 153 84t56 199q0 67 -33.5 105.5t-101.5 38.5q-92 0 -182 -57q-30 -102 -30 -204zM60 194q0 89 25 183t69 173t112 130t147 51h125l-8 -37h-116q-90 0 -159 -72.5t-110 -186.5h5q9 6 24.5 15t64.5 24t97 15q76 0 118 -45.5
t42 -124.5q0 -136 -71.5 -232.5t-187.5 -96.5q-86 0 -131.5 52.5t-45.5 151.5z" />
    <glyph glyph-name="afii10067" unicode="&#x432;" horiz-adv-x="463" 
d="M145 275h155q9 0 13 -1q95 33 95 123q0 78 -118 78q-46 0 -105 -11zM95 35q65 -9 108 -9q83 0 129.5 37t46.5 98q0 36 -26 57t-70 21h-145zM48 8l101 484q64 20 148 20q152 0 152 -102q0 -98 -94 -145q66 -25 66 -97q0 -81 -57.5 -129.5t-169.5 -48.5q-34 0 -70.5 4.5
t-55.5 9.5z" />
    <glyph glyph-name="afii10068" unicode="&#x433;" horiz-adv-x="404" 
d="M43 93q0 46 32 83.5t78.5 62l92.5 47t78 52t32 64.5q0 73 -111 73q-32 0 -63.5 -4.5t-47.5 -8.5l-15 -4l1 33q54 20 144 20q64 0 98 -26.5t34 -76.5q0 -46 -32 -83.5t-78 -62l-92 -47t-78 -51.5t-32 -64q0 -74 102 -74q34 0 65.5 7t46.5 14l14 7l-1 -34q-42 -30 -136 -30
q-63 0 -97.5 27t-34.5 76z" />
    <glyph glyph-name="afii10069" unicode="&#x434;" horiz-adv-x="509" 
d="M100 195q0 -79 36 -124t103 -45q90 0 148.5 102.5t73.5 267.5q-7 6 -19 15.5t-50 25.5t-76 16q-109 0 -162.5 -68.5t-53.5 -189.5zM57 189q0 137 65.5 219t186.5 82q41 0 79.5 -14t55.5 -28l18 -13h2q2 42 2 65q0 102 -30 148t-91 46h-106l7 37h107q76 0 113.5 -55.5
t37.5 -173.5q0 -142 -28.5 -255t-91.5 -185t-153 -72q-84 0 -129 54t-45 145z" />
    <glyph glyph-name="afii10070" unicode="&#x435;" horiz-adv-x="453" 
d="M108 279h147q83 0 121 21t38 76q0 39 -29.5 69t-79.5 30q-72 0 -125.5 -53.5t-71.5 -142.5zM55 175q0 148 72 242.5t183 94.5q69 0 108 -40t39 -95q0 -71 -48.5 -103t-147.5 -32h-158q-4 -23 -4 -50q0 -76 39 -121t108 -45q34 0 65.5 7t46.5 14l14 7l-1 -34
q-42 -30 -136 -30q-75 0 -127.5 48.5t-52.5 136.5z" />
    <glyph glyph-name="afii10072" unicode="&#x436;" horiz-adv-x="637" 
d="M-21 0l222 259l-107 241h45l103 -223h79l47 223h41l-47 -223h74l210 223h47l-222 -240l116 -260h-45l-111 241h-77l-50 -241h-41l50 241h-75l-212 -241h-47z" />
    <glyph glyph-name="afii10073" unicode="&#x437;" horiz-adv-x="415" 
d="M6 19l15 33q32 -26 119 -26q85 0 137.5 34t52.5 100q0 36 -28.5 58t-77.5 22h-99l9 36h100q6 0 23.5 5.5t42 17t42.5 37t18 58.5q0 37 -32.5 59t-94.5 22q-33 0 -65 -4.5t-48 -8.5l-15 -4l1 33q54 21 144 21q76 0 115 -28t39 -77q0 -96 -106 -142q34 -11 54 -36.5
t20 -61.5q0 -86 -61.5 -131.5t-170.5 -45.5q-48 0 -81.5 7t-42.5 15z" />
    <glyph glyph-name="afii10074" unicode="&#x438;" 
d="M70 146l74 354h41l-72 -346q-4 -22 -4 -32q0 -46 31 -71t82 -25q38 0 76.5 16t53.5 27.5t23 19.5l87 411h42l-87 -413q-2 -10 -2 -14q0 -24 18.5 -37.5t48.5 -13.5l-19 -32q-42 0 -66 15.5t-27 41.5q-10 -9 -26.5 -20t-55 -24t-79.5 -13q-65 0 -104 30t-39 87q0 20 4 39z
" />
    <glyph glyph-name="afii10075" unicode="&#x439;" 
d="M229 645l16 32q2 -4 9.5 -10.5t37 -15.5t70.5 -9q42 0 75 9t45 18l12 9l1 -33q-4 -4 -13.5 -10.5t-46 -17t-82.5 -10.5t-77 9.5t-39 19.5zM70 146l74 354h41l-72 -346q-4 -22 -4 -32q0 -46 31 -71t82 -25q38 0 76.5 16t53.5 27.5t23 19.5l87 411h42l-87 -413
q-2 -10 -2 -14q0 -24 18.5 -37.5t48.5 -13.5l-19 -32q-42 0 -66 15.5t-27 41.5q-10 -9 -26.5 -20t-55 -24t-79.5 -13q-65 0 -104 30t-39 87q0 20 4 39z" />
    <glyph glyph-name="afii10076" unicode="&#x43a;" horiz-adv-x="433" 
d="M47 0l105 500h42l-47 -220h90l201 220h48l-214 -238l119 -262h-49l-109 244h-93l-51 -244h-42z" />
    <glyph glyph-name="afii10077" unicode="&#x43b;" horiz-adv-x="504" 
d="M-11 22q48 0 89.5 53t70 138t45 152.5t27.5 134.5h271l-105 -500h-42l97 464h-189q-8 -41 -16.5 -79.5t-24.5 -97.5t-37 -107.5t-47.5 -93.5t-61 -70.5t-73.5 -25.5z" />
    <glyph glyph-name="afii10078" unicode="&#x43c;" horiz-adv-x="647" 
d="M47 0l105 500h58l109 -359l257 359h59l-105 -500h-42l89 429l4 16l-254 -351h-37l-110 349l-3 -14l-88 -429h-42z" />
    <glyph glyph-name="afii10079" unicode="&#x43d;" horiz-adv-x="522" 
d="M47 0l105 500h42l-47 -224h275l47 224h41l-105 -500h-41l50 240h-275l-50 -240h-42z" />
    <glyph glyph-name="afii10080" unicode="&#x43e;" horiz-adv-x="523" 
d="M100 183q0 -75 33 -116.5t99 -41.5q111 0 169.5 84.5t58.5 214.5q0 72 -33.5 111.5t-100.5 39.5q-110 0 -168 -80.5t-58 -211.5zM57 177q0 153 71.5 243.5t204.5 90.5q84 0 127.5 -46t43.5 -131q0 -153 -73 -249t-205 -96q-83 0 -126 49t-43 139z" />
    <glyph glyph-name="afii10081" unicode="&#x43f;" horiz-adv-x="515" 
d="M47 0l103 489q63 23 186 23q73 0 111.5 -29t38.5 -86q0 -18 -5 -43l-75 -354h-41l72 346q4 17 4 37q0 92 -122 92q-38 0 -71 -4t-46.5 -7t-17.5 -5l-95 -459h-42z" />
    <glyph glyph-name="afii10082" unicode="&#x440;" horiz-adv-x="517" 
d="M103 72q5 -7 15 -15t39.5 -19.5t65.5 -11.5q105 0 168.5 86.5t63.5 214.5q0 148 -152 148q-75 0 -118 -16zM0 -220l150 709q55 23 160 23q190 0 190 -175q0 -148 -77.5 -247.5t-201.5 -99.5q-40 0 -70.5 10.5t-41.5 21.5l-11 10h-3l-53 -252h-42z" />
    <glyph glyph-name="afii10083" unicode="&#x441;" horiz-adv-x="420" 
d="M57 180q0 157 81 244.5t207 87.5q38 0 68 -5t41 -11l11 -5l-13 -33q-39 17 -111 17q-105 0 -172.5 -75t-67.5 -209q0 -82 39 -123.5t108 -41.5q37 0 66.5 7t41.5 14l11 7v-34q-3 -3 -11 -8t-42 -13.5t-79 -8.5q-84 0 -131 47t-47 143z" />
    <glyph glyph-name="afii10084" unicode="&#x442;" horiz-adv-x="734" 
d="M47 0l103 489q72 23 174 23q97 0 117 -47q66 47 158 47q111 0 111 -88q0 -20 -6 -47l-79 -377h-42l77 371q4 19 4 37q0 37 -22 52t-66 15q-38 0 -69.5 -10.5t-43.5 -19t-17 -14.5q-1 -2 -1 -6l-89 -425h-41l87 419q1 3 1 10q0 46 -93 46q-86 0 -126 -16l-95 -459h-42z
" />
    <glyph glyph-name="afii10085" unicode="&#x443;" horiz-adv-x="451" 
d="M-17 -195q32 0 62.5 16.5t57 48.5t45.5 61.5t42 71.5l-106 497h47l93 -445l236 445h46l-271 -500q-27 -49 -50.5 -85t-55.5 -72t-68 -55t-75 -19z" />
    <glyph glyph-name="afii10086" unicode="&#x444;" horiz-adv-x="634" 
d="M308 25h11q130 0 191 83t61 216q0 151 -158 151h-10zM101 187q0 -162 155 -162h10l96 450h-13q-130 0 -189 -77.5t-59 -210.5zM57 177q0 156 73.5 245t227.5 89l11 -1l15 68q16 79 53.5 116t107.5 37l5 -36q-56 0 -84.5 -29.5t-42.5 -94.5l-13 -60h12q192 0 192 -177
q0 -156 -74 -250.5t-229 -94.5l-10 1l-44 -210h-43l44 209h-11q-190 0 -190 188z" />
    <glyph glyph-name="afii10087" unicode="&#x445;" horiz-adv-x="446" 
d="M-25 0l237 252l-126 248h49l112 -220l203 220h49l-231 -247l132 -253h-49l-116 227l-211 -227h-49z" />
    <glyph glyph-name="afii10088" unicode="&#x446;" 
d="M70 146l74 354h41l-72 -346q-4 -19 -4 -38q0 -90 123 -90q77 0 133 14l97 460h42l-96 -454l70 14l-51 -229h-39l40 187l-27 -7l-3 -1q-2 0 -6.5 -1.5t-10.5 -3t-15 -3.5t-20 -3.5t-24.5 -3t-28.5 -3t-33.5 -2t-38.5 -0.5q-156 0 -156 109q0 26 5 47z" />
    <glyph glyph-name="afii10089" unicode="&#x447;" horiz-adv-x="461" 
d="M86 328l37 172h43l-33 -160q-5 -25 -5 -40q0 -69 81 -69q88 0 148 30l51 239h42l-106 -500h-41l47 224q-8 -4 -24 -9.5t-56.5 -13t-83.5 -7.5q-105 0 -105 90q0 17 5 44z" />
    <glyph glyph-name="afii10090" unicode="&#x448;" horiz-adv-x="737" 
d="M70 123l78 377h42l-77 -371q-4 -19 -4 -37q0 -37 22 -52t66 -15q86 0 129 43q0 4 1 7l90 425h41l-87 -419q-1 -3 -1 -10q0 -46 93 -46q65 0 125 15l97 460h41l-102 -489q-73 -23 -175 -23q-97 0 -119 46q-65 -46 -156 -46q-55 0 -82.5 20.5t-27.5 67.5q0 20 6 47z" />
    <glyph glyph-name="afii10091" unicode="&#x449;" horiz-adv-x="755" 
d="M70 123l78 377h42l-77 -371q-4 -19 -4 -37q0 -37 22 -52t66 -15q86 0 129 43q0 4 1 7l90 425h41l-87 -419q-1 -3 -1 -10q0 -46 93 -46q65 0 125 15l97 460h41l-95 -454l69 14l-50 -229h-40l40 187l-26 -7q-73 -23 -175 -23q-97 0 -119 46q-65 -46 -156 -46
q-55 0 -82.5 20.5t-27.5 67.5q0 20 6 47z" />
    <glyph glyph-name="afii10092" unicode="&#x44a;" horiz-adv-x="528" 
d="M174 36q54 -10 106 -10q82 0 131.5 42.5t49.5 119.5q0 49 -35 73.5t-90 24.5h-109zM60 466l8 34h204l-38 -178h117q67 0 110 -31.5t43 -92.5q0 -96 -62.5 -152t-169.5 -56q-38 0 -74.5 4.5t-53.5 9.5l-18 4l97 458h-163z" />
    <glyph glyph-name="afii10093" unicode="&#x44b;" horiz-adv-x="645" 
d="M487 0l105 500h41l-105 -500h-41zM61 36q54 -10 106 -10q82 0 131.5 42.5t49.5 119.5q0 49 -35 73.5t-90 24.5h-109zM13 8l104 492h42l-38 -178h117q67 0 110 -31.5t43 -92.5q0 -96 -62.5 -152t-169.5 -56q-38 0 -74.5 4.5t-54.5 9.5z" />
    <glyph glyph-name="afii10094" unicode="&#x44c;" horiz-adv-x="451" 
d="M96 36q54 -10 106 -10q82 0 131.5 42.5t49.5 119.5q0 49 -35 73.5t-90 24.5h-109zM48 8l104 492h42l-38 -178h117q67 0 110 -31.5t43 -92.5q0 -96 -62.5 -152t-169.5 -56q-38 0 -74.5 4.5t-53.5 9.5z" />
    <glyph glyph-name="afii10095" unicode="&#x44d;" horiz-adv-x="457" 
d="M6 19l15 33q32 -26 126 -26q110 0 169 61t75 160l-3 -8h-263l8 36h261q2 28 2 44q0 75 -40 115.5t-117 40.5q-34 0 -67.5 -4.5t-49.5 -8.5l-17 -4l1 33q50 21 142 21q91 0 139.5 -49t48.5 -138q0 -146 -75.5 -240.5t-222.5 -94.5q-48 0 -81 7t-42 15z" />
    <glyph glyph-name="afii10096" unicode="&#x44e;" horiz-adv-x="690" 
d="M273 181q0 -74 32 -115t94 -41q111 0 169.5 84.5t58.5 214.5q0 72 -33.5 111.5t-100.5 39.5q-106 0 -163 -81.5t-57 -212.5zM47 0l105 500h42l-47 -224h92q21 110 88 172.5t173 62.5q84 0 127.5 -46t43.5 -131q0 -153 -73 -249t-205 -96q-80 0 -121.5 48.5t-41.5 137.5
q0 37 4 65h-95l-50 -240h-42z" />
    <glyph glyph-name="afii10097" unicode="&#x44f;" horiz-adv-x="462" 
d="M122 332q0 -86 108 -86h4l121 1l46 219q-58 9 -106 9q-84 0 -128.5 -38.5t-44.5 -104.5zM15 0l158 214q-94 17 -94 109q0 88 57 138.5t167 50.5q41 0 77.5 -5t52.5 -10l16 -5l-104 -492h-42l44 211l-127 -1h-7l-153 -210h-45z" />
    <glyph glyph-name="uni0450" unicode="&#x450;" horiz-adv-x="453" 
d="M108 279h147q83 0 121 21t38 76q0 39 -29.5 69t-79.5 30q-72 0 -125.5 -53.5t-71.5 -142.5zM55 175q0 148 72 242.5t183 94.5q69 0 108 -40t39 -95q0 -71 -48.5 -103t-147.5 -32h-158q-4 -23 -4 -50q0 -76 39 -121t108 -45q34 0 65.5 7t46.5 14l14 7l-1 -34
q-42 -30 -136 -30q-75 0 -127.5 48.5t-52.5 136.5zM310 702l36 2l14 -106l-37 -2z" />
    <glyph glyph-name="afii10071" unicode="&#x451;" horiz-adv-x="453" 
d="M108 279h147q83 0 121 21t38 76q0 39 -29.5 69t-79.5 30q-72 0 -125.5 -53.5t-71.5 -142.5zM55 175q0 148 72 242.5t183 94.5q69 0 108 -40t39 -95q0 -71 -48.5 -103t-147.5 -32h-158q-4 -23 -4 -50q0 -76 39 -121t108 -45q34 0 65.5 7t46.5 14l14 7l-1 -34
q-42 -30 -136 -30q-75 0 -127.5 48.5t-52.5 136.5zM389 654q0 12 9 19.5t20 7.5q19 0 19 -18q0 -12 -8.5 -19.5t-20.5 -7.5q-19 0 -19 18zM245 654q0 12 9 19.5t20 7.5q19 0 19 -18q0 -12 -8.5 -19.5t-20.5 -7.5q-19 0 -19 18z" />
    <glyph glyph-name="afii10099" unicode="&#x452;" horiz-adv-x="499" 
d="M49 0l119 569h-58l8 36h58l24 115h41l-24 -115h194l-8 -36h-194l-42 -202h3q6 5 16.5 12t48 18.5t80.5 11.5q151 0 151 -115q0 -17 -5 -42l-63 -300q-39 -183 -168 -183l-4 35q99 0 133 157l59 283q4 17 4 35q0 94 -123 94q-80 0 -141 -46l-68 -327h-41z" />
    <glyph glyph-name="afii10100" unicode="&#x453;" horiz-adv-x="404" 
d="M226 595l62 109l38 -2l-61 -109zM43 93q0 46 32 83.5t78.5 62l92.5 47t78 52t32 64.5q0 73 -111 73q-32 0 -63.5 -4.5t-47.5 -8.5l-15 -4l1 33q54 20 144 20q64 0 98 -26.5t34 -76.5q0 -46 -32 -83.5t-78 -62l-92 -47t-78 -51.5t-32 -64q0 -74 102 -74q34 0 65.5 7
t46.5 14l14 7l-1 -34q-42 -30 -136 -30q-63 0 -97.5 27t-34.5 76z" />
    <glyph glyph-name="afii10101" unicode="&#x454;" horiz-adv-x="443" 
d="M57 180q0 157 81 244.5t207 87.5q38 0 68 -5t41 -11l11 -5l-13 -33q-39 17 -111 17q-90 0 -153 -54t-81 -153h247l-10 -36h-242q-1 -13 -1 -41q0 -83 38.5 -124t107.5 -41q37 0 67 7t42 14l11 7v-34q-3 -3 -11 -8t-42 -13.5t-79 -8.5q-84 0 -131 47t-47 143z" />
    <glyph glyph-name="afii10102" unicode="&#x455;" horiz-adv-x="430" 
d="M27 19l15 34q48 -27 127 -27q85 0 127 36t42 89q0 29 -25 47.5t-61 29t-71.5 22t-60.5 36t-25 62.5q0 73 57 118.5t143 45.5q36 0 67.5 -5t44.5 -11l13 -5l-13 -33q-45 17 -114 17q-65 0 -110 -33t-45 -85q0 -30 25 -48.5t61 -29t71.5 -22.5t60.5 -36t25 -62
q0 -71 -52.5 -120t-163.5 -49q-43 0 -77.5 7t-47.5 15z" />
    <glyph glyph-name="afii10103" unicode="&#x456;" horiz-adv-x="232" 
d="M180 656q0 13 10 21t22 8q21 0 21 -19q0 -13 -9.5 -21t-22.5 -8q-21 0 -21 19zM79 153l73 347h41l-70 -338q-7 -31 -7 -59q0 -77 78 -77l-20 -36q-103 0 -103 97q0 26 8 66z" />
    <glyph glyph-name="afii10104" unicode="&#x457;" horiz-adv-x="232" 
d="M254 654q0 12 9 19.5t20 7.5q19 0 19 -18q0 -12 -8.5 -19.5t-20.5 -7.5q-19 0 -19 18zM110 654q0 12 9 19.5t20 7.5q19 0 19 -18q0 -12 -8.5 -19.5t-20.5 -7.5q-19 0 -19 18zM79 153l73 347h41l-70 -338q-7 -31 -7 -59q0 -77 78 -77l-20 -36q-103 0 -103 97q0 26 8 66z
" />
    <glyph glyph-name="afii10105" unicode="&#x458;" horiz-adv-x="224" 
d="M194 656q0 13 10 21t22 8q21 0 21 -19q0 -13 -9.5 -21t-22.5 -8q-21 0 -21 19zM-80 -196q55 0 84 35t44 102l117 559h42l-120 -568q-16 -81 -55 -122t-109 -41z" />
    <glyph glyph-name="afii10106" unicode="&#x459;" horiz-adv-x="713" 
d="M358 36q54 -10 106 -10q82 0 131.5 42.5t49.5 119.5q0 49 -35 73.5t-90 24.5h-109zM-47 22q39 0 74 37.5t59.5 90.5t45.5 124t32 123t20 103h272l-38 -178h117q67 0 110 -31.5t43 -92.5q0 -96 -62.5 -152t-169.5 -56q-38 0 -74.5 4.5t-53.5 9.5l-18 4l96 456h-190
q-9 -49 -20 -98t-34.5 -121t-50.5 -125t-68 -91.5t-87 -38.5z" />
    <glyph glyph-name="afii10107" unicode="&#x45a;" horiz-adv-x="733" 
d="M378 36q54 -10 106 -10q82 0 131.5 42.5t49.5 119.5q0 49 -35 73.5t-90 24.5h-109zM12 0l105 500h42l-47 -224h274l48 224h42l-38 -178h117q67 0 110 -31.5t43 -92.5q0 -96 -62.5 -152t-169.5 -56q-38 0 -74.5 4.5t-53.5 9.5l-18 4l49 232h-275l-50 -240h-42z" />
    <glyph glyph-name="afii10108" unicode="&#x45b;" horiz-adv-x="499" 
d="M49 0l120 571h-58l7 36h58l24 113h41l-24 -113h194l-7 -36h-194l-43 -204h2q6 5 17 12t48.5 18.5t80.5 11.5q151 0 151 -115q0 -17 -5 -42l-53 -252h-42l52 244q4 17 4 35q0 94 -123 94q-80 0 -141 -46l-68 -327h-41z" />
    <glyph glyph-name="afii10109" unicode="&#x45c;" horiz-adv-x="433" 
d="M267 595l62 109l38 -2l-61 -109zM12 0l105 500h42l-47 -220h90l201 220h48l-214 -238l119 -262h-49l-109 244h-93l-51 -244h-42z" />
    <glyph glyph-name="uni045D" unicode="&#x45d;" 
d="M317 702l36 2l14 -106l-37 -2zM70 146l74 354h41l-72 -346q-4 -22 -4 -32q0 -46 31 -71t82 -25q38 0 76.5 16t53.5 27.5t23 19.5l87 411h42l-87 -413q-2 -10 -2 -14q0 -24 18.5 -37.5t48.5 -13.5l-19 -32q-42 0 -66 15.5t-27 41.5q-10 -9 -26.5 -20t-55 -24t-79.5 -13
q-65 0 -104 30t-39 87q0 20 4 39z" />
    <glyph glyph-name="afii10110" unicode="&#x45e;" horiz-adv-x="451" 
d="M198 645l16 32q2 -4 9.5 -10.5t37 -15.5t70.5 -9q42 0 75 9t45 18l12 9l1 -33q-4 -4 -13.5 -10.5t-46 -17t-82.5 -10.5t-77 9.5t-39 19.5zM-17 -195q32 0 62.5 16.5t57 48.5t45.5 61.5t42 71.5l-106 497h47l93 -445l236 445h46l-271 -500q-27 -49 -50.5 -85t-55.5 -72
t-68 -55t-75 -19z" />
    <glyph glyph-name="afii10193" unicode="&#x45f;" horiz-adv-x="528" 
d="M47 0l105 500h42l-98 -466h280l98 466h42l-105 -500h-159l-38 -169h-38l36 169h-165z" />
    <glyph glyph-name="afii10050" unicode="&#x490;" horiz-adv-x="421" 
d="M85 0l148 702h261l23 108h34l-32 -144h-251l-140 -666h-43z" />
    <glyph glyph-name="afii10098" unicode="&#x491;" horiz-adv-x="328" 
d="M47 0l105 500h217l28 130h35l-35 -166h-212l-97 -464h-41z" />
    <glyph glyph-name="endash" unicode="&#x2013;" horiz-adv-x="465" 
d="M58 261l9 37h388l-9 -37h-388z" />
    <glyph glyph-name="emdash" unicode="&#x2014;" horiz-adv-x="628" 
d="M58 261l9 37h551l-9 -37h-551z" />
    <glyph glyph-name="afii00208" unicode="&#x2015;" horiz-adv-x="628" 
d="M23 261l9 37h551l-9 -37h-551z" />
    <glyph glyph-name="quoteleft" unicode="&#x2018;" horiz-adv-x="143" 
d="M125 513q-2 18 -2 27q0 51 22.5 98.5t44.5 69.5l23 23l18 -21q-8 -7 -19.5 -20t-31 -55.5t-19.5 -86.5q0 -10 2 -28z" />
    <glyph glyph-name="quoteright" unicode="&#x2019;" horiz-adv-x="143" 
d="M109 528q8 7 19.5 21t31 57.5t19.5 87.5q0 16 -1 24l37 7q2 -18 2 -27q0 -51 -22.5 -98.5t-44.5 -69.5l-22 -22z" />
    <glyph glyph-name="quotesinglbase" unicode="&#x201a;" horiz-adv-x="143" 
d="M-49 -52q8 7 19.5 21t31 57.5t19.5 87.5q0 16 -1 24l37 7q2 -18 2 -27q0 -51 -22.5 -98.5t-44.5 -69.5l-22 -22z" />
    <glyph glyph-name="quotedblleft" unicode="&#x201c;" horiz-adv-x="278" 
d="M224 513q-2 18 -2 27q0 51 22.5 98.5t45.5 69.5l22 23l18 -21q-8 -7 -19.5 -20t-31 -55.5t-19.5 -86.5q0 -10 2 -28zM90 513q-2 18 -2 27q0 51 22.5 98.5t45.5 69.5l22 23l18 -21q-8 -7 -19.5 -20t-31 -55.5t-19.5 -86.5q0 -10 2 -28z" />
    <glyph glyph-name="quotedblright" unicode="&#x201d;" horiz-adv-x="278" 
d="M208 528q8 7 19.5 21t31 57.5t19.5 87.5q0 16 -1 24l37 7q2 -18 2 -27q0 -32 -9 -63.5t-22 -53t-26.5 -39t-22.5 -26.5l-9 -8zM74 528q8 7 19.5 21t31 57.5t19.5 87.5q0 16 -1 24l37 7q2 -18 2 -27q0 -32 -9 -63.5t-22 -53t-26.5 -39t-22.5 -26.5l-9 -8z" />
    <glyph glyph-name="quotedblbase" unicode="&#x201e;" horiz-adv-x="278" 
d="M86 -52q8 7 19.5 21t31 57.5t19.5 87.5q0 16 -1 24l37 7q2 -18 2 -27q0 -32 -9 -63.5t-22 -53t-26.5 -39t-22.5 -26.5l-9 -8zM-49 -52q8 7 19.5 21t31 57.5t19.5 87.5q0 16 -1 24l37 7q2 -18 2 -27q0 -51 -22.5 -98.5t-44.5 -69.5l-22 -22z" />
    <glyph glyph-name="dagger" unicode="&#x2020;" horiz-adv-x="402" 
d="M88 341l8 36h128l45 208h41l-44 -208h128l-8 -36h-128l-119 -566h-41l118 566h-128z" />
    <glyph glyph-name="daggerdbl" unicode="&#x2021;" horiz-adv-x="402" 
d="M1 -73l9 36h128l45 217l45 217h-128l8 37h128l33 151h40l-33 -151h130l-8 -37h-130l-45 -217l-45 -217h129l-8 -36h-129l-32 -152h-40l32 152h-129z" />
    <glyph glyph-name="bullet" unicode="&#x2022;" horiz-adv-x="270" 
d="M29 283q-13 14 -13 36q0 44 37 70q30 19 59 19t47 -19q14 -16 14 -39q0 -42 -36 -67q-27 -18 -58 -18q-32 0 -50 18z" />
    <glyph glyph-name="ellipsis" unicode="&#x2026;" horiz-adv-x="616" 
d="M413 2q-5 7 -5 14q0 16 14 25q10 7 22 7q11 0 17 -7q5 -7 5 -14q0 -16 -13 -25q-11 -7 -21 -7q-12 0 -19 7zM217 2q-5 7 -5 14q0 16 14 25q10 7 22 7q11 0 17 -7q5 -7 5 -14q0 -16 -13 -25q-10 -7 -21 -7q-12 0 -19 7zM21 2q-5 7 -5 14q0 16 14 25q10 7 22 7q11 0 17 -7
q5 -7 5 -14q0 -16 -13 -25q-11 -7 -21 -7q-12 0 -19 7z" />
    <glyph glyph-name="perthousand" unicode="&#x2030;" horiz-adv-x="1234" 
d="M860 130q0 -50 25 -79t71 -29q69 0 113 53.5t44 135.5q0 50 -25 79.5t-70 29.5q-70 0 -114 -53.5t-44 -136.5zM824 124q0 99 56.5 163.5t144.5 64.5q58 0 90.5 -37t32.5 -100q0 -98 -56 -161t-143 -63q-60 0 -92.5 35.5t-32.5 97.5zM488 130q0 -50 25 -79t71 -29
q69 0 113 53.5t44 135.5q0 50 -25 79.5t-70 29.5q-70 0 -114 -53.5t-44 -136.5zM452 124q0 99 56.5 163.5t144.5 64.5q58 0 90.5 -37t32.5 -100q0 -98 -56 -161t-143 -63q-60 0 -92.5 35.5t-32.5 97.5zM180 0l470 702h43l-470 -702h-43zM127 469q0 -50 25 -79t71 -29
q69 0 113 53.5t44 135.5q0 50 -25 79.5t-70 29.5q-70 0 -114 -53.5t-44 -136.5zM91 463q0 99 56.5 163.5t144.5 64.5q58 0 90.5 -37t32.5 -100q0 -98 -56 -161t-143 -63q-60 0 -92.5 35.5t-32.5 97.5z" />
    <glyph glyph-name="guilsinglleft" unicode="&#x2039;" horiz-adv-x="324" 
d="M101 250l192 168l17 -27l-160 -141l100 -146l-31 -28z" />
    <glyph glyph-name="guilsinglright" unicode="&#x203a;" horiz-adv-x="324" 
d="M48 103l160 142l-99 145l30 28l118 -174l-190 -168z" />
    <glyph glyph-name="Euro" unicode="&#x20ac;" horiz-adv-x="653" 
d="M77 260l8 36h65q4 56 17 113h-58l8 36h60q40 125 129 196t222 71q39 0 81.5 -8.5t64.5 -17.5l23 -8l-13 -35q-80 33 -156 33q-117 0 -195.5 -60t-114.5 -171h314l-8 -36h-316q-11 -49 -16 -113h309l-9 -36h-301v-13q0 -221 202 -221q34 0 76.5 8t67.5 16l25 9l-3 -34
q-96 -35 -184 -35q-113 0 -169.5 66t-56.5 187v17h-72z" />
    <glyph glyph-name="uni20B4" unicode="&#x20b4;" horiz-adv-x="596" 
d="M95 249l9 36h98q35 27 108.5 72t99.5 63h-278l8 36h320q68 58 68 116q0 48 -43.5 76t-122.5 28q-37 0 -73.5 -6t-54.5 -12l-19 -6l4 37q63 23 160 23q91 0 142 -35.5t51 -94.5q0 -64 -60 -126l66 1l-9 -37h-99q-37 -28 -114.5 -75.5t-95.5 -59.5h281l-9 -36h-320
q-71 -58 -71 -118q0 -49 43.5 -77t122.5 -28q36 0 73 6t56 12l19 5l-5 -36q-62 -23 -159 -23q-91 0 -142 35.5t-51 95.5q0 66 62 128h-65z" />
    <glyph glyph-name="afii61352" unicode="&#x2116;" horiz-adv-x="1120" 
d="M823 501q0 -53 27 -82t80 -29q83 0 127.5 55.5t44.5 148.5q0 110 -106 110q-83 0 -128 -55t-45 -148zM784 499q0 104 56 168t161 64q69 0 104.5 -36t35.5 -99q0 -104 -56.5 -167.5t-160.5 -63.5q-70 0 -105 35.5t-35 98.5zM776 187l9 37h217l-9 -37h-217zM85 0l148 702
h45l281 -639l1 3l133 636h42l-148 -702h-46l-283 640l1 -9l-131 -631h-43z" />
    <glyph glyph-name="trademark" unicode="&#x2122;" horiz-adv-x="805" 
d="M356 270l87 410l1 -2l46 2l94 -284l217 284h47l-87 -410h-37l73 351l-205 -265h-33l-92 263l-74 -349h-37zM104 650l8 30h262l-8 -30h-114l-78 -380h-36l78 380h-112z" />
    </font>
</defs>
</svg>
