<?xml version="1.0" standalone="no"?>
<!DOCTYPE svg PUBLIC "-//W3C//DTD SVG 1.1//EN" "http://www.w3.org/Graphics/SVG/1.1/DTD/svg11.dtd" >
<svg>
<metadata>
Created by FontForge 20090622 at Mon May 29 21:26:50 2017
 By deploy user
Copyright (c) 2013 by AndrijType. All rights reserved.
</metadata>
<defs>
<font id="OnePlusOne2015-BoldItalic" horiz-adv-x="515" >
  <font-face 
    font-family="OnePlusOne 2015"
    font-weight="700"
    font-style="italic"
    font-stretch="normal"
    units-per-em="1000"
    panose-1="2 1 8 4 4 2 0 2 0 4"
    ascent="750"
    descent="-250"
    x-height="500"
    cap-height="702"
    bbox="-101 -250 1245 909"
    underline-thickness="50"
    underline-position="-50"
    slope="-12"
    unicode-range="U+0020-U+2122"
  />
<missing-glyph horiz-adv-x="622" 
d="M472 520l111 91l69 -95l-110 -92zM384 122l116 95l67 -92l-115 -95zM128 262l27 115h146l37 173h119l-37 -173h145l-27 -115h-143l-37 -173h-119l37 173h-148zM125 516l115 96l67 -92l-114 -95zM40 125l111 91l69 -94l-110 -92z" />
    <glyph glyph-name=".notdef" horiz-adv-x="622" 
d="M472 520l111 91l69 -95l-110 -92zM384 122l116 95l67 -92l-115 -95zM128 262l27 115h146l37 173h119l-37 -173h145l-27 -115h-143l-37 -173h-119l37 173h-148zM125 516l115 96l67 -92l-114 -95zM40 125l111 91l69 -94l-110 -92z" />
    <glyph glyph-name=".null" horiz-adv-x="0" 
 />
    <glyph glyph-name="nonmarkingreturn" horiz-adv-x="333" 
 />
    <glyph glyph-name="space" unicode=" " horiz-adv-x="257" 
 />
    <glyph glyph-name="exclam" unicode="!" horiz-adv-x="310" 
d="M139 268l54 434h162l-126 -434h-90zM36 5q-15 17 -15 40q0 48 44 79q31 22 65 22q36 0 55 -22q15 -16 15 -41q0 -45 -43 -78q-31 -22 -65 -22q-36 0 -56 22z" />
    <glyph glyph-name="quotedbl" unicode="&#x22;" horiz-adv-x="407" 
d="M263 488l55 250h134l-82 -250h-107zM63 488l55 250h134l-82 -250h-107z" />
    <glyph glyph-name="numbersign" unicode="#" horiz-adv-x="605" 
d="M231 189h154l57 198h-154zM24 84l26 105h80l57 198h-100l26 106h104l27 92h102l-27 -92h153l27 92h102l-27 -92h64l-26 -106h-68l-57 -198h89l-26 -105h-94l-24 -84h-101l24 84h-155l-24 -84h-101l24 84h-75z" />
    <glyph glyph-name="dollar" unicode="$" horiz-adv-x="405" 
d="M24 63l38 110q45 -24 106 -24q45 0 72 18t27 43q0 19 -27.5 32.5t-61 23t-61 37.5t-27.5 73q0 72 40 122.5t109 65.5l42 157h101l-26 -156q23 -3 44 -8.5t30 -9.5l9 -4l-37 -108q-62 20 -106 20q-33 0 -54 -14t-21 -38q0 -17 18.5 -29t45 -21.5t53 -22t45 -37t18.5 -59.5
q0 -162 -156 -194l-43 -167h-102l28 162q-29 3 -55 10t-37 13z" />
    <glyph glyph-name="percent" unicode="%" horiz-adv-x="905" 
d="M615 151q0 -60 43 -60q40 0 60.5 37.5t20.5 89.5q0 62 -45 62q-38 0 -58.5 -36.5t-20.5 -92.5zM493 131q0 111 63 184t164 73q66 0 102.5 -41.5t36.5 -111.5q0 -107 -62 -179.5t-165 -72.5q-69 0 -104 39.5t-35 108.5zM187 482q0 -60 43 -60q40 0 60.5 37.5t20.5 89.5
q0 62 -45 62q-38 0 -58.5 -36.5t-20.5 -92.5zM183 0l440 702h123l-440 -702h-123zM65 462q0 111 63 184t164 73q66 0 102.5 -41.5t36.5 -111.5q0 -107 -62 -179.5t-165 -72.5q-69 0 -104 39.5t-35 108.5z" />
    <glyph glyph-name="ampersand" unicode="&#x26;" horiz-adv-x="574" 
d="M172 183q0 -45 21 -71.5t64 -26.5q39 0 77 27q-73 96 -109 211q-53 -58 -53 -140zM32 152q0 100 50.5 163t122.5 92q-4 27 -4 60q0 125 79.5 188.5t204.5 63.5l18 -118q-29 0 -55 -6t-52 -21.5t-41.5 -47.5t-15.5 -77q0 -112 78 -227q33 78 33 169q0 13 -2 43l110 7
q3 -31 3 -62q0 -143 -63 -248q32 -26 62 -40l-81 -109q-37 21 -72 51q-75 -51 -173 -51q-92 0 -147 45.5t-55 124.5z" />
    <glyph glyph-name="quotesingle" unicode="'" horiz-adv-x="206" 
d="M95 488l55 250h134l-82 -250h-107z" />
    <glyph glyph-name="parenleft" unicode="(" horiz-adv-x="357" 
d="M103 272q20 93 51.5 175.5t62 134.5t58.5 91t45 55l18 17l101 -47q-6 -6 -15.5 -18.5t-35.5 -54t-49.5 -87t-49.5 -118t-42 -148.5q-22 -106 -22 -200q0 -64 9.5 -119t18.5 -79l9 -23l-123 -47q-7 9 -17 26.5t-27 83.5t-17 145q0 98 25 213z" />
    <glyph glyph-name="parenright" unicode=")" horiz-adv-x="357" 
d="M-31 -149q5 6 14.5 18.5t36 54t49.5 87t49 118t42 148.5q22 106 22 202q0 63 -9 118t-18 78l-9 23l123 47q7 -9 17 -26.5t27 -83.5t17 -145q0 -98 -25 -213q-20 -93 -52 -175.5t-63 -134.5t-59 -91t-45 -56l-18 -16z" />
    <glyph glyph-name="asterisk" unicode="*" horiz-adv-x="400" 
d="M77 509l73 130l98 -76l7 158h135l-65 -158l136 73l9 -130l-143 -20l82 -116l-129 -80l-23 138l-86 -137l-88 80l130 113z" />
    <glyph glyph-name="plus" unicode="+" horiz-adv-x="452" 
d="M37 218l27 115h142l36 164h119l-36 -164h142l-27 -115h-140l-36 -165h-119l36 165h-144z" />
    <glyph glyph-name="comma" unicode="," horiz-adv-x="263" 
d="M-44 -118l10.5 8t23 20.5t29 32t23.5 40t12 45.5l2 7q-1 0 -4.5 4t-7 14t-3.5 22q0 33 25 58t68 25q30 0 49.5 -23.5t19.5 -62.5q0 -47 -20.5 -91t-50 -73t-59 -51.5t-49.5 -32.5l-21 -10z" />
    <glyph glyph-name="hyphen" unicode="-" horiz-adv-x="329" 
d="M38 218l27 115h277l-27 -115h-277z" />
    <glyph glyph-name="period" unicode="." horiz-adv-x="297" 
d="M56 5q-15 17 -15 40q0 48 44 79q31 22 65 22q36 0 55 -22q15 -16 15 -41q0 -45 -43 -78q-31 -22 -65 -22q-36 0 -56 22z" />
    <glyph glyph-name="slash" unicode="/" horiz-adv-x="452" 
d="M-101 -250l573 1000h138l-572 -1000h-139z" />
    <glyph glyph-name="zero" unicode="0" horiz-adv-x="610" 
d="M219 225q0 -128 77 -128q78 0 128 110.5t50 269.5q0 128 -77 128q-78 0 -128 -108t-50 -272zM68 223q0 56 7.5 111t23.5 111.5t44 105t65 86.5t91 60t118 22q103 0 155 -63.5t52 -176.5q0 -53 -7.5 -107.5t-23.5 -111.5t-43.5 -106t-64.5 -88t-91 -61.5t-118 -22.5
q-103 0 -155.5 64t-52.5 177z" />
    <glyph glyph-name="one" unicode="1" horiz-adv-x="411" 
d="M118 511l1 97l233 94h96l-148 -702h-140l119 575z" />
    <glyph glyph-name="two" unicode="2" horiz-adv-x="508" 
d="M-7 0l18 77l41 29.5t91.5 72.5t116 104t91.5 113t41 109q0 43 -24.5 68t-67.5 25q-34 0 -71.5 -7t-58.5 -13l-20 -7l8 112q67 36 195 36q95 0 142.5 -47.5t47.5 -127.5q0 -62 -33.5 -126t-90.5 -119.5t-112 -97t-118 -79.5h283l-29 -122h-450z" />
    <glyph glyph-name="three" unicode="3" horiz-adv-x="500" 
d="M13 18l33 106q54 -30 137 -30q77 0 115.5 37.5t38.5 106.5t-81 69h-65l25 85q17 0 39 7t46 21.5t40.5 43t16.5 64.5q0 33 -19.5 52t-56.5 19q-26 0 -57 -7t-49 -14l-18 -7l4 112q65 37 164 37q187 0 187 -134q0 -133 -137 -199q107 -23 107 -135q0 -124 -79.5 -197
t-212.5 -73q-60 0 -104.5 9t-58.5 18z" />
    <glyph glyph-name="four" unicode="4" horiz-adv-x="563" 
d="M34 155l9 67l267 480h147l-251 -435h165l78 270h116l-57 -270h1l-8 -32l-49 -235h-141l33 155h-310z" />
    <glyph glyph-name="five" unicode="5" horiz-adv-x="514" 
d="M23 18l37 106q59 -30 142 -30q70 0 110.5 44.5t40.5 108.5q0 40 -26.5 65.5t-78.5 25.5h-124l101 364h331l-29 -120h-217l-40 -153h32q94 0 146.5 -40.5t52.5 -118.5q0 -69 -26.5 -125.5t-69.5 -91t-94 -53t-104 -18.5q-63 0 -109 9t-60 18z" />
    <glyph glyph-name="six" unicode="6" horiz-adv-x="557" 
d="M200 187q0 -95 74 -95q55 0 88 50t33 103q0 35 -19 58.5t-60 23.5q-58 0 -109 -33q-7 -46 -7 -107zM59 201q0 120 36 221t94 164t128 98t141 35q44 0 76.5 -8.5t43.5 -16.5l10 -8l-43 -111q-40 23 -105 23q-61 0 -119 -51t-91 -149h8q66 31 137 31q68 0 118 -47t50 -124
q0 -109 -81 -192.5t-203 -83.5q-92 0 -146 57.5t-54 161.5z" />
    <glyph glyph-name="seven" unicode="7" horiz-adv-x="473" 
d="M55 0l340 576h-298l31 126h450l-20 -81l-340 -621h-163z" />
    <glyph glyph-name="eight" unicode="8" horiz-adv-x="565" 
d="M260 484q0 -40 19 -62t49 -24h6q47 0 83 35.5t36 98.5q0 35 -20.5 56t-57.5 21q-52 0 -83.5 -35t-31.5 -90zM189 177q0 -40 20.5 -62.5t60.5 -22.5h2q58 0 92.5 38t34.5 102q0 42 -23 64.5t-63 22.5q-56 -2 -90 -39t-34 -103zM36 147q0 153 137 217q-55 43 -55 114
q0 99 81 170t202 71q92 0 143.5 -47t51.5 -120q0 -126 -117 -191q66 -43 66 -127q0 -109 -76.5 -180t-222.5 -72h-1q-106 0 -157.5 44.5t-51.5 120.5z" />
    <glyph glyph-name="nine" unicode="9" horiz-adv-x="557" 
d="M245 459q0 -36 19 -60t60 -24q54 0 110 37q6 46 6 100q0 97 -74 97q-56 0 -88.5 -48.5t-32.5 -101.5zM53 16l43 111q38 -24 103 -24q61 0 120 51.5t91 149.5h-8q-52 -32 -139 -32q-67 0 -116.5 48.5t-49.5 125.5q0 108 83.5 190.5t207.5 82.5q91 0 142 -58t51 -163
q0 -120 -36 -220.5t-94.5 -163.5t-128.5 -97.5t-140 -34.5q-44 0 -76.5 8.5t-42.5 17.5z" />
    <glyph glyph-name="colon" unicode=":" horiz-adv-x="297" 
d="M96 357q-15 17 -15 40q0 48 44 79q31 22 65 22q36 0 55 -22q15 -16 15 -41q0 -45 -43 -78q-31 -22 -65 -22q-36 0 -56 22zM24 5q-15 16 -15 40q0 48 44 79q31 22 65 22q36 0 55 -22q15 -16 15 -41q0 -45 -43 -78q-31 -22 -65 -22q-36 0 -56 22z" />
    <glyph glyph-name="semicolon" unicode=";" horiz-adv-x="297" 
d="M96 357q-15 17 -15 40q0 48 44 79q31 22 65 22q36 0 55 -22q15 -16 15 -41q0 -45 -43 -78q-31 -22 -65 -22q-36 0 -56 22zM-56 -118l10.5 8t23 20.5t29 32t23.5 40t12 45.5l2 7q-1 0 -4.5 4t-7 14t-3.5 22q0 33 25 58t68 25q30 0 49.5 -23.5t19.5 -62.5q0 -47 -20.5 -91
t-50 -73t-59 -51.5t-49.5 -32.5l-21 -10z" />
    <glyph glyph-name="less" unicode="&#x3c;" horiz-adv-x="375" 
d="M77 292l240 225l71 -78l-155 -147l93 -148l-107 -78z" />
    <glyph glyph-name="equal" unicode="=" horiz-adv-x="522" 
d="M28 328l27 115h472l-27 -115h-472zM-20 108l27 115h472l-27 -115h-472z" />
    <glyph glyph-name="greater" unicode="&#x3e;" horiz-adv-x="375" 
d="M76 144l155 147l-93 148l107 78l142 -226l-240 -225z" />
    <glyph glyph-name="question" unicode="?" horiz-adv-x="438" 
d="M162 575l8 111q58 33 175 33q81 0 123 -43t42 -104q0 -63 -33 -119.5t-80 -93t-94 -63.5t-80 -39l-33 -12l-17 91q8 4 20 11t44 29.5t56.5 45t44.5 54t20 60.5q0 26 -18.5 44t-53.5 18q-26 0 -57 -6t-49 -12zM68 5q-15 17 -15 40q0 48 44 79q31 22 65 22q36 0 55 -22
q15 -16 15 -41q0 -45 -43 -78q-31 -22 -65 -22q-36 0 -56 22z" />
    <glyph glyph-name="at" unicode="@" horiz-adv-x="849" 
d="M378 200q0 -74 55 -74q40 0 63 41l41 204q-16 4 -42 4q-58 0 -87.5 -48t-29.5 -127zM42 118q0 170 63 305.5t187 215.5t290 80q142 0 214 -74t72 -203q0 -189 -74.5 -297.5t-200.5 -108.5q-94 0 -104 61h-2q-4 -7 -11 -17t-33.5 -27t-56.5 -17q-59 0 -93 37t-34 109
q0 123 71.5 202t187.5 79q40 0 74.5 -4.5t49.5 -8.5l14 -5l-57 -280q-2 -14 -2 -17q0 -24 25 -24q61 0 94 87.5t33 206.5q0 94 -47.5 144.5t-144.5 50.5q-169 0 -274.5 -122t-105.5 -340q0 -115 51 -176t144 -61q46 0 84 5t52 11l15 5l-16 -105q-43 -29 -157 -29
q-156 0 -232 82.5t-76 234.5z" />
    <glyph glyph-name="A" unicode="A" horiz-adv-x="656" 
d="M260 266h180l-24 323h-1zM-16 0l377 702h176l72 -702h-152l-10 159h-238l-75 -159h-150z" />
    <glyph glyph-name="B" unicode="B" horiz-adv-x="611" 
d="M264 408h107q44 0 77 31.5t33 91.5q0 76 -96 76q-30 0 -80 -5zM198 100q57 -5 93 -5q88 0 120.5 36.5t32.5 99.5q0 78 -90 78h-111zM46 0l148 702q98 17 209 17q113 0 168 -40.5t55 -110.5q0 -140 -136 -208q96 -27 96 -123q0 -117 -85 -186t-247 -69q-50 0 -102 4.5
t-79 9.5z" />
    <glyph glyph-name="C" unicode="C" horiz-adv-x="574" 
d="M72 255q0 204 112.5 334t293.5 130q54 0 99.5 -9.5t64.5 -18.5l19 -9l-47 -116q-60 28 -143 28q-115 0 -179.5 -86.5t-64.5 -225.5q0 -84 38.5 -129t113.5 -45q41 0 78.5 6t54.5 12l17 7l-8 -114q-7 -4 -21.5 -10t-64.5 -16.5t-106 -10.5q-125 0 -191 72t-66 201z" />
    <glyph glyph-name="D" unicode="D" horiz-adv-x="691" 
d="M217 105q38 -3 82 -3q118 0 183.5 84.5t65.5 237.5q0 86 -39.5 130.5t-113.5 44.5q-37 0 -75 -3zM46 0l148 702q102 17 229 17q134 0 206 -71t72 -204q0 -212 -115.5 -337t-316.5 -125q-58 0 -114 4.5t-83 9.5z" />
    <glyph glyph-name="E" unicode="E" horiz-adv-x="571" 
d="M46 0l148 702h418l-30 -120h-264l-35 -171h237l-28 -114h-232l-36 -177h283l-28 -120h-433z" />
    <glyph glyph-name="F" unicode="F" horiz-adv-x="521" 
d="M46 0l148 702h423l-29 -120h-271l-41 -196h238l-27 -115h-235l-57 -271h-149z" />
    <glyph glyph-name="G" unicode="G" horiz-adv-x="667" 
d="M71 245q0 208 122.5 341t307.5 133q54 0 101 -9.5t66 -18.5l20 -9l-47 -116q-62 28 -154 28q-128 0 -194 -87.5t-66 -226.5q0 -84 40 -128t114 -44q61 0 93 4l36 172h-124l28 116h247l-84 -392q-99 -26 -241 -26q-135 0 -200 69t-65 194z" />
    <glyph glyph-name="H" unicode="H" horiz-adv-x="692" 
d="M46 0l148 702h149l-62 -295h239l62 295h148l-148 -702h-148l62 293h-239l-62 -293h-149z" />
    <glyph glyph-name="I" unicode="I" horiz-adv-x="305" 
d="M46 0l148 702h149l-148 -702h-149z" />
    <glyph glyph-name="J" unicode="J" horiz-adv-x="305" 
d="M-84 -117q109 0 140 149l138 670h150l-148 -705q-51 -236 -264 -236z" />
    <glyph glyph-name="K" unicode="K" horiz-adv-x="646" 
d="M46 0l148 702h149l-60 -284h50l241 284h166l-298 -324l171 -378h-174l-132 307h-48l-64 -307h-149z" />
    <glyph glyph-name="L" unicode="L" horiz-adv-x="505" 
d="M46 0l148 702h149l-123 -582h271l-28 -120h-417z" />
    <glyph glyph-name="M" unicode="M" horiz-adv-x="871" 
d="M46 0l148 702l1 -3v3h136l122 -419h4l291 419h161l-148 -702h-143l93 472h-4l-226 -339h-99l-97 339h-3l-93 -472h-143z" />
    <glyph glyph-name="N" unicode="N" horiz-adv-x="710" 
d="M46 0l148 702h155l170 -512h2l7 44l92 468h128l-148 -702h-157l-169 508h-3l-9 -57l-88 -451h-128z" />
    <glyph glyph-name="O" unicode="O" horiz-adv-x="716" 
d="M227 277q0 -79 32 -124t93 -45q100 0 159.5 90.5t59.5 225.5q0 78 -31.5 124t-91.5 46q-99 0 -160 -91.5t-61 -225.5zM72 254q0 201 111 333t294 132q122 0 186 -73t64 -199q0 -132 -49 -237t-142 -166.5t-215 -61.5q-121 0 -185 73t-64 199z" />
    <glyph glyph-name="P" unicode="P" horiz-adv-x="562" 
d="M254 332h47q66 0 108 45.5t42 135.5q0 92 -95 92q-13 0 -45 -2zM46 0l148 702q106 17 190 17q223 0 223 -179q0 -78 -28.5 -141t-74 -100.5t-97 -57t-102.5 -19.5h-74l-46 -222h-139z" />
    <glyph glyph-name="Q" unicode="Q" horiz-adv-x="716" 
d="M227 277q0 -79 32 -124.5t93 -45.5q100 0 159.5 91t59.5 226q0 78 -31.5 124t-91.5 46q-99 0 -160 -91.5t-61 -225.5zM72 253q0 202 111 334t294 132q122 0 186 -73t64 -199q0 -177 -88.5 -303.5t-237.5 -154.5q-2 -20 -2 -27q0 -41 23.5 -59t71.5 -18l-74 -122
q-84 0 -124 29.5t-40 95.5q0 33 9 75l4 22q-96 15 -146.5 85.5t-50.5 182.5z" />
    <glyph glyph-name="R" unicode="R" horiz-adv-x="595" 
d="M255 332h45q71 0 111 50t40 128q0 46 -24.5 70.5t-70.5 24.5q-14 0 -44 -2zM46 0l148 702h1q96 17 189 17q113 0 168 -48t55 -135q0 -94 -46.5 -164.5t-120.5 -107.5l91 -264h-170l-55 230h-73l-48 -230h-139z" />
    <glyph glyph-name="S" unicode="S" horiz-adv-x="526" 
d="M30 29l63 113q65 -37 143 -37q54 0 85 30t31 72q0 26 -22.5 46t-54 36.5t-63.5 37t-54.5 57.5t-22.5 87q0 113 72.5 180.5t183.5 67.5q52 0 96 -10.5t61 -20.5l18 -11l-53 -111q-69 32 -131 32q-48 0 -72.5 -27t-24.5 -71q0 -28 22 -49.5t53.5 -39t63.5 -38t54 -55.5
t22 -82q0 -107 -76 -180.5t-204 -73.5q-65 0 -112.5 12t-62.5 24z" />
    <glyph glyph-name="T" unicode="T" horiz-adv-x="492" 
d="M98 582l29 120h469l-28 -120h-158l-121 -582h-149l122 582h-164z" />
    <glyph glyph-name="U" unicode="U" horiz-adv-x="678" 
d="M90 250l95 452h149l-87 -423q-7 -32 -7 -64q0 -98 96 -98q121 0 155 162l87 423h147l-95 -452q-25 -121 -105 -194.5t-221 -73.5q-116 0 -169.5 50.5t-53.5 137.5q0 38 9 80z" />
    <glyph glyph-name="V" unicode="V" horiz-adv-x="636" 
d="M122 702h158l39 -565h3l267 565h157l-363 -702h-193z" />
    <glyph glyph-name="W" unicode="W" horiz-adv-x="938" 
d="M122 702h153v-546h2l228 546h161l11 -543h3l215 543h153l-327 -702h-159l-16 531h-2l-233 -531h-160z" />
    <glyph glyph-name="X" unicode="X" horiz-adv-x="648" 
d="M-28 0l303 349v1l-151 352h170l95 -253l197 253h170l-300 -351l156 -351h-175l-94 252l-194 -252h-177z" />
    <glyph glyph-name="Y" unicode="Y" horiz-adv-x="588" 
d="M105 702h165l73 -316h2l206 316h165l-325 -440l-55 -262h-148l54 259h-1z" />
    <glyph glyph-name="Z" unicode="Z" horiz-adv-x="588" 
d="M8 0l22 90l430 492h-333l29 120h507l-22 -90l-426 -492h329l-29 -120h-507z" />
    <glyph glyph-name="bracketleft" unicode="[" horiz-adv-x="384" 
d="M27 -89l171 810h303l-26 -108h-173l-126 -594h180l-26 -108h-303z" />
    <glyph glyph-name="backslash" unicode="\" horiz-adv-x="452" 
d="M94 750h139l149 -1000h-138z" />
    <glyph glyph-name="bracketright" unicode="]" horiz-adv-x="384" 
d="M-50 -89l26 108h172l127 595h-179l26 107h304l-172 -810h-304z" />
    <glyph glyph-name="asciicircum" unicode="^" horiz-adv-x="349" 
d="M113 574l184 167l116 -167l-73 -61l-69 108l-114 -108z" />
    <glyph glyph-name="underscore" unicode="_" horiz-adv-x="675" 
d="M-81 -182l27 115h624l-26 -115h-625z" />
    <glyph glyph-name="grave" unicode="`" horiz-adv-x="220" 
d="M97 702l138 15l7 -123l-102 -7z" />
    <glyph glyph-name="a" unicode="a" horiz-adv-x="536" 
d="M189 195q0 -97 60 -97q41 0 74 33l53 266q-18 6 -45 6q-67 0 -104.5 -54t-37.5 -154zM38 172q0 163 82.5 255t236.5 92q54 0 101 -6t67 -12l20 -6l-73 -339h1q-3 -12 -3 -22q0 -22 11 -33t29 -11l-67 -108q-87 0 -112 57h-5q-4 -6 -12.5 -15.5t-44 -25.5t-82.5 -16
q-70 0 -109.5 50t-39.5 140z" />
    <glyph glyph-name="b" unicode="b" 
d="M180 103q20 -5 42 -5q64 0 105.5 60t41.5 152q0 93 -66 93q-32 0 -64 -19zM13 5l151 716h145l-48 -230h4q36 28 103 28q76 0 114.5 -50t38.5 -135q0 -143 -87.5 -247.5t-235.5 -104.5q-54 0 -100.5 6t-65.5 12z" />
    <glyph glyph-name="c" unicode="c" horiz-adv-x="413" 
d="M40 183q0 153 84.5 244.5t212.5 91.5q37 0 67 -7t42 -14l12 -7l-40 -114q-32 24 -80 24q-63 0 -104 -49.5t-41 -143.5q0 -52 24.5 -79.5t61.5 -27.5q23 0 46.5 6.5t34.5 12.5l12 6l-15 -115q-34 -29 -134 -29q-90 0 -136.5 54t-46.5 147z" />
    <glyph glyph-name="d" unicode="d" 
d="M189 202q0 -54 21 -80t56 -26q26 0 50 4l60 283q-23 22 -62 22q-56 0 -90.5 -55.5t-34.5 -147.5zM38 178q0 152 74.5 246.5t185.5 94.5q27 0 51 -7t35 -14l10 -7h4l49 230h144l-151 -709q-88 -30 -204 -30q-97 0 -147.5 51t-50.5 145z" />
    <glyph glyph-name="e" unicode="e" horiz-adv-x="454" 
d="M190 299h99q63 0 63 56q0 25 -13.5 41.5t-43.5 16.5q-36 0 -64.5 -31t-40.5 -83zM37 171q0 149 78.5 248.5t190.5 99.5q80 0 124 -45.5t44 -114.5q0 -152 -141 -152h-154l-1 -13v-13q0 -46 23 -67.5t74 -21.5q26 0 54.5 6.5t44.5 13.5l15 6l-13 -107q-38 -29 -148 -29
q-86 0 -138.5 48.5t-52.5 140.5z" />
    <glyph glyph-name="f" unicode="f" horiz-adv-x="335" 
d="M-11 -220l126 602h-49l20 84l54 32l10 48q21 97 78 144.5t157 47.5l17 -118q-46 0 -73.5 -19.5t-36.5 -66.5l-7 -34h105l-29 -118h-101l-126 -602h-145z" />
    <glyph glyph-name="g" unicode="g" 
d="M189 195q0 -97 60 -97q35 0 71 26l56 273l-2 1q-3 0 -7 1t-9 2t-12.5 1.5t-14.5 0.5q-67 0 -104.5 -54t-37.5 -154zM21 -210l37 104q50 -24 111 -24q45 0 77.5 25t40.5 62l12 62h-5q-39 -37 -107 -37q-70 0 -110 50t-40 140q0 163 83 255t237 92q54 0 100 -7.5t65 -15.5
l20 -8l-98 -464l-17 -80q-17 -83 -91 -133t-164 -50q-50 0 -87.5 7.5t-50.5 14.5z" />
    <glyph glyph-name="h" unicode="h" horiz-adv-x="510" 
d="M12 0l151 721h144l-47 -225h5q39 23 122 23q132 0 132 -120q0 -29 -7 -60l-72 -339h-144l64 312q3 12 3 23q0 54 -61 54q-30 0 -66 -8l-80 -381h-144z" />
    <glyph glyph-name="i" unicode="i" horiz-adv-x="264" 
d="M144 638q0 40 26 62.5t67 22.5q60 0 60 -51q0 -40 -26.5 -63.5t-66.5 -23.5q-27 0 -43.5 14t-16.5 39zM50 177l67 323h144l-58 -288q-5 -27 -5 -43q0 -65 63 -65l-76 -122q-143 0 -143 128q0 27 8 67z" />
    <glyph glyph-name="j" unicode="j" horiz-adv-x="249" 
d="M156 638q0 40 26 62.5t67 22.5q60 0 60 -51q0 -40 -26.5 -63.5t-66.5 -23.5q-27 0 -43.5 14t-16.5 39zM-77 -118q77 0 100 108l105 510h146l-115 -545q-41 -194 -220 -194z" />
    <glyph glyph-name="k" unicode="k" horiz-adv-x="473" 
d="M12 0l151 721h144l-87 -416h33l131 195h160l-187 -231l82 -269h-160l-44 201h-37l-42 -201h-144z" />
    <glyph glyph-name="l" unicode="l" horiz-adv-x="264" 
d="M50 177l115 544h143l-105 -509q-5 -27 -5 -43q0 -65 63 -65l-76 -122q-143 0 -143 127q0 28 8 68z" />
    <glyph glyph-name="m" unicode="m" horiz-adv-x="725" 
d="M12 0l102 488q96 31 227 31q80 0 116 -30q85 30 142 30q70 0 102 -26t32 -81q0 -26 -8 -63l-72 -349h-144l66 326q3 15 3 25q0 38 -43 38q-32 0 -52 -14q-1 -2 -1 -4l-77 -371h-145l69 341q1 6 1 15q0 33 -42 33q-28 0 -53 -5l-79 -384h-144z" />
    <glyph glyph-name="n" unicode="n" horiz-adv-x="511" 
d="M12 0l102 488q97 31 273 31q132 0 132 -121q0 -20 -7 -59l-72 -339h-144l64 312q2 8 2 23q0 54 -60 54q-42 0 -67 -5l-79 -384h-144z" />
    <glyph glyph-name="o" unicode="o" horiz-adv-x="523" 
d="M189 188q0 -96 63 -96q44 0 73 33.5t40.5 81t11.5 107.5q0 93 -65 93q-58 0 -90.5 -59t-32.5 -160zM41 181q0 153 77 245t214 92q92 0 143.5 -50.5t51.5 -138.5q0 -151 -82 -249.5t-212 -98.5q-91 0 -141.5 53.5t-50.5 146.5z" />
    <glyph glyph-name="p" unicode="p" 
d="M182 128q23 -30 63 -30q49 0 86 56.5t37 149.5q0 99 -87 99q-13 0 -43 -5zM-35 -220l149 708q85 31 198 31q209 0 209 -184q0 -146 -78.5 -249.5t-188.5 -103.5q-31 0 -53.5 9t-29.5 19l-7 9h-5l-50 -239h-144z" />
    <glyph glyph-name="q" unicode="q" horiz-adv-x="516" 
d="M189 195q0 -97 60 -97q42 0 71 29l56 270q-12 6 -47 6q-65 0 -102.5 -54.5t-37.5 -153.5zM38 172q0 163 82.5 255t236.5 92q48 0 94.5 -7.5t68.5 -15.5l22 -8l-149 -708h-145l50 239h-4q-39 -37 -107 -37q-70 0 -109.5 50t-39.5 140z" />
    <glyph glyph-name="r" unicode="r" horiz-adv-x="340" 
d="M12 0l102 488q77 31 186 31q35 0 63.5 -6t38.5 -12l11 -6l-41 -114q-32 16 -87 16q-33 0 -50 -7l-79 -390h-144z" />
    <glyph glyph-name="s" unicode="s" horiz-adv-x="405" 
d="M2 12l38 110q45 -24 106 -24q45 0 72 18t27 43q0 19 -27.5 32.5t-61 23t-61 37.5t-27.5 73q0 85 55.5 139.5t146.5 54.5q40 0 77 -6.5t53 -13.5l17 -7l-37 -108q-62 20 -106 20q-33 0 -54 -14t-21 -38q0 -17 18.5 -29t45 -21.5t53 -22t45 -37t18.5 -59.5q0 -89 -54 -145
t-178 -56q-40 0 -76 7.5t-53 14.5z" />
    <glyph glyph-name="t" unicode="t" horiz-adv-x="337" 
d="M63 382l20 84l54 24l58 115h110l-24 -105h90l-29 -118h-85l-37 -191q-5 -23 -5 -37q0 -27 15.5 -38.5t50.5 -11.5l-75 -122q-75 0 -111 26.5t-36 85.5q0 25 8 63l45 225h-49z" />
    <glyph glyph-name="u" unicode="u" horiz-adv-x="513" 
d="M41 161l72 339h143l-63 -312q-3 -14 -3 -24q0 -53 62 -53q20 0 37 1.5t23 3.5l7 2l78 382h145l-103 -488q-92 -30 -234 -30q-89 0 -130 30t-41 91q0 21 7 58z" />
    <glyph glyph-name="v" unicode="v" horiz-adv-x="470" 
d="M72 500h160l-2 -381h4l150 381h160l-246 -500h-190z" />
    <glyph glyph-name="w" unicode="w" horiz-adv-x="697" 
d="M75 500h153l-18 -346h4l135 346h145l-1 -346h4l119 346h152l-232 -500h-156l4 340h-3l-128 -340h-157z" />
    <glyph glyph-name="x" unicode="x" horiz-adv-x="484" 
d="M-33 0l207 249l-101 251h168l38 -173h4l106 173h168l-205 -248l100 -252h-168l-36 182h-4l-108 -182h-169z" />
    <glyph glyph-name="y" unicode="y" horiz-adv-x="480" 
d="M9 -117q40 0 80 31t70 79l-87 507h160l24 -367h3l137 367h159l-245 -484q-128 -255 -287 -255z" />
    <glyph glyph-name="z" unicode="z" horiz-adv-x="416" 
d="M-17 0l19 79l265 307h-191l28 114h370l-18 -72l-266 -314h201l-27 -114h-381z" />
    <glyph glyph-name="braceleft" unicode="{" horiz-adv-x="398" 
d="M103 231l30 122q13 0 28 5t31 15.5t26.5 32.5t11.5 51v40.5t1 40.5q1 41 5.5 69t20.5 57.5t44.5 46t78 27.5t119.5 11l-25 -107q-66 0 -95 -32t-31 -102v-41t-1 -40q-1 -89 -72 -135q34 -28 34 -71q0 -39 -33 -106.5t-33 -107.5q0 -65 89 -65l-26 -107q-107 0 -153 29
t-46 87q0 54 34 128t34 99q0 24 -24 38.5t-48 14.5z" />
    <glyph glyph-name="bar" unicode="|" horiz-adv-x="345" 
d="M19 -250l212 1000h137l-212 -1000h-137z" />
    <glyph glyph-name="braceright" unicode="}" horiz-adv-x="398" 
d="M-17 -165l26 107q66 0 95 32.5t31 103.5q1 12 1 39v38q1 91 72 136q-35 29 -35 72q0 39 33 106.5t33 107.5q0 65 -88 65l25 107q108 0 154 -29t46 -87q0 -54 -34 -128t-34 -99q0 -24 24 -38.5t48 -14.5l-30 -122q-31 0 -62.5 -23.5t-34.5 -73.5q0 -10 -0.5 -44.5
t-1.5 -51.5q-2 -51 -12 -84t-37 -62t-81.5 -43t-137.5 -14z" />
    <glyph glyph-name="asciitilde" unicode="~" horiz-adv-x="587" 
d="M74 266l26 128q6 7 18.5 18t55 29t89.5 18q42 0 73.5 -14.5t47 -31.5t41.5 -31.5t59 -14.5q28 0 54 8t38 16l12 8l-22 -116q-6 -7 -17 -17.5t-49 -28t-82 -17.5q-37 0 -66.5 14t-46 30t-44.5 30t-63 14q-31 0 -62 -10.5t-46 -21.5z" />
    <glyph glyph-name="uni00A0" unicode="&#xa0;" horiz-adv-x="391" 
 />
    <glyph glyph-name="currency" unicode="&#xa4;" horiz-adv-x="532" 
d="M227 288q0 -34 14.5 -53.5t39.5 -19.5q39 0 67 35.5t28 91.5q0 34 -15 53t-41 19q-38 0 -65.5 -35t-27.5 -91zM31 126l110 86q-11 30 -11 62q0 80 45 144l-69 86l69 67l61 -95q47 30 99 30q50 0 88 -33l108 97l38 -66l-108 -85q12 -33 12 -63q0 -81 -48 -146l69 -85
l-70 -66l-61 93q-45 -28 -96 -28t-89 33l-109 -98z" />
    <glyph glyph-name="section" unicode="&#xa7;" horiz-adv-x="447" 
d="M168 297q0 -33 18.5 -65t48.5 -71t44 -69q44 40 44 109q0 33 -19 65t-49 71t-45 69q-42 -40 -42 -109zM42 268q0 51 15 93t39.5 68t46.5 40.5t45 24.5v12q0 110 65.5 171t175.5 61l18 -118q-52 0 -79.5 -26t-27.5 -74q0 -36 27 -79.5t54 -96.5t27 -113q0 -51 -15 -92.5
t-39.5 -68t-46 -41.5t-45.5 -25v-12q0 -110 -65.5 -170.5t-175.5 -60.5l-17 118q51 0 78 26t27 73q0 36 -26.5 79.5t-53.5 97t-27 113.5z" />
    <glyph glyph-name="copyright" unicode="&#xa9;" horiz-adv-x="692" 
d="M241 288q0 99 57.5 162.5t142.5 63.5q20 0 36 -3t21 -5l6 -3l-29 -81q-23 5 -39 5q-47 0 -70.5 -31.5t-23.5 -86.5q0 -31 15 -47t41 -16q9 0 21 3t19 5l8 3l-13 -89q-23 -13 -68 -13q-57 0 -90.5 35t-33.5 98zM187 265q0 -84 36.5 -133t107.5 -49q91 0 155.5 69.5
t87.5 184.5q10 52 10 86q0 81 -38.5 127.5t-110.5 46.5q-112 0 -180 -96t-68 -236zM67 243q0 124 45.5 226.5t136 165.5t211.5 63q120 0 182 -67.5t62 -183.5q0 -51 -12 -109q-33 -161 -133.5 -258.5t-250.5 -97.5q-120 0 -180.5 70.5t-60.5 190.5z" />
    <glyph glyph-name="guillemotleft" unicode="&#xab;" horiz-adv-x="533" 
d="M249 250l199 186l46 -70l-123 -115l75 -120l-80 -72zM62 250l199 186l46 -70l-123 -115l75 -120l-80 -72z" />
    <glyph glyph-name="uni00AD" unicode="&#xad;" horiz-adv-x="355" 
d="M19 218l27 115h277l-27 -115h-277z" />
    <glyph glyph-name="registered" unicode="&#xae;" horiz-adv-x="629" 
d="M339 379h10q41 0 41 54q0 24 -27 24h-8zM226 239l60 288h99q95 0 95 -77q0 -67 -53 -107l12 -104h-90l-7 76h-1h-16l-15 -76h-84zM185 318q0 -73 33 -113.5t97 -40.5q102 0 163 76t61 199q0 75 -35 117.5t-100 42.5q-100 0 -159.5 -79t-59.5 -202zM76 297q0 170 95 285
t256 115q108 0 164 -64t56 -172q0 -169 -95.5 -282t-259.5 -113q-107 0 -161.5 62t-54.5 169z" />
    <glyph glyph-name="degree" unicode="&#xb0;" horiz-adv-x="409" 
d="M215 461q0 -60 43 -60q40 0 60.5 37.5t20.5 89.5q0 62 -45 62q-38 0 -58.5 -36.5t-20.5 -92.5zM93 441q0 111 63 184t164 73q66 0 102.5 -41.5t36.5 -111.5q0 -107 -62 -179.5t-165 -72.5q-69 0 -104 39.5t-35 108.5z" />
    <glyph glyph-name="paragraph" unicode="&#xb6;" horiz-adv-x="717" 
d="M83 389q0 60 14 105.5t47.5 81.5t94 55t147.5 19h409l-32 -129h-59l-109 -521h-152l109 521h-79l-106 -521h-148l49 233q-185 0 -185 156z" />
    <glyph glyph-name="periodcentered" unicode="&#xb7;" horiz-adv-x="297" 
d="M87 305q-15 17 -15 40q0 48 44 79q31 22 65 22q36 0 55 -22q15 -16 15 -41q0 -45 -43 -78q-31 -22 -65 -22q-36 0 -56 22z" />
    <glyph glyph-name="guillemotright" unicode="&#xbb;" horiz-adv-x="534" 
d="M201 129l123 115l-74 120l79 72l118 -191l-200 -186zM14 129l123 115l-74 120l79 72l118 -191l-200 -186z" />
    <glyph glyph-name="uni0400" unicode="&#x400;" horiz-adv-x="571" 
d="M336 894l138 15l7 -123l-102 -7zM46 0l148 702h418l-30 -120h-264l-35 -171h237l-28 -114h-232l-36 -177h283l-28 -120h-433z" />
    <glyph glyph-name="afii10023" unicode="&#x401;" horiz-adv-x="572" 
d="M463 834q0 31 25 52.5t55 21.5q23 0 37.5 -14t14.5 -36q0 -32 -25 -53t-56 -21q-22 0 -36.5 14t-14.5 36zM272 834q0 31 25 52.5t54 21.5q23 0 38 -14t15 -36q0 -31 -25.5 -52.5t-55.5 -21.5q-22 0 -36.5 14t-14.5 36zM46 0l148 702h418l-30 -120h-264l-35 -171h237
l-28 -114h-232l-36 -177h283l-28 -120h-433z" />
    <glyph glyph-name="afii10051" unicode="&#x402;" horiz-adv-x="699" 
d="M99 586l28 116h470l-29 -116h-156l-36 -171h5q49 29 148 29q156 0 156 -139q0 -28 -8 -70l-49 -238q-51 -236 -261 -236l-17 122q58 0 90.5 38t47.5 111l35 175q3 16 3 31q0 77 -86 77q-39 0 -89 -20l-62 -295h-149l124 586h-165z" />
    <glyph glyph-name="afii10052" unicode="&#x403;" horiz-adv-x="460" 
d="M322 786l60 123l134 -15l-93 -116zM46 0l148 702h387l-30 -120h-234l-122 -582h-149z" />
    <glyph glyph-name="afii10053" unicode="&#x404;" horiz-adv-x="584" 
d="M72 255q0 199 114 331.5t292 132.5q54 0 99.5 -9.5t64.5 -18.5l19 -9l-47 -116q-60 28 -143 28q-192 0 -238 -190h313l-34 -110h-293v-20q0 -166 160 -166q42 0 79.5 6.5t53.5 13.5l17 6l-8 -114q-7 -4 -21 -10.5t-63.5 -17t-107.5 -10.5q-125 0 -191 72t-66 201z" />
    <glyph glyph-name="afii10054" unicode="&#x405;" horiz-adv-x="526" 
d="M30 29l63 113q65 -37 143 -37q54 0 85 30t31 72q0 26 -22.5 46t-54 36.5t-63.5 37t-54.5 57.5t-22.5 87q0 113 72.5 180.5t183.5 67.5q52 0 96 -10.5t61 -20.5l18 -11l-53 -111q-69 32 -131 32q-48 0 -72.5 -27t-24.5 -71q0 -28 22 -49.5t53.5 -39t63.5 -38t54 -55.5
t22 -82q0 -107 -76 -180.5t-204 -73.5q-65 0 -112.5 12t-62.5 24z" />
    <glyph glyph-name="afii10055" unicode="&#x406;" horiz-adv-x="305" 
d="M46 0l148 702h149l-148 -702h-149z" />
    <glyph glyph-name="afii10056" unicode="&#x407;" horiz-adv-x="305" 
d="M326 834q0 31 25 52.5t55 21.5q23 0 37.5 -14t14.5 -36q0 -32 -25 -53t-56 -21q-22 0 -36.5 14t-14.5 36zM135 834q0 31 25 52.5t54 21.5q23 0 38 -14t15 -36q0 -31 -25.5 -52.5t-55.5 -21.5q-22 0 -36.5 14t-14.5 36zM46 0l148 702h149l-148 -702h-149z" />
    <glyph glyph-name="afii10057" unicode="&#x408;" horiz-adv-x="305" 
d="M-84 -117q109 0 140 149l138 670h150l-148 -705q-51 -236 -264 -236z" />
    <glyph glyph-name="afii10058" unicode="&#x409;" horiz-adv-x="949" 
d="M585 97q40 -2 57 -2q153 0 153 157q0 87 -108 87h-51zM27 115q137 0 260 587h426l-54 -253h53q229 0 229 -170q0 -48 -9 -88.5t-32 -80t-59 -67t-94 -44.5t-134 -17q-49 0 -98 4.5t-74 9.5l-25 4l122 582h-147q-35 -167 -88 -301.5t-121.5 -217t-138.5 -82.5z" />
    <glyph glyph-name="afii10059" unicode="&#x40a;" horiz-adv-x="967" 
d="M602 97q40 -2 57 -2q153 0 153 157q0 87 -108 87h-51zM46 0l148 702h149l-62 -295h238l62 295h149l-54 -253h53q229 0 229 -170q0 -48 -9 -88.5t-32 -80t-59 -67t-94 -44.5t-134 -17q-49 0 -98 4.5t-74 9.5l-25 4l62 293h-238l-62 -293h-149z" />
    <glyph glyph-name="afii10060" unicode="&#x40b;" horiz-adv-x="729" 
d="M99 586l28 116h470l-29 -116h-156l-36 -171h5q49 29 148 29q156 0 156 -138q0 -36 -8 -71l-50 -235h-146l42 207q3 16 3 31q0 77 -86 77q-39 0 -89 -20l-62 -295h-149l124 586h-165z" />
    <glyph glyph-name="afii10061" unicode="&#x40c;" horiz-adv-x="646" 
d="M370 786l60 123l134 -15l-93 -116zM46 0l148 702h149l-60 -284h50l241 284h166l-298 -324l171 -378h-174l-132 307h-48l-64 -307h-149z" />
    <glyph glyph-name="uni040D" unicode="&#x40d;" horiz-adv-x="699" 
d="M409 894l138 15l7 -123l-102 -7zM46 0l148 702h142l-82 -426l-19 -57h2l352 465l12 18h136l-1 -2l2 2l-148 -702h-142l81 420l19 63h-2l-351 -465l-11 -18h-138z" />
    <glyph glyph-name="afii10062" unicode="&#x40e;" horiz-adv-x="608" 
d="M299 819l54 88q4 -4 12 -9.5t40 -14.5t72 -9t74 8t48 16l14 9l13 -88q-6 -5 -17.5 -12t-56.5 -19t-99 -12q-53 0 -91.5 11t-50.5 21zM115 702h165l81 -410h4l203 410h158l-300 -508q-68 -114 -136 -163t-154 -49l-11 125q82 0 137 63z" />
    <glyph glyph-name="afii10145" unicode="&#x40f;" horiz-adv-x="676" 
d="M46 0l148 702h149l-119 -582h218l123 582h148l-123 -582h1l-26 -120h-193l-47 -170h-110l26 170h-195z" />
    <glyph glyph-name="afii10017" unicode="&#x410;" horiz-adv-x="656" 
d="M260 266h180l-24 323h-1zM-16 0l377 702h176l72 -702h-152l-10 159h-238l-75 -159h-150z" />
    <glyph glyph-name="afii10018" unicode="&#x411;" horiz-adv-x="580" 
d="M215 97q40 -2 57 -2q151 0 151 146q0 83 -109 83h-51zM46 0l148 702h400l-29 -120h-248l-33 -156h53q232 0 232 -162q0 -57 -15 -104.5t-50 -89t-101.5 -65t-159.5 -23.5q-49 0 -98 4.5t-74 9.5z" />
    <glyph glyph-name="afii10019" unicode="&#x412;" horiz-adv-x="611" 
d="M264 408h107q44 0 77 31.5t33 91.5q0 76 -96 76q-30 0 -80 -5zM198 100q57 -5 93 -5q88 0 120.5 36.5t32.5 99.5q0 78 -90 78h-111zM46 0l148 702q98 17 209 17q113 0 168 -40.5t55 -110.5q0 -140 -136 -208q96 -27 96 -123q0 -117 -85 -186t-247 -69q-50 0 -102 4.5
t-79 9.5z" />
    <glyph glyph-name="afii10020" unicode="&#x413;" horiz-adv-x="460" 
d="M46 0l148 702h387l-30 -120h-234l-122 -582h-149z" />
    <glyph glyph-name="afii10021" unicode="&#x414;" horiz-adv-x="701" 
d="M204 120h231l94 462h-149q-69 -274 -176 -462zM-18 -172l43 292h49q128 225 204 582h425l-122 -582h79l-86 -292h-119l37 172h-363l-36 -172h-111z" />
    <glyph glyph-name="afii10022" unicode="&#x415;" horiz-adv-x="571" 
d="M46 0l148 702h418l-30 -120h-264l-35 -171h237l-28 -114h-232l-36 -177h283l-28 -120h-433z" />
    <glyph glyph-name="afii10024" unicode="&#x416;" horiz-adv-x="937" 
d="M-26 0l309 351l-150 351h173l101 -274h43l58 274h140l-58 -273h44l227 273h173l-304 -313l173 -389h-172l-123 310h-43l-65 -310h-139l64 309h-48l-230 -309h-173z" />
    <glyph glyph-name="afii10025" unicode="&#x417;" horiz-adv-x="521" 
d="M6 25l46 112q52 -34 147 -34q67 0 105 35.5t38 91.5q0 35 -22 54t-62 19h-107l26 106h115q33 0 68.5 32.5t35.5 84.5q0 72 -100 72q-32 0 -68.5 -7t-57.5 -13l-20 -7l8 112q65 36 186 36q102 0 153 -41.5t51 -113.5q0 -132 -139 -202q88 -34 88 -125q0 -107 -88.5 -181
t-221.5 -74q-39 0 -72 4.5t-52.5 11t-33 12.5t-18.5 10z" />
    <glyph glyph-name="afii10026" unicode="&#x418;" horiz-adv-x="699" 
d="M46 0l148 702h142l-82 -426l-19 -57h2l352 465l12 18h136l-1 -2l2 2l-148 -702h-142l81 420l19 63h-2l-351 -465l-11 -18h-138z" />
    <glyph glyph-name="afii10027" unicode="&#x419;" horiz-adv-x="699" 
d="M339 819l54 88q4 -4 12 -9.5t40 -14.5t72 -9t74 8t48 16l14 9l13 -88q-6 -5 -17.5 -12t-56.5 -19t-99 -12q-53 0 -91.5 11t-50.5 21zM46 0l148 702h142l-82 -426l-19 -57h2l352 465l12 18h136l-1 -2l2 2l-148 -702h-142l81 420l19 63h-2l-351 -465l-11 -18h-138z" />
    <glyph glyph-name="afii10028" unicode="&#x41a;" horiz-adv-x="646" 
d="M46 0l148 702h149l-60 -284h50l241 284h166l-298 -324l171 -378h-174l-132 307h-48l-64 -307h-149z" />
    <glyph glyph-name="afii10029" unicode="&#x41b;" horiz-adv-x="675" 
d="M27 115q137 0 260 587h425l-147 -702h-149l123 582h-148q-35 -167 -88 -301.5t-121.5 -217t-138.5 -82.5z" />
    <glyph glyph-name="afii10030" unicode="&#x41c;" horiz-adv-x="871" 
d="M46 0l148 702l1 -3v3h136l122 -419h4l291 419h161l-148 -702h-143l93 472h-4l-226 -339h-99l-97 339h-3l-93 -472h-143z" />
    <glyph glyph-name="afii10031" unicode="&#x41d;" horiz-adv-x="692" 
d="M46 0l148 702h149l-62 -295h239l62 295h148l-148 -702h-148l62 293h-239l-62 -293h-149z" />
    <glyph glyph-name="afii10032" unicode="&#x41e;" horiz-adv-x="716" 
d="M227 277q0 -79 32 -124t93 -45q100 0 159.5 90.5t59.5 225.5q0 78 -31.5 124t-91.5 46q-99 0 -160 -91.5t-61 -225.5zM72 254q0 201 111 333t294 132q122 0 186 -73t64 -199q0 -132 -49 -237t-142 -166.5t-215 -61.5q-121 0 -185 73t-64 199z" />
    <glyph glyph-name="afii10033" unicode="&#x41f;" horiz-adv-x="676" 
d="M46 0l148 702h519l-148 -702h-148l118 582h-219l-121 -582h-149z" />
    <glyph glyph-name="afii10034" unicode="&#x420;" horiz-adv-x="562" 
d="M254 332h47q66 0 108 45.5t42 135.5q0 92 -95 92q-13 0 -45 -2zM46 0l148 702q106 17 190 17q223 0 223 -179q0 -78 -28.5 -141t-74 -100.5t-97 -57t-102.5 -19.5h-74l-46 -222h-139z" />
    <glyph glyph-name="afii10035" unicode="&#x421;" horiz-adv-x="574" 
d="M72 255q0 204 112.5 334t293.5 130q54 0 99.5 -9.5t64.5 -18.5l19 -9l-47 -116q-60 28 -143 28q-115 0 -179.5 -86.5t-64.5 -225.5q0 -84 38.5 -129t113.5 -45q41 0 78.5 6t54.5 12l17 7l-8 -114q-7 -4 -21.5 -10t-64.5 -16.5t-106 -10.5q-125 0 -191 72t-66 201z" />
    <glyph glyph-name="afii10036" unicode="&#x422;" horiz-adv-x="492" 
d="M98 582l29 120h469l-28 -120h-158l-121 -582h-149l122 582h-164z" />
    <glyph glyph-name="afii10037" unicode="&#x423;" horiz-adv-x="608" 
d="M115 702h165l81 -410h4l203 410h158l-300 -508q-68 -114 -136 -163t-154 -49l-11 125q82 0 137 63z" />
    <glyph glyph-name="afii10038" unicode="&#x424;" horiz-adv-x="798" 
d="M471 187q99 1 147.5 56t48.5 155q0 114 -127 118zM214 310q0 -116 125 -120l69 328q-194 -4 -194 -208zM72 289q0 112 47.5 187.5t125.5 109t185 35.5l17 81h133l-17 -81q245 -5 245 -202q0 -165 -98.5 -250t-261.5 -87l-17 -82h-132l17 82q-115 2 -179.5 53t-64.5 154z
" />
    <glyph glyph-name="afii10039" unicode="&#x425;" horiz-adv-x="648" 
d="M-28 0l303 349v1l-151 352h170l95 -253l197 253h170l-300 -351l156 -351h-175l-94 252l-194 -252h-177z" />
    <glyph glyph-name="afii10040" unicode="&#x426;" horiz-adv-x="712" 
d="M46 0l148 702h149l-119 -582h218l123 582h148l-122 -582h80l-79 -292h-111l30 172h-465z" />
    <glyph glyph-name="afii10041" unicode="&#x427;" horiz-adv-x="626" 
d="M116 421l60 281h148l-52 -253q-5 -28 -5 -43q0 -65 71 -65q59 0 108 28l70 333h149l-149 -702h-148l55 263h-2q-6 -5 -19 -13.5t-56.5 -22t-93.5 -13.5q-144 0 -144 135q0 30 8 72z" />
    <glyph glyph-name="afii10042" unicode="&#x428;" horiz-adv-x="922" 
d="M46 0l148 702h149l-119 -582h157l122 582h149l-122 -582h159l123 582h148l-123 -582h1l-26 -120h-766z" />
    <glyph glyph-name="afii10043" unicode="&#x429;" horiz-adv-x="959" 
d="M46 0l148 702h149l-119 -582h157l122 582h149l-122 -582h159l123 582h148l-123 -582h80l-79 -292h-110l29 172h-711z" />
    <glyph glyph-name="afii10044" unicode="&#x42a;" horiz-adv-x="732" 
d="M368 97q40 -2 57 -2q153 0 153 157q0 87 -108 87h-51zM98 582l29 120h369l-54 -253h53q229 0 229 -170q0 -48 -9 -88.5t-32 -80t-59 -67t-94 -44.5t-134 -17q-49 0 -98 4.5t-74 9.5l-25 4l122 582h-223z" />
    <glyph glyph-name="afii10045" unicode="&#x42b;" horiz-adv-x="874" 
d="M615 0l148 702h149l-148 -702h-149zM215 97q40 -2 57 -2q153 0 153 157q0 87 -108 87h-51zM46 0l148 702h149l-54 -253h53q229 0 229 -170q0 -48 -9 -88.5t-32 -80t-59 -67t-94 -44.5t-134 -17q-49 0 -98 4.5t-74 9.5z" />
    <glyph glyph-name="afii10046" unicode="&#x42c;" horiz-adv-x="579" 
d="M215 97q40 -2 57 -2q153 0 153 157q0 87 -108 87h-51zM46 0l148 702h149l-54 -253h53q229 0 229 -170q0 -48 -9 -88.5t-32 -80t-59 -67t-94 -44.5t-134 -17q-49 0 -98 4.5t-74 9.5z" />
    <glyph glyph-name="afii10047" unicode="&#x42d;" horiz-adv-x="570" 
d="M6 25l46 112q52 -34 147 -34q81 0 135.5 52t77.5 148h-261l26 106h250q0 6 0.5 19.5t0.5 20.5q0 74 -31.5 111.5t-103.5 37.5q-33 0 -69.5 -7t-56.5 -13l-20 -7l7 112q67 36 187 36q122 0 181.5 -70.5t59.5 -192.5q0 -208 -105 -341t-289 -133q-39 0 -72.5 4.5t-53 11
t-33 12.5t-18.5 10z" />
    <glyph glyph-name="afii10048" unicode="&#x42e;" horiz-adv-x="986" 
d="M497 277q0 -79 32 -124t93 -45q99 0 159 90.5t60 224.5q0 79 -31.5 125t-92.5 46q-99 0 -159.5 -91.5t-60.5 -225.5zM46 0l148 702h149l-62 -295h94q38 141 136.5 226.5t235.5 85.5q122 0 186 -73t64 -199q0 -202 -111.5 -333.5t-294.5 -131.5q-115 0 -175 72t-60 197
q0 28 1 42h-100l-62 -293h-149z" />
    <glyph glyph-name="afii10049" unicode="&#x42f;" horiz-adv-x="599" 
d="M257 453q0 -40 19.5 -64.5t53.5 -24.5h97l50 238q-39 3 -78 3q-71 0 -106.5 -43.5t-35.5 -108.5zM3 0l194 277q-85 45 -85 158q0 126 88.5 205t225.5 79q51 0 104 -4.5t80 -8.5l27 -4l-148 -702h-138l54 256h-77l-173 -256h-152z" />
    <glyph glyph-name="afii10065" unicode="&#x430;" horiz-adv-x="536" 
d="M189 195q0 -97 60 -97q41 0 74 33l53 266q-18 6 -45 6q-67 0 -104.5 -54t-37.5 -154zM38 172q0 163 82.5 255t236.5 92q54 0 101 -6t67 -12l20 -6l-73 -339h1q-3 -12 -3 -22q0 -22 11 -33t29 -11l-67 -108q-87 0 -112 57h-5q-4 -6 -12.5 -15.5t-44 -25.5t-82.5 -16
q-70 0 -109.5 50t-39.5 140z" />
    <glyph glyph-name="afii10066" unicode="&#x431;" horiz-adv-x="523" 
d="M193 195q0 -103 62 -103q51 0 82 55.5t31 121.5q0 84 -68 84q-45 0 -99 -24q-8 -57 -8 -134zM46 212q0 119 44.5 239t128.5 203.5t183 83.5h176l-39 -141h-114q-144 0 -200 -166h4q58 38 142 38q66 0 109 -43t43 -119q0 -143 -83.5 -234t-207.5 -91q-96 0 -141 57
t-45 173z" />
    <glyph glyph-name="afii10067" unicode="&#x432;" horiz-adv-x="475" 
d="M212 304h104h9q33 21 33 62q0 45 -66 45q-12 0 -58 -4zM168 95q45 -5 68 -5q42 0 67.5 22t25.5 58q0 46 -65 46h-70zM12 2l104 496q83 21 193 21q175 0 175 -107q0 -87 -78 -137q50 -36 50 -96q0 -91 -64 -144t-189 -53q-54 0 -101.5 5t-68.5 10z" />
    <glyph glyph-name="afii10068" unicode="&#x433;" horiz-adv-x="391" 
d="M29 100q0 45 24.5 82t60 60.5t71 42.5t60 37.5t24.5 37.5q0 40 -64 40q-25 0 -54.5 -5t-46.5 -10l-16 -5l16 111q72 27 170 27q67 0 101.5 -33.5t34.5 -84.5q0 -45 -25 -82.5t-60 -61t-70.5 -43t-60.5 -40t-25 -40.5q0 -18 13 -29.5t38 -11.5q22 0 48.5 6.5t41.5 13.5
l16 6l-13 -107q-38 -29 -148 -29q-68 0 -102 33t-34 85z" />
    <glyph glyph-name="afii10069" unicode="&#x434;" horiz-adv-x="508" 
d="M187 189q0 -97 65 -97q52 0 84.5 66t46.5 168q-39 27 -85 27q-53 0 -82 -45t-29 -119zM39 184q0 131 72 208t162 77q34 0 62 -10.5t39 -20.5l10 -11h8q1 17 1 50q0 120 -75 120h-119l37 141h122q86 0 127.5 -55t41.5 -173q0 -109 -15.5 -199.5t-48.5 -166.5t-94 -119
t-145 -43q-90 0 -137.5 56t-47.5 146z" />
    <glyph glyph-name="afii10070" unicode="&#x435;" horiz-adv-x="454" 
d="M190 299h99q63 0 63 56q0 25 -13.5 41.5t-43.5 16.5q-36 0 -64.5 -31t-40.5 -83zM37 171q0 149 78.5 248.5t190.5 99.5q80 0 124 -45.5t44 -114.5q0 -152 -141 -152h-154l-1 -13v-13q0 -46 23 -67.5t74 -21.5q26 0 54.5 6.5t44.5 13.5l15 6l-13 -107q-38 -29 -148 -29
q-86 0 -138.5 48.5t-52.5 140.5z" />
    <glyph glyph-name="afii10072" unicode="&#x436;" horiz-adv-x="695" 
d="M-32 0l188 265l-82 235h152l47 -188h37l40 188h140l-40 -188h38l121 188h165l-192 -244l81 -256h-153l-45 214h-35l-45 -214h-141l45 214h-36l-127 -214h-158z" />
    <glyph glyph-name="afii10073" unicode="&#x437;" horiz-adv-x="413" 
d="M2 12l39 113q49 -24 111 -24q42 0 70 18t28 54q0 21 -18.5 32.5t-48.5 11.5h-78l22 92h81q27 0 48 11.5t21 39.5q0 19 -20.5 30t-49.5 11q-26 0 -55.5 -5t-46.5 -10l-17 -5l16 111q73 27 170 27q154 0 154 -114q0 -92 -93 -134q21 -10 38 -35.5t17 -61.5
q0 -92 -62.5 -142t-169.5 -50q-52 0 -91 7.5t-52 14.5z" />
    <glyph glyph-name="afii10074" unicode="&#x438;" horiz-adv-x="536" 
d="M42 161l71 339h144l-64 -312q-2 -8 -2 -22q0 -31 16.5 -49.5t39.5 -18.5q45 0 74 32l77 370h145l-70 -344q-3 -12 -3 -23q0 -43 40 -43l-68 -108q-88 0 -113 57h-2q-4 -6 -12.5 -15.5t-43.5 -25.5t-79 -16q-69 0 -112 34.5t-43 99.5q0 18 5 45z" />
    <glyph glyph-name="afii10075" unicode="&#x439;" horiz-adv-x="536" 
d="M202 628l54 88q4 -4 12 -9.5t40 -14.5t72 -9t74 8.5t48 16.5l14 8l13 -88q-6 -5 -17.5 -12t-56.5 -19t-99 -12q-53 0 -91.5 10.5t-50.5 21.5zM42 161l71 339h144l-64 -312q-2 -8 -2 -22q0 -31 16.5 -49.5t39.5 -18.5q45 0 74 32l77 370h145l-70 -344q-3 -12 -3 -23
q0 -43 40 -43l-68 -108q-88 0 -113 57h-2q-4 -6 -12.5 -15.5t-43.5 -25.5t-79 -16q-69 0 -112 34.5t-43 99.5q0 18 5 45z" />
    <glyph glyph-name="afii10076" unicode="&#x43a;" horiz-adv-x="473" 
d="M12 0l105 500h144l-41 -195h33l131 195h160l-187 -231l82 -269h-160l-44 201h-37l-42 -201h-144z" />
    <glyph glyph-name="afii10077" unicode="&#x43b;" horiz-adv-x="495" 
d="M-9 90q110 0 190 410h343l-105 -500h-145l80 382h-81q-18 -81 -38 -143.5t-51 -125t-75.5 -97t-98.5 -34.5z" />
    <glyph glyph-name="afii10078" unicode="&#x43c;" horiz-adv-x="645" 
d="M12 0l105 500h160l65 -275h1l171 275h160l-105 -500h-128l52 280l19 53h-4l-163 -263h-82l-61 261h-3l-8 -52l-52 -279h-127z" />
    <glyph glyph-name="afii10079" unicode="&#x43d;" 
d="M12 0l105 500h144l-40 -188h139l40 188h144l-105 -500h-144l42 201h-139l-42 -201h-144z" />
    <glyph glyph-name="afii10080" unicode="&#x43e;" horiz-adv-x="523" 
d="M189 188q0 -96 63 -96q44 0 73 33.5t40.5 81t11.5 107.5q0 93 -65 93q-58 0 -90.5 -59t-32.5 -160zM41 181q0 153 77 245t214 92q92 0 143.5 -50.5t51.5 -138.5q0 -151 -82 -249.5t-212 -98.5q-91 0 -141.5 53.5t-50.5 146.5z" />
    <glyph glyph-name="afii10081" unicode="&#x43f;" horiz-adv-x="511" 
d="M12 0l102 488q97 31 273 31q132 0 132 -121q0 -20 -7 -59l-72 -339h-144l64 312q2 8 2 23q0 54 -60 54q-42 0 -67 -5l-79 -384h-144z" />
    <glyph glyph-name="afii10082" unicode="&#x440;" 
d="M182 128q23 -30 63 -30q49 0 86 56.5t37 149.5q0 99 -87 99q-13 0 -43 -5zM-35 -220l149 708q85 31 198 31q209 0 209 -184q0 -146 -78.5 -249.5t-188.5 -103.5q-31 0 -53.5 9t-29.5 19l-7 9h-5l-50 -239h-144z" />
    <glyph glyph-name="afii10083" unicode="&#x441;" horiz-adv-x="413" 
d="M40 183q0 153 84.5 244.5t212.5 91.5q37 0 67 -7t42 -14l12 -7l-40 -114q-32 24 -80 24q-63 0 -104 -49.5t-41 -143.5q0 -52 24.5 -79.5t61.5 -27.5q23 0 46.5 6.5t34.5 12.5l12 6l-15 -115q-34 -29 -134 -29q-90 0 -136.5 54t-46.5 147z" />
    <glyph glyph-name="afii10084" unicode="&#x442;" horiz-adv-x="725" 
d="M12 0l102 488q96 31 227 31q80 0 116 -30q85 30 142 30q70 0 102 -26t32 -81q0 -26 -8 -63l-72 -349h-144l66 326q3 15 3 25q0 38 -43 38q-32 0 -52 -14q-1 -2 -1 -4l-77 -371h-145l69 341q1 6 1 15q0 33 -42 33q-28 0 -53 -5l-79 -384h-144z" />
    <glyph glyph-name="afii10085" unicode="&#x443;" horiz-adv-x="480" 
d="M9 -117q40 0 80 31t70 79l-87 507h160l24 -367h3l137 367h159l-245 -484q-128 -255 -287 -255z" />
    <glyph glyph-name="afii10086" unicode="&#x444;" horiz-adv-x="678" 
d="M394 88q41 2 69.5 24.5t42 58t19 69t5.5 70.5q0 94 -69 102zM185 199q0 -104 71 -111l69 325q-41 -1 -70 -21t-43.5 -53t-20.5 -67.5t-6 -72.5zM41 175q0 155 84 248.5t222 95.5l6 27q21 97 75 144.5t153 47.5l17 -118q-46 0 -73.5 -19.5t-37.5 -66.5l-3 -15
q198 -3 198 -185q0 -153 -86 -251.5t-224 -100.5l-42 -202h-139l42 202q-192 3 -192 193z" />
    <glyph glyph-name="afii10087" unicode="&#x445;" horiz-adv-x="484" 
d="M-33 0l207 249l-101 251h168l38 -173h4l106 173h168l-205 -248l100 -252h-168l-36 182h-4l-108 -182h-169z" />
    <glyph glyph-name="afii10088" unicode="&#x446;" horiz-adv-x="550" 
d="M41 161l72 339h143l-63 -312q-3 -14 -3 -24q0 -53 62 -53q20 0 37 1.5t23 3.5l7 2l78 382h145l-79 -376l67 9l-86 -286h-114l29 147q-80 -12 -154 -12q-89 0 -130 30t-41 91q0 21 7 58z" />
    <glyph glyph-name="afii10089" unicode="&#x447;" horiz-adv-x="477" 
d="M58 302l43 198h147l-37 -177q-3 -13 -3 -24q0 -41 44 -41q30 0 60 5l50 237h145l-106 -500h-145l36 169h-5q-37 -9 -109 -9q-125 0 -125 100q0 17 5 42z" />
    <glyph glyph-name="afii10090" unicode="&#x448;" horiz-adv-x="726" 
d="M41 151l73 349h144l-66 -326q-3 -15 -3 -26q0 -37 43 -37q32 0 52 14q0 2 1 4l77 371h144l-68 -341q-2 -12 -2 -16q0 -32 43 -32q35 0 53 6l79 383h144l-102 -488q-96 -31 -227 -31q-81 0 -117 30q-85 -30 -142 -30q-69 0 -101 26.5t-32 81.5q0 30 7 62z" />
    <glyph glyph-name="afii10091" unicode="&#x449;" horiz-adv-x="763" 
d="M41 151l73 349h144l-66 -326q-3 -15 -3 -26q0 -37 43 -37q32 0 52 14q0 2 1 4l77 371h144l-68 -341q-2 -12 -2 -16q0 -32 43 -32q35 0 53 6l79 383h144l-79 -376l67 9l-85 -286h-115l29 147q-72 -13 -146 -13q-81 0 -117 30q-85 -30 -142 -30q-69 0 -101 26.5t-32 81.5
q0 30 7 62z" />
    <glyph glyph-name="afii10092" unicode="&#x44a;" horiz-adv-x="580" 
d="M287 91q30 -3 50 -3q46 0 71.5 25.5t25.5 72.5q0 25 -19.5 37.5t-44.5 12.5h-53zM44 382l29 118h300l-33 -157h56q84 0 130.5 -34.5t46.5 -98.5q0 -45 -12.5 -83.5t-40.5 -72t-80.5 -53t-125.5 -19.5q-48 0 -95.5 5t-70.5 10l-24 5l80 380h-160z" />
    <glyph glyph-name="afii10093" unicode="&#x44b;" horiz-adv-x="700" 
d="M480 0l105 500h144l-105 -500h-144zM143 91q30 -3 50 -3q46 0 71.5 25.5t25.5 72.5q0 25 -19.5 37.5t-44.5 12.5h-53zM-20 2l105 498h144l-33 -157h56q84 0 130.5 -34.5t46.5 -98.5q0 -45 -12.5 -83.5t-40.5 -72t-80.5 -53t-125.5 -19.5q-48 0 -95.5 5t-70.5 10z" />
    <glyph glyph-name="afii10094" unicode="&#x44c;" horiz-adv-x="468" 
d="M175 91q30 -3 50 -3q46 0 71.5 25.5t25.5 72.5q0 25 -19.5 37.5t-44.5 12.5h-53zM12 2l105 498h144l-33 -157h56q84 0 130.5 -34.5t46.5 -98.5q0 -45 -12.5 -83.5t-40.5 -72t-80.5 -53t-125.5 -19.5q-48 0 -95.5 5t-70.5 10z" />
    <glyph glyph-name="afii10095" unicode="&#x44d;" horiz-adv-x="452" 
d="M2 12l39 113q58 -24 130 -24q116 0 142 110h-207l22 92h194q-2 98 -94 98q-32 0 -67 -5t-54 -10l-19 -5l16 111q47 27 154 27q98 0 147.5 -52t49.5 -142q0 -160 -81 -251.5t-230 -91.5q-47 0 -82.5 7.5t-47.5 14.5z" />
    <glyph glyph-name="afii10096" unicode="&#x44e;" horiz-adv-x="704" 
d="M384 184q0 -92 55 -92q57 0 88 68t31 158q0 89 -57 89q-54 0 -85.5 -60t-31.5 -163zM12 0l105 500h144l-40 -188h46q27 96 92 151t161 55q89 0 139 -50.5t50 -137.5q0 -152 -80.5 -250.5t-207.5 -98.5q-82 0 -126.5 52t-44.5 142v26h-52l-42 -201h-144z" />
    <glyph glyph-name="afii10097" unicode="&#x44f;" horiz-adv-x="476" 
d="M201 318q0 -26 17.5 -41t45.5 -15h3h43l32 151q-17 1 -44 1q-47 0 -72 -26.5t-25 -69.5zM-8 0l139 202q-62 32 -62 108q0 90 60 149.5t179 59.5q45 0 94.5 -4.5t76.5 -9.5l27 -5l-106 -500h-144l38 183h-44l-108 -183h-150z" />
    <glyph glyph-name="uni0450" unicode="&#x450;" horiz-adv-x="454" 
d="M255 702l138 15l7 -123l-102 -7zM190 299h99q63 0 63 56q0 25 -13.5 41.5t-43.5 16.5q-36 0 -64.5 -31t-40.5 -83zM37 171q0 149 78.5 248.5t190.5 99.5q80 0 124 -45.5t44 -114.5q0 -152 -141 -152h-154l-1 -13v-13q0 -46 23 -67.5t74 -21.5q26 0 54.5 6.5t44.5 13.5
l15 6l-13 -107q-38 -29 -148 -29q-86 0 -138.5 48.5t-52.5 140.5z" />
    <glyph glyph-name="afii10071" unicode="&#x451;" horiz-adv-x="454" 
d="M369 635q0 31 25 52.5t55 21.5q23 0 37.5 -14t14.5 -36q0 -32 -25 -53t-56 -21q-22 0 -36.5 14t-14.5 36zM190 299h99q63 0 63 56q0 25 -13.5 41.5t-43.5 16.5q-36 0 -64.5 -31t-40.5 -83zM178 635q0 31 25 52.5t54 21.5q23 0 38 -14t15 -36q0 -31 -25.5 -52.5
t-55.5 -21.5q-22 0 -36.5 14t-14.5 36zM37 171q0 149 78.5 248.5t190.5 99.5q80 0 124 -45.5t44 -114.5q0 -152 -141 -152h-154l-1 -13v-13q0 -46 23 -67.5t74 -21.5q26 0 54.5 6.5t44.5 13.5l15 6l-13 -107q-38 -29 -148 -29q-86 0 -138.5 48.5t-52.5 140.5z" />
    <glyph glyph-name="afii10099" unicode="&#x452;" horiz-adv-x="503" 
d="M19 0l105 501h-49l17 69l52 26l26 125h144l-25 -116h159l-25 -104h-155l-28 -133h5q39 24 123 24q130 0 130 -120q0 -22 -7 -60l-48 -237q-20 -99 -78 -156.5t-145 -57.5l-18 121q41 0 67.5 36.5t36.5 91.5l34 175q2 16 2 22q0 56 -59 56q-34 0 -67 -9l-53 -254h-144z
" />
    <glyph glyph-name="afii10100" unicode="&#x453;" horiz-adv-x="391" 
d="M197 594l60 123l134 -15l-93 -116zM29 100q0 45 24.5 82t60 60.5t71 42.5t60 37.5t24.5 37.5q0 40 -64 40q-25 0 -54.5 -5t-46.5 -10l-16 -5l16 111q72 27 170 27q67 0 101.5 -33.5t34.5 -84.5q0 -45 -25 -82.5t-60 -61t-70.5 -43t-60.5 -40t-25 -40.5q0 -18 13 -29.5
t38 -11.5q22 0 48.5 6.5t41.5 13.5l16 6l-13 -107q-38 -29 -148 -29q-68 0 -102 33t-34 85z" />
    <glyph glyph-name="afii10101" unicode="&#x454;" horiz-adv-x="424" 
d="M40 183q0 153 84.5 244.5t212.5 91.5q37 0 67 -7t42 -14l12 -7l-40 -114q-38 24 -97 24q-112 0 -142 -109h199l-29 -90h-180q1 -51 27.5 -76t71.5 -25q25 0 51 6.5t39 12.5l14 6l-15 -115q-34 -29 -134 -29q-90 0 -136.5 54t-46.5 147z" />
    <glyph glyph-name="afii10102" unicode="&#x455;" horiz-adv-x="405" 
d="M2 12l38 110q45 -24 106 -24q45 0 72 18t27 43q0 19 -27.5 32.5t-61 23t-61 37.5t-27.5 73q0 85 55.5 139.5t146.5 54.5q40 0 77 -6.5t53 -13.5l17 -7l-37 -108q-62 20 -106 20q-33 0 -54 -14t-21 -38q0 -17 18.5 -29t45 -21.5t53 -22t45 -37t18.5 -59.5q0 -89 -54 -145
t-178 -56q-40 0 -76 7.5t-53 14.5z" />
    <glyph glyph-name="afii10103" unicode="&#x456;" horiz-adv-x="264" 
d="M144 638q0 40 26 62.5t67 22.5q60 0 60 -51q0 -40 -26.5 -63.5t-66.5 -23.5q-27 0 -43.5 14t-16.5 39zM50 177l67 323h144l-58 -288q-5 -27 -5 -43q0 -65 63 -65l-76 -122q-143 0 -143 128q0 27 8 67z" />
    <glyph glyph-name="afii10104" unicode="&#x457;" horiz-adv-x="264" 
d="M249 635q0 31 25 52.5t55 21.5q23 0 37.5 -14t14.5 -36q0 -32 -25 -53t-56 -21q-22 0 -36.5 14t-14.5 36zM58 635q0 31 25 52.5t54 21.5q23 0 38 -14t15 -36q0 -31 -25.5 -52.5t-55.5 -21.5q-22 0 -36.5 14t-14.5 36zM50 177l67 323h144l-58 -288q-5 -27 -5 -43
q0 -65 63 -65l-76 -122q-143 0 -143 128q0 27 8 67z" />
    <glyph glyph-name="afii10105" unicode="&#x458;" horiz-adv-x="249" 
d="M158 638q0 40 26 62.5t67 22.5q60 0 60 -51q0 -40 -26.5 -63.5t-66.5 -23.5q-27 0 -43.5 14t-16.5 39zM-77 -118q77 0 100 108l105 510h146l-115 -545q-41 -194 -220 -194z" />
    <glyph glyph-name="afii10106" unicode="&#x459;" horiz-adv-x="694" 
d="M401 91q30 -3 50 -3q46 0 71.5 25.5t25.5 72.5q0 25 -19.5 37.5t-44.5 12.5h-53zM-46 90q111 0 190 410h343l-33 -157h56q84 0 130.5 -34.5t46.5 -98.5q0 -45 -12.5 -83.5t-40.5 -72t-80.5 -53t-125.5 -19.5q-48 0 -95.5 5t-70.5 10l-24 5l80 380h-81
q-15 -64 -29.5 -114.5t-38 -106.5t-50 -93t-64 -61.5t-81.5 -24.5z" />
    <glyph glyph-name="afii10107" unicode="&#x45a;" horiz-adv-x="720" 
d="M427 91q30 -3 50 -3q46 0 71.5 25.5t25.5 72.5q0 25 -19.5 37.5t-44.5 12.5h-53zM-20 0l105 500h144l-40 -188h140l40 188h144l-33 -157h56q84 0 130.5 -34.5t46.5 -98.5q0 -45 -12.5 -83.5t-40.5 -72t-80.5 -53t-125.5 -19.5q-48 0 -95.5 5t-70.5 10l-24 5l42 199h-140
l-42 -201h-144z" />
    <glyph glyph-name="afii10108" unicode="&#x45b;" horiz-adv-x="503" 
d="M19 0l105 503h-49l17 69l52 26l26 123h144l-24 -114h158l-24 -104h-156l-28 -135h5q39 24 123 24q130 0 130 -120q0 -22 -7 -60l-43 -212h-144l36 185q2 8 2 23q0 55 -59 55q-34 0 -67 -9l-53 -254h-144z" />
    <glyph glyph-name="afii10109" unicode="&#x45c;" horiz-adv-x="473" 
d="M249 594l60 123l134 -15l-93 -116zM-20 0l105 500h144l-41 -195h33l131 195h160l-187 -231l82 -269h-160l-44 201h-37l-42 -201h-144z" />
    <glyph glyph-name="uni045D" unicode="&#x45d;" horiz-adv-x="536" 
d="M276 702l138 15l7 -123l-102 -7zM42 161l71 339h144l-64 -312q-2 -8 -2 -22q0 -31 16.5 -49.5t39.5 -18.5q45 0 74 32l77 370h145l-70 -344q-3 -12 -3 -23q0 -43 40 -43l-68 -108q-88 0 -113 57h-2q-4 -6 -12.5 -15.5t-43.5 -25.5t-79 -16q-69 0 -112 34.5t-43 99.5
q0 18 5 45z" />
    <glyph glyph-name="afii10110" unicode="&#x45e;" horiz-adv-x="480" 
d="M179 628l54 88q4 -4 12 -9.5t40 -14.5t72 -9t74 8.5t48 16.5l14 8l13 -88q-6 -5 -17.5 -12t-56.5 -19t-99 -12q-53 0 -91.5 10.5t-50.5 21.5zM9 -117q40 0 80 31t70 79l-87 507h160l24 -367h3l137 367h159l-245 -484q-128 -255 -287 -255z" />
    <glyph glyph-name="afii10193" unicode="&#x45f;" horiz-adv-x="535" 
d="M12 0l105 500h144l-77 -382h156l81 382h144l-105 -500h-156l-42 -153h-114l23 153h-159z" />
    <glyph glyph-name="afii10050" unicode="&#x490;" horiz-adv-x="440" 
d="M46 0l148 702h253l30 108h100l-45 -228h-215l-122 -582h-149z" />
    <glyph glyph-name="afii10098" unicode="&#x491;" horiz-adv-x="332" 
d="M11 0l106 500h169l40 124h98l-46 -242h-145l-77 -382h-145z" />
    <glyph glyph-name="endash" unicode="&#x2013;" horiz-adv-x="521" 
d="M37 218l27 115h472l-27 -115h-472z" />
    <glyph glyph-name="emdash" unicode="&#x2014;" horiz-adv-x="674" 
d="M37 218l27 115h624l-26 -115h-625z" />
    <glyph glyph-name="afii00208" unicode="&#x2015;" horiz-adv-x="674" 
d="M5 218l27 115h624l-26 -115h-625z" />
    <glyph glyph-name="quoteleft" unicode="&#x2018;" horiz-adv-x="195" 
d="M91 409q-5 32 -5 54q0 52 18 100t44 78.5t52 53.5t44 33l18 10l51 -53q-3 -3 -8.5 -9t-20 -26t-25 -42.5t-19.5 -57t-9 -70.5q0 -22 5 -54z" />
    <glyph glyph-name="quoteright" unicode="&#x2019;" horiz-adv-x="195" 
d="M61 461q3 3 8.5 9t20 26t25 42t19.5 57t9 71q0 22 -5 54l145 16q5 -32 5 -53q0 -52 -18 -99.5t-44 -78t-52 -53.5t-44 -34l-18 -10z" />
    <glyph glyph-name="quotesinglbase" unicode="&#x201a;" horiz-adv-x="195" 
d="M-79 -64q3 3 8.5 9t20 26t25 42t19.5 57t9 71q0 22 -5 54l145 16q5 -32 5 -53q0 -52 -18 -99.5t-44 -78t-52 -53.5t-44 -33l-18 -11z" />
    <glyph glyph-name="quotedblleft" unicode="&#x201c;" horiz-adv-x="390" 
d="M254 409q-5 32 -5 54q0 52 18 100t44 78.5t52 53.5t44 33l18 10l51 -53q-3 -3 -8.5 -9t-20 -26t-25 -42.5t-19.5 -57t-9 -70.5q0 -22 5 -54zM59 409q-5 32 -5 54q0 52 18 100t44 78.5t52 53.5t44 33l18 10l51 -53q-3 -3 -8.5 -9t-20 -26t-25 -42.5t-19.5 -57t-9 -70.5
q0 -22 5 -54z" />
    <glyph glyph-name="quotedblright" unicode="&#x201d;" horiz-adv-x="389" 
d="M224 461q3 3 8.5 9t20 26t25 42t19.5 57t9 71q0 22 -5 54l145 16q5 -32 5 -53q0 -52 -18 -99.5t-44 -78t-52 -53.5t-44 -34l-18 -10zM29 461q3 3 8.5 9t20 26t25 42t19.5 57t9 71q0 22 -5 54l145 16q5 -32 5 -53q0 -52 -18 -99.5t-44 -78t-52 -53.5t-44 -34l-18 -10z" />
    <glyph glyph-name="quotedblbase" unicode="&#x201e;" horiz-adv-x="390" 
d="M115 -64q3 3 8.5 9t20 26t25 42t19.5 57t9 71q0 22 -5 54l145 16q5 -32 5 -53q0 -52 -18 -99.5t-44 -78t-52 -53.5t-44 -33l-18 -11zM-79 -64q3 3 8.5 9t20 26t25 42t19.5 57t9 71q0 22 -5 54l145 16q5 -32 5 -53q0 -52 -18 -99.5t-44 -78t-52 -53.5t-44 -33l-18 -11z
" />
    <glyph glyph-name="dagger" unicode="&#x2020;" horiz-adv-x="451" 
d="M70 308l28 112h127l35 165h116l-36 -165h130l-28 -112h-114l-126 -533h-110l96 533h-118z" />
    <glyph glyph-name="daggerdbl" unicode="&#x2021;" horiz-adv-x="451" 
d="M-8 -73l27 113h129l43 140l8 141h-128l27 112h125l34 152h120l-35 -152h129l-27 -112h-128l-43 -141l-12 -140h130l-27 -113h-125l-34 -152h-119l34 152h-128z" />
    <glyph glyph-name="bullet" unicode="&#x2022;" horiz-adv-x="384" 
d="M66 240q-27 32 -27 76q0 40 21.5 80t59.5 68q55 40 123 40t102 -40q28 -31 28 -77q0 -39 -21 -78.5t-59 -68.5q-53 -40 -123 -40q-68 0 -104 40z" />
    <glyph glyph-name="ellipsis" unicode="&#x2026;" horiz-adv-x="824" 
d="M551 5q-15 17 -15 40q0 48 44 79q31 22 65 22q36 0 55 -22q15 -16 15 -41q0 -45 -43 -78q-31 -22 -65 -22q-36 0 -56 22zM287 5q-15 16 -15 40q0 48 44 79q31 22 65 22q36 0 55 -22q15 -16 15 -41q0 -45 -43 -78q-31 -22 -65 -22q-36 0 -56 22zM24 5q-15 16 -15 40
q0 48 44 79q31 22 65 22q36 0 55 -22q15 -16 15 -41q0 -45 -43 -78q-31 -22 -65 -22q-36 0 -56 22z" />
    <glyph glyph-name="perthousand" unicode="&#x2030;" horiz-adv-x="1292" 
d="M1001 151q0 -60 43 -60q40 0 60.5 37.5t20.5 89.5q0 62 -45 62q-38 0 -58.5 -36.5t-20.5 -92.5zM879 131q0 111 63 184t164 73q66 0 102.5 -41.5t36.5 -111.5q0 -107 -62 -179.5t-165 -72.5q-69 0 -104 39.5t-35 108.5zM619 151q0 -60 43 -60q40 0 60.5 37.5t20.5 89.5
q0 62 -45 62q-38 0 -58.5 -36.5t-20.5 -92.5zM497 131q0 111 63 184t164 73q66 0 102.5 -41.5t36.5 -111.5q0 -107 -62 -179.5t-165 -72.5q-69 0 -104 39.5t-35 108.5zM187 461q0 -60 43 -60q40 0 60.5 37.5t20.5 89.5q0 62 -45 62q-38 0 -58.5 -36.5t-20.5 -92.5zM187 0
l440 702h123l-440 -702h-123zM65 441q0 111 63 184t164 73q66 0 102.5 -41.5t36.5 -111.5q0 -107 -62 -179.5t-165 -72.5q-69 0 -104 39.5t-35 108.5z" />
    <glyph glyph-name="guilsinglleft" unicode="&#x2039;" horiz-adv-x="345" 
d="M94 250l199 186l46 -70l-123 -115l75 -120l-80 -72z" />
    <glyph glyph-name="guilsinglright" unicode="&#x203a;" horiz-adv-x="346" 
d="M46 129l123 115l-74 120l79 72l118 -191l-200 -186z" />
    <glyph glyph-name="Euro" unicode="&#x20ac;" horiz-adv-x="597" 
d="M60 257l13 56h49q5 51 13 87l-42 13l13 55h49q41 116 126 183.5t215 67.5q48 0 87 -10.5t55 -21.5l15 -11l-39 -101q-67 31 -119 31q-144 0 -198 -138h252l-18 -78h-256q-6 -37 -9 -77h251l-19 -79h-234q2 -72 33.5 -105.5t97.5 -33.5q22 0 54.5 7.5t54.5 15.5l21 8
l-8 -99q-8 -5 -22 -12.5t-60 -20t-94 -12.5q-114 0 -168.5 67t-54.5 185v5z" />
    <glyph glyph-name="uni20B4" unicode="&#x20b4;" horiz-adv-x="561" 
d="M64 237l16 70l113 7q22 17 64.5 45t53.5 36h-214l17 71h275q20 28 20 59q0 74 -101 74q-27 0 -60 -7t-53 -14l-20 -7l8 112q68 37 173 37t156 -40t51 -110q0 -56 -33 -104h51l-16 -63l-105 -7q-23 -17 -68 -45.5l-54 -34.5h212l-19 -79h-282q-19 -29 -19 -60
q0 -74 102 -74q27 0 60 6.5t52 13.5l20 7l-7 -111q-67 -37 -173 -37q-104 0 -155.5 40t-51.5 110q0 57 35 105h-48z" />
    <glyph glyph-name="afii61352" unicode="&#x2116;" horiz-adv-x="1102" 
d="M891 505q0 -60 43 -60q40 0 62 38.5t22 107.5q0 60 -45 60q-82 0 -82 -146zM757 503q0 106 61.5 170.5t175.5 64.5q79 0 118.5 -37t39.5 -104q0 -105 -64.5 -170t-172.5 -65q-79 0 -118.5 37t-39.5 104zM725 143l27 115h277l-27 -115h-277zM46 0l148 702h155l170 -512h2
l7 44l92 468h128l-148 -702h-157l-169 508h-3l-9 -57l-88 -451h-128z" />
    <glyph glyph-name="trademark" unicode="&#x2122;" horiz-adv-x="824" 
d="M370 270l87 409l115 1l59 -230h4l151 230h114l-87 -410h-115l46 237h-5l-92 -164h-80l-33 164h-3l-46 -237h-115zM97 583l24 97h292l-24 -97h-83l-66 -313h-120l66 313h-89z" />
    </font>
</defs>
</svg>
