<svg xmlns="http://www.w3.org/2000/svg" width="13" height="13" viewBox="0 0 13 13">
  <defs>
    <style>
      .cls-1 {
        fill: #fff;
        fill-rule: evenodd;
      }
    </style>
  </defs>
  <path class="cls-1" d="M237.5,12.971A6.486,6.486,0,1,1,244,6.5,6.491,6.491,0,0,1,237.5,12.971Zm0-12.354a5.868,5.868,0,1,0,5.91,5.887A5.9,5.9,0,0,0,237.5.617ZM237.5,13a7.943,7.943,0,0,1-4.771-2.115,0.348,0.348,0,0,1-.1-0.291,0.34,0.34,0,0,1,.167-0.255l2.673-1.508a6.181,6.181,0,0,1-.769-2.95c0-1.9,1.256-3.444,2.8-3.444s2.8,1.545,2.8,3.444a6.152,6.152,0,0,1-.78,2.963L242.2,10.3a0.339,0.339,0,0,1,.172.255,0.345,0.345,0,0,1-.1.294A8.059,8.059,0,0,1,237.5,13Zm-3.976-2.3c-0.652.388,2.71,1.739,3.976,1.739,1.24,0,4.631-1.506,3.977-1.769l-2.611-1.419A0.339,0.339,0,0,1,238.691,9a0.346,0.346,0,0,1,.1-0.294,4.891,4.891,0,0,0,.858-2.822c0-1.524-.965-2.765-2.15-2.765s-2.15,1.24-2.15,2.765a4.92,4.92,0,0,0,.843,2.807,0.35,0.35,0,0,1,.1.291,0.337,0.337,0,0,1-.167.255Z" transform="translate(-231)"/>
</svg>
